solid Totem Plastic Brackets collection v.1.0
facet normal 1.0 0.0 0.0
  outer loop
    vertex 98.30449446508487 62.69076465700486 2.00000000000004
    vertex 98.30449446508487 52.69076465700488 9.98000000000004
    vertex 98.30449446508487 52.69076465700488 2.00000000000004
  endloop
endfacet
facet normal 1.0 0.0 0.0
  outer loop
    vertex 98.30449446508487 52.69076465700488 9.98000000000004
    vertex 98.30449446508487 62.69076465700486 2.00000000000004
    vertex 98.30449446508487 62.69076465700486 9.98000000000004
  endloop
endfacet
facet normal -0.7071067811865476 -0.7071067811865476 0.0
  outer loop
    vertex 98.30449446508487 52.69076465700488 9.98000000000004
    vertex 96.89028090271178 54.104978219377976 9.600000000000039
    vertex 98.30449446508487 52.69076465700488 2.00000000000004
  endloop
endfacet
facet normal -0.7071067811865476 -0.7071067811865476 0.0
  outer loop
    vertex 96.89028090271178 54.104978219377976 9.600000000000039
    vertex 98.30449446508487 52.69076465700488 9.98000000000004
    vertex 96.60743819023719 54.38782093185256 10.00000000000004
  endloop
endfacet
facet normal -0.7071067811865476 -0.7071067811865476 0.0
  outer loop
    vertex 96.89028090271178 54.104978219377976 9.600000000000039
    vertex 96.60743819023719 54.38782093185256 10.00000000000004
    vertex 96.62158032586092 54.37367879622883 9.98000000000004
  endloop
endfacet
facet normal -0.7071067811865476 -0.7071067811865476 0.0
  outer loop
    vertex 98.30449446508487 52.69076465700488 2.00000000000004
    vertex 96.89028090271178 54.104978219377976 2.4000000000000394
    vertex 96.60743819023715 54.3878209318526 2.000000000000043
  endloop
endfacet
facet normal -0.7071067811865476 -0.7071067811865476 0.0
  outer loop
    vertex 96.89028090271178 54.104978219377976 2.4000000000000394
    vertex 98.30449446508487 52.69076465700488 2.00000000000004
    vertex 96.89028090271178 54.104978219377976 9.600000000000039
  endloop
endfacet
facet normal -0.3826834323650899 0.9238795325112867 0.0
  outer loop
    vertex 91.23342665321942 59.761832468870324 9.98000000000004
    vertex 98.30449446508487 62.69076465700486 2.00000000000004
    vertex 91.23342665321942 59.761832468870324 2.00000000000004
  endloop
endfacet
facet normal -0.3826834323650899 0.9238795325112867 0.0
  outer loop
    vertex 98.30449446508487 62.69076465700486 2.00000000000004
    vertex 91.23342665321942 59.761832468870324 9.98000000000004
    vertex 98.30449446508487 62.69076465700486 9.98000000000004
  endloop
endfacet
facet normal 0.5501349328535062 -0.8252023992802848 0.12803341702981139
  outer loop
    vertex 91.82802497332185 54.92459346164864 4.669417145877015
    vertex 90.95058394074479 54.3878209318526 4.980000000000041
    vertex 90.98431565175686 54.35408922084054 4.617653336856509
  endloop
endfacet
facet normal 0.5501349328535062 -0.8252023992802848 0.12803341702981139
  outer loop
    vertex 90.95058394074479 54.3878209318526 4.980000000000041
    vertex 91.82802497332185 54.92459346164864 4.669417145877015
    vertex 91.79911207816868 54.9535063568018 4.980000000000041
  endloop
endfacet
facet normal 0.0009999990000011676 0.0009999990000015006 0.9999990000015001
  outer loop
    vertex 92.93048292806715 58.06477619402264 10.000000000000036
    vertex 98.30449446508487 62.69076465700486 9.98000000000004
    vertex 91.23342665321942 59.761832468870324 9.98000000000004
  endloop
endfacet
facet normal 0.0009999990000011676 0.0009999990000015006 0.9999990000015001
  outer loop
    vertex 98.30449446508487 62.69076465700486 9.98000000000004
    vertex 92.93048292806715 58.06477619402264 10.000000000000036
    vertex 96.60743819023719 54.38782093185256 10.00000000000004
  endloop
endfacet
facet normal 0.0009999990000011676 0.0009999990000015006 0.9999990000015001
  outer loop
    vertex 98.30449446508487 62.69076465700486 9.98000000000004
    vertex 96.60743819023719 54.38782093185256 10.00000000000004
    vertex 98.30449446508487 52.69076465700488 9.98000000000004
  endloop
endfacet
facet normal 0.7071067811865531 -0.7071067811865419 4.869229532942268e-31
  outer loop
    vertex 96.89028090271178 54.104978219377976 2.4000000000000394
    vertex 94.06185377796562 51.27655109463178 9.600000000000039
    vertex 94.06185377796562 51.27655109463178 2.4000000000000408
  endloop
endfacet
facet normal 0.7071067811865531 -0.7071067811865419 4.869229532942268e-31
  outer loop
    vertex 94.06185377796562 51.27655109463178 9.600000000000039
    vertex 96.89028090271178 54.104978219377976 2.4000000000000394
    vertex 96.89028090271178 54.104978219377976 9.600000000000039
  endloop
endfacet
facet normal 7.788873891871266e-17 -1.377610332238862e-16 -1.0
  outer loop
    vertex 98.30449446508487 62.69076465700486 2.00000000000004
    vertex 92.93048292806715 58.06477619402264 2.00000000000004
    vertex 91.23342665321942 59.761832468870324 2.00000000000004
  endloop
endfacet
facet normal 7.788873891871266e-17 -1.377610332238862e-16 -1.0
  outer loop
    vertex 92.93048292806715 58.06477619402264 2.00000000000004
    vertex 98.30449446508487 62.69076465700486 2.00000000000004
    vertex 93.77901106549099 51.55939380710641 2.000000000000043
  endloop
endfacet
facet normal 7.788873891871266e-17 -1.377610332238862e-16 -1.0
  outer loop
    vertex 93.77901106549099 51.55939380710641 2.000000000000043
    vertex 98.30449446508487 62.69076465700486 2.00000000000004
    vertex 96.60743819023715 54.3878209318526 2.000000000000043
  endloop
endfacet
facet normal 7.788873891871266e-17 -1.377610332238862e-16 -1.0
  outer loop
    vertex 96.60743819023715 54.3878209318526 2.000000000000043
    vertex 98.30449446508487 62.69076465700486 2.00000000000004
    vertex 98.30449446508487 52.69076465700488 2.00000000000004
  endloop
endfacet
facet normal 7.788873891871266e-17 -1.377610332238862e-16 -1.0
  outer loop
    vertex 93.77901106549099 51.55939380710641 2.000000000000043
    vertex 90.10205580332095 55.23634906927644 2.00000000000004
    vertex 92.93048292806715 58.06477619402264 2.00000000000004
  endloop
endfacet
facet normal -0.7071067811865497 -0.7071067811865455 1.1314709914868585e-15
  outer loop
    vertex 97.99514826538652 57.949858325009075 5.2647009496128
    vertex 97.99514826538652 57.94985832500908 4.6952990503872565
    vertex 98.0216517526103 57.92335483778532 4.980000000000027
  endloop
endfacet
facet normal -0.7071067811865497 -0.7071067811865455 1.1314709914868585e-15
  outer loop
    vertex 97.99514826538652 57.94985832500908 4.6952990503872565
    vertex 97.99514826538652 57.949858325009075 5.2647009496128
    vertex 97.91744397257047 58.02756261782515 5.530000000000029
  endloop
endfacet
facet normal -0.7071067811865497 -0.7071067811865455 1.1314709914868585e-15
  outer loop
    vertex 97.99514826538652 57.94985832500908 4.6952990503872565
    vertex 97.91744397257047 58.02756261782515 5.530000000000029
    vertex 97.91744397257042 58.02756261782515 4.430000000000031
  endloop
endfacet
facet normal -0.7071067811865497 -0.7071067811865455 1.1314709914868585e-15
  outer loop
    vertex 97.91744397257042 58.02756261782515 4.430000000000031
    vertex 97.91744397257047 58.02756261782515 5.530000000000029
    vertex 97.79383429330508 58.15117229709051 5.757817459305233
  endloop
endfacet
facet normal -0.7071067811865497 -0.7071067811865455 1.1314709914868585e-15
  outer loop
    vertex 97.91744397257042 58.02756261782515 4.430000000000031
    vertex 97.79383429330508 58.15117229709051 5.757817459305233
    vertex 97.79383429330508 58.151172297090525 4.202182540694831
  endloop
endfacet
facet normal -0.7071067811865497 -0.7071067811865455 1.1314709914868585e-15
  outer loop
    vertex 97.79383429330508 58.151172297090525 4.202182540694831
    vertex 97.79383429330508 58.15117229709051 5.757817459305233
    vertex 97.63274302295768 58.31226356743792 5.932627944162918
  endloop
endfacet
facet normal -0.7071067811865497 -0.7071067811865455 1.1314709914868585e-15
  outer loop
    vertex 97.79383429330508 58.151172297090525 4.202182540694831
    vertex 97.63274302295768 58.31226356743792 5.932627944162918
    vertex 97.63274302295768 58.312263567437924 4.027372055837153
  endloop
endfacet
facet normal -0.7071067811865497 -0.7071067811865455 1.1314709914868585e-15
  outer loop
    vertex 97.63274302295768 58.312263567437924 4.027372055837153
    vertex 97.63274302295768 58.31226356743792 5.932627944162918
    vertex 97.4451482653865 58.49985832500907 6.042518408918013
  endloop
endfacet
facet normal -0.7071067811865497 -0.7071067811865455 1.1314709914868585e-15
  outer loop
    vertex 97.63274302295768 58.312263567437924 4.027372055837153
    vertex 97.4451482653865 58.49985832500907 6.042518408918013
    vertex 97.4451482653865 58.499858325009086 3.917481591082064
  endloop
endfacet
facet normal -0.7071067811865497 -0.7071067811865455 1.1314709914868585e-15
  outer loop
    vertex 97.4451482653865 58.499858325009086 3.917481591082064
    vertex 97.4451482653865 58.49985832500907 6.042518408918013
    vertex 97.24383429330507 58.701172297090515 6.080000000000042
  endloop
endfacet
facet normal -0.7071067811865497 -0.7071067811865455 1.1314709914868585e-15
  outer loop
    vertex 97.4451482653865 58.499858325009086 3.917481591082064
    vertex 97.24383429330507 58.701172297090515 6.080000000000042
    vertex 97.24383429330507 58.70117229709054 3.8800000000000416
  endloop
endfacet
facet normal -0.7071067811865497 -0.7071067811865455 1.1314709914868585e-15
  outer loop
    vertex 97.24383429330507 58.70117229709054 3.8800000000000416
    vertex 97.24383429330507 58.701172297090515 6.080000000000042
    vertex 97.04252032122363 58.902486269171966 6.042518408918021
  endloop
endfacet
facet normal -0.7071067811865497 -0.7071067811865455 1.1314709914868585e-15
  outer loop
    vertex 97.24383429330507 58.70117229709054 3.8800000000000416
    vertex 97.04252032122363 58.902486269171966 6.042518408918021
    vertex 97.04252032122363 58.90248626917197 3.9174815910820695
  endloop
endfacet
facet normal -0.7071067811865497 -0.7071067811865455 1.1314709914868585e-15
  outer loop
    vertex 97.04252032122363 58.90248626917197 3.9174815910820695
    vertex 97.04252032122363 58.902486269171966 6.042518408918021
    vertex 96.85492556365246 59.09008102674312 5.932627944162932
  endloop
endfacet
facet normal -0.7071067811865497 -0.7071067811865455 1.1314709914868585e-15
  outer loop
    vertex 97.04252032122363 58.90248626917197 3.9174815910820695
    vertex 96.85492556365246 59.09008102674312 5.932627944162932
    vertex 96.85492556365246 59.090081026743135 4.027372055837165
  endloop
endfacet
facet normal -0.7071067811865497 -0.7071067811865455 1.1314709914868585e-15
  outer loop
    vertex 96.85492556365246 59.090081026743135 4.027372055837165
    vertex 96.85492556365246 59.09008102674312 5.932627944162932
    vertex 96.6938342933051 59.25117229709052 5.757817459305254
  endloop
endfacet
facet normal -0.7071067811865497 -0.7071067811865455 1.1314709914868585e-15
  outer loop
    vertex 96.85492556365246 59.090081026743135 4.027372055837165
    vertex 96.6938342933051 59.25117229709052 5.757817459305254
    vertex 96.69383429330506 59.251172297090534 4.2021825406948485
  endloop
endfacet
facet normal -0.7071067811865497 -0.7071067811865455 1.1314709914868585e-15
  outer loop
    vertex 96.69383429330506 59.251172297090534 4.2021825406948485
    vertex 96.6938342933051 59.25117229709052 5.757817459305254
    vertex 96.57022461403972 59.3747819763559 5.530000000000053
  endloop
endfacet
facet normal -0.7071067811865497 -0.7071067811865455 1.1314709914868585e-15
  outer loop
    vertex 96.69383429330506 59.251172297090534 4.2021825406948485
    vertex 96.57022461403972 59.3747819763559 5.530000000000053
    vertex 96.57022461403967 59.37478197635591 4.430000000000053
  endloop
endfacet
facet normal -0.7071067811865497 -0.7071067811865455 1.1314709914868585e-15
  outer loop
    vertex 96.57022461403967 59.37478197635591 4.430000000000053
    vertex 96.57022461403972 59.3747819763559 5.530000000000053
    vertex 96.49252032122362 59.45248626917196 5.264700949612827
  endloop
endfacet
facet normal -0.7071067811865497 -0.7071067811865455 1.1314709914868585e-15
  outer loop
    vertex 96.57022461403967 59.37478197635591 4.430000000000053
    vertex 96.49252032122362 59.45248626917196 5.264700949612827
    vertex 96.49252032122362 59.45248626917198 4.695299050387282
  endloop
endfacet
facet normal -0.7071067811865497 -0.7071067811865455 1.1314709914868585e-15
  outer loop
    vertex 96.49252032122362 59.45248626917198 4.695299050387282
    vertex 96.49252032122362 59.45248626917196 5.264700949612827
    vertex 96.46601683399986 59.47898975639573 4.9800000000000555
  endloop
endfacet
facet normal -0.7071067811865447 0.7071067811865503 -2.2135314691756033e-15
  outer loop
    vertex 89.81921309084633 55.519191781751076 2.4000000000000408
    vertex 92.64764021559247 58.347618906497225 9.600000000000039
    vertex 92.64764021559252 58.347618906497225 2.4000000000000394
  endloop
endfacet
facet normal -0.7071067811865447 0.7071067811865503 -2.2135314691756033e-15
  outer loop
    vertex 92.64764021559247 58.347618906497225 9.600000000000039
    vertex 89.81921309084633 55.519191781751076 2.4000000000000408
    vertex 89.81921309084633 55.519191781751076 9.600000000000039
  endloop
endfacet
facet normal -0.22806703061368755 -0.047000435813071215 -0.9725103539708135
  outer loop
    vertex 92.64764021559252 54.10497821937796 6.1800000000000415
    vertex 92.19675121705507 53.14165365554232 6.332296156804735
    vertex 91.94053343440598 53.39787143819143 6.38000000000004
  endloop
endfacet
facet normal -0.22806703061368755 -0.047000435813071215 -0.9725103539708135
  outer loop
    vertex 92.19675121705507 53.14165365554232 6.332296156804735
    vertex 92.64764021559252 54.10497821937796 6.1800000000000415
    vertex 92.86725545786315 53.88536297710729 6.139110991546923
  endloop
endfacet
facet normal -7.669297778955328e-16 7.669297778955389e-16 1.0
  outer loop
    vertex 93.77901106549099 51.55939380710641 10.00000000000004
    vertex 92.93048292806715 58.06477619402264 10.000000000000036
    vertex 90.10205580332095 55.23634906927644 10.000000000000036
  endloop
endfacet
facet normal -7.669297778955328e-16 7.669297778955389e-16 1.0
  outer loop
    vertex 92.93048292806715 58.06477619402264 10.000000000000036
    vertex 93.77901106549099 51.55939380710641 10.00000000000004
    vertex 96.60743819023719 54.38782093185256 10.00000000000004
  endloop
endfacet
facet normal 0.5501349328535062 -0.8252023992802846 -0.12803341702981344
  outer loop
    vertex 91.82802497332185 54.92459346164864 5.290582854123065
    vertex 90.95058394074479 54.3878209318526 4.980000000000041
    vertex 91.79911207816868 54.9535063568018 4.980000000000041
  endloop
endfacet
facet normal 0.5501349328535062 -0.8252023992802846 -0.12803341702981344
  outer loop
    vertex 90.95058394074479 54.3878209318526 4.980000000000041
    vertex 91.82802497332185 54.92459346164864 5.290582854123065
    vertex 90.98431565175686 54.354089220840535 5.342346663143569
  endloop
endfacet
facet normal -0.5597722016838508 0.2847047352571 -0.778201963467196
  outer loop
    vertex 93.07190428430444 53.68071415066604 6.019230484541368
    vertex 92.64053343440595 52.69787143819142 5.969949493661205
    vertex 92.43550818123656 52.90289669136084 6.192435565298253
  endloop
endfacet
facet normal -0.5597722016838508 0.2847047352571 -0.778201963467196
  outer loop
    vertex 92.64053343440595 52.69787143819142 5.969949493661205
    vertex 93.07190428430444 53.68071415066604 6.019230484541368
    vertex 93.24764021559253 53.50497821937797 5.828528137423899
  endloop
endfacet
facet normal -0.5597722016838503 0.2847047352570981 0.778201963467197
  outer loop
    vertex 92.64053343440595 52.69787143819143 3.9900505063388714
    vertex 93.07190428430444 53.68071415066604 3.940769515458712
    vertex 92.43550818123656 52.90289669136084 3.767564434701825
  endloop
endfacet
facet normal -0.5597722016838503 0.2847047352570981 0.778201963467197
  outer loop
    vertex 93.07190428430444 53.68071415066604 3.940769515458712
    vertex 92.64053343440595 52.69787143819143 3.9900505063388714
    vertex 93.24764021559253 53.50497821937797 4.1314718625761815
  endloop
endfacet
facet normal -0.40296393080979 0.12789646438302768 0.9062353804970561
  outer loop
    vertex 92.43550818123656 52.90289669136084 3.767564434701825
    vertex 92.86725545786315 53.88536297710729 3.820889008453156
    vertex 92.19675121705507 53.14165365554232 3.6277038431953437
  endloop
endfacet
facet normal -0.40296393080979 0.12789646438302768 0.9062353804970561
  outer loop
    vertex 92.86725545786315 53.88536297710729 3.820889008453156
    vertex 92.43550818123656 52.90289669136084 3.767564434701825
    vertex 93.07190428430444 53.68071415066604 3.940769515458712
  endloop
endfacet
facet normal -0.7783389161140042 0.5032714496872759 -0.37537498530422203
  outer loop
    vertex 92.79785484438007 52.54055002821731 5.680000000000039
    vertex 93.4672554578632 53.28536297710729 5.290582854123065
    vertex 92.8967512170551 52.44165365554231 5.342346663143566
  endloop
endfacet
facet normal -0.7783389161140042 0.5032714496872759 -0.37537498530422203
  outer loop
    vertex 93.4672554578632 53.28536297710729 5.290582854123065
    vertex 92.79785484438007 52.54055002821731 5.680000000000039
    vertex 93.38248713842748 53.370131296543 5.58000000000004
  endloop
endfacet
facet normal 0.5000000000000135 -0.5000000000000144 0.7071067811865279
  outer loop
    vertex 94.06185377796562 51.27655109463178 9.600000000000039
    vertex 96.60743819023719 54.38782093185256 10.00000000000004
    vertex 93.77901106549099 51.55939380710641 10.00000000000004
  endloop
endfacet
facet normal 0.5000000000000135 -0.5000000000000144 0.7071067811865279
  outer loop
    vertex 96.60743819023719 54.38782093185256 10.00000000000004
    vertex 94.06185377796562 51.27655109463178 9.600000000000039
    vertex 96.89028090271178 54.104978219377976 9.600000000000039
  endloop
endfacet
facet normal 0.5000000000000135 -0.5000000000000144 0.7071067811865279
  outer loop
    vertex 96.60743819023719 54.38782093185256 10.00000000000004
    vertex 96.89028090271178 54.104978219377976 9.600000000000039
    vertex 96.62158032586092 54.37367879622883 9.98000000000004
  endloop
endfacet
facet normal 0.41273815228694716 -0.6878056187137133 0.5971353686666058
  outer loop
    vertex 92.04764021559252 54.70497821937796 4.1314718625761815
    vertex 91.08321202443189 54.25519284816554 4.280000000000039
    vertex 91.240533434406 54.09787143819144 3.9900505063388727
  endloop
endfacet
facet normal 0.41273815228694716 -0.6878056187137133 0.5971353686666058
  outer loop
    vertex 91.08321202443189 54.25519284816554 4.280000000000039
    vertex 92.04764021559252 54.70497821937796 4.1314718625761815
    vertex 91.91279329275756 54.83982514221292 4.380000000000039
  endloop
endfacet
facet normal 0.2847047352570864 -0.559772201683859 0.7782019634671951
  outer loop
    vertex 91.44555868757539 53.892846185022016 3.767564434701825
    vertex 92.04764021559252 54.70497821937796 4.1314718625761815
    vertex 91.240533434406 54.09787143819144 3.9900505063388727
  endloop
endfacet
facet normal 0.2847047352570864 -0.559772201683859 0.7782019634671951
  outer loop
    vertex 92.04764021559252 54.70497821937796 4.1314718625761815
    vertex 91.44555868757539 53.892846185022016 3.767564434701825
    vertex 92.2233761468806 54.52924228808988 3.940769515458712
  endloop
endfacet
facet normal 0.4999999999999995 -0.4999999999999949 -0.7071067811865517
  outer loop
    vertex 96.60743819023715 54.3878209318526 2.000000000000043
    vertex 94.06185377796562 51.27655109463178 2.4000000000000408
    vertex 93.77901106549099 51.55939380710641 2.000000000000043
  endloop
endfacet
facet normal 0.4999999999999995 -0.4999999999999949 -0.7071067811865517
  outer loop
    vertex 94.06185377796562 51.27655109463178 2.4000000000000408
    vertex 96.60743819023715 54.3878209318526 2.000000000000043
    vertex 96.89028090271178 54.104978219377976 2.4000000000000394
  endloop
endfacet
facet normal -0.6878056187137017 0.412738152286961 0.5971353686666095
  outer loop
    vertex 93.38248713842748 53.370131296543 4.380000000000039
    vertex 92.64053343440595 52.69787143819143 3.9900505063388714
    vertex 92.79785484438007 52.54055002821731 4.280000000000038
  endloop
endfacet
facet normal -0.6878056187137017 0.412738152286961 0.5971353686666095
  outer loop
    vertex 92.64053343440595 52.69787143819143 3.9900505063388714
    vertex 93.38248713842748 53.370131296543 4.380000000000039
    vertex 93.24764021559253 53.50497821937797 4.1314718625761815
  endloop
endfacet
facet normal -0.8252023992802624 0.550134932853532 -0.1280334170298455
  outer loop
    vertex 92.8967512170551 52.44165365554231 5.342346663143566
    vertex 93.49616835301636 53.25645008195408 4.980000000000041
    vertex 92.93048292806715 52.40792194453025 4.980000000000039
  endloop
endfacet
facet normal -0.8252023992802624 0.550134932853532 -0.1280334170298455
  outer loop
    vertex 93.49616835301636 53.25645008195408 4.980000000000041
    vertex 92.8967512170551 52.44165365554231 5.342346663143566
    vertex 93.4672554578632 53.28536297710729 5.290582854123065
  endloop
endfacet
facet normal -0.047000435813074545 -0.22806703061368963 0.9725103539708129
  outer loop
    vertex 91.94053343440598 53.39787143819143 3.5800000000000396
    vertex 92.42802497332185 54.3245934616486 3.820889008453156
    vertex 91.68431565175688 53.65408922084053 3.6277038431953437
  endloop
endfacet
facet normal -0.047000435813074545 -0.22806703061368963 0.9725103539708129
  outer loop
    vertex 92.42802497332185 54.3245934616486 3.820889008453156
    vertex 91.94053343440598 53.39787143819143 3.5800000000000396
    vertex 92.64764021559252 54.10497821937796 3.7800000000000376
  endloop
endfacet
facet normal -0.5000000000000018 0.5000000000000018 -0.7071067811865451
  outer loop
    vertex 92.64764021559252 58.347618906497225 2.4000000000000394
    vertex 90.10205580332095 55.23634906927644 2.00000000000004
    vertex 89.81921309084633 55.519191781751076 2.4000000000000408
  endloop
endfacet
facet normal -0.5000000000000018 0.5000000000000018 -0.7071067811865451
  outer loop
    vertex 90.10205580332095 55.23634906927644 2.00000000000004
    vertex 92.64764021559252 58.347618906497225 2.4000000000000394
    vertex 92.93048292806715 58.06477619402264 2.00000000000004
  endloop
endfacet
facet normal -0.8252023992802624 0.5501349328535319 0.128033417029847
  outer loop
    vertex 93.49616835301636 53.25645008195408 4.980000000000041
    vertex 92.8967512170551 52.44165365554232 4.617653336856508
    vertex 92.93048292806715 52.40792194453025 4.980000000000039
  endloop
endfacet
facet normal -0.8252023992802624 0.5501349328535319 0.128033417029847
  outer loop
    vertex 92.8967512170551 52.44165365554232 4.617653336856508
    vertex 93.49616835301636 53.25645008195408 4.980000000000041
    vertex 93.4672554578632 53.28536297710729 4.669417145877015
  endloop
endfacet
facet normal -0.22806703061368783 -0.047000435813072235 0.9725103539708133
  outer loop
    vertex 92.19675121705507 53.14165365554232 3.6277038431953437
    vertex 92.64764021559252 54.10497821937796 3.7800000000000376
    vertex 91.94053343440598 53.39787143819143 3.5800000000000396
  endloop
endfacet
facet normal -0.22806703061368783 -0.047000435813072235 0.9725103539708133
  outer loop
    vertex 92.64764021559252 54.10497821937796 3.7800000000000376
    vertex 92.19675121705507 53.14165365554232 3.6277038431953437
    vertex 92.86725545786315 53.88536297710729 3.820889008453156
  endloop
endfacet
facet normal -0.4999999999999896 0.49999999999998973 0.7071067811865621
  outer loop
    vertex 90.10205580332095 55.23634906927644 10.000000000000036
    vertex 92.64764021559247 58.347618906497225 9.600000000000039
    vertex 89.81921309084633 55.519191781751076 9.600000000000039
  endloop
endfacet
facet normal -0.4999999999999896 0.49999999999998973 0.7071067811865621
  outer loop
    vertex 92.64764021559247 58.347618906497225 9.600000000000039
    vertex 90.10205580332095 55.23634906927644 10.000000000000036
    vertex 92.91634079244342 58.078918329646356 9.98000000000004
  endloop
endfacet
facet normal -0.4999999999999896 0.49999999999998973 0.7071067811865621
  outer loop
    vertex 92.91634079244342 58.078918329646356 9.98000000000004
    vertex 90.10205580332095 55.23634906927644 10.000000000000036
    vertex 92.93048292806715 58.06477619402264 10.000000000000036
  endloop
endfacet
facet normal -0.7783389161140042 0.5032714496872751 0.37537498530422303
  outer loop
    vertex 93.4672554578632 53.28536297710729 4.669417145877015
    vertex 92.79785484438007 52.54055002821731 4.280000000000038
    vertex 92.8967512170551 52.44165365554232 4.617653336856508
  endloop
endfacet
facet normal -0.7783389161140042 0.5032714496872751 0.37537498530422303
  outer loop
    vertex 92.79785484438007 52.54055002821731 4.280000000000038
    vertex 93.4672554578632 53.28536297710729 4.669417145877015
    vertex 93.38248713842748 53.370131296543 4.380000000000039
  endloop
endfacet
facet normal 0.1278964643830206 -0.4029639308097956 0.9062353804970545
  outer loop
    vertex 91.68431565175688 53.65408922084053 3.6277038431953437
    vertex 92.2233761468806 54.52924228808988 3.940769515458712
    vertex 91.44555868757539 53.892846185022016 3.767564434701825
  endloop
endfacet
facet normal 0.1278964643830206 -0.4029639308097956 0.9062353804970545
  outer loop
    vertex 92.2233761468806 54.52924228808988 3.940769515458712
    vertex 91.68431565175688 53.65408922084053 3.6277038431953437
    vertex 92.42802497332185 54.3245934616486 3.820889008453156
  endloop
endfacet
facet normal 0.5032714496872573 -0.7783389161140156 0.37537498530422303
  outer loop
    vertex 91.91279329275756 54.83982514221292 4.380000000000039
    vertex 90.98431565175686 54.35408922084054 4.617653336856509
    vertex 91.08321202443189 54.25519284816554 4.280000000000039
  endloop
endfacet
facet normal 0.5032714496872573 -0.7783389161140156 0.37537498530422303
  outer loop
    vertex 90.98431565175686 54.35408922084054 4.617653336856509
    vertex 91.91279329275756 54.83982514221292 4.380000000000039
    vertex 91.82802497332185 54.92459346164864 4.669417145877015
  endloop
endfacet
facet normal 0.1278964643830219 -0.402963930809794 -0.9062353804970551
  outer loop
    vertex 92.2233761468806 54.52924228808988 6.019230484541367
    vertex 91.68431565175688 53.65408922084053 6.332296156804736
    vertex 91.44555868757539 53.892846185022016 6.192435565298254
  endloop
endfacet
facet normal 0.1278964643830219 -0.402963930809794 -0.9062353804970551
  outer loop
    vertex 91.68431565175688 53.65408922084053 6.332296156804736
    vertex 92.2233761468806 54.52924228808988 6.019230484541367
    vertex 92.42802497332185 54.3245934616486 6.139110991546923
  endloop
endfacet
facet normal -0.4029639308097892 0.1278964643830287 -0.9062353804970562
  outer loop
    vertex 92.86725545786315 53.88536297710729 6.139110991546923
    vertex 92.43550818123656 52.90289669136084 6.192435565298253
    vertex 92.19675121705507 53.14165365554232 6.332296156804735
  endloop
endfacet
facet normal -0.4029639308097892 0.1278964643830287 -0.9062353804970562
  outer loop
    vertex 92.43550818123656 52.90289669136084 6.192435565298253
    vertex 92.86725545786315 53.88536297710729 6.139110991546923
    vertex 93.07190428430444 53.68071415066604 6.019230484541368
  endloop
endfacet
facet normal -0.687805618713702 0.4127381522869624 -0.597135368666608
  outer loop
    vertex 92.64053343440595 52.69787143819142 5.969949493661205
    vertex 93.38248713842748 53.370131296543 5.58000000000004
    vertex 92.79785484438007 52.54055002821731 5.680000000000039
  endloop
endfacet
facet normal -0.687805618713702 0.4127381522869624 -0.597135368666608
  outer loop
    vertex 93.38248713842748 53.370131296543 5.58000000000004
    vertex 92.64053343440595 52.69787143819142 5.969949493661205
    vertex 93.24764021559253 53.50497821937797 5.828528137423899
  endloop
endfacet
facet normal 0.2847047352570877 -0.5597722016838586 -0.7782019634671951
  outer loop
    vertex 92.04764021559252 54.70497821937796 5.828528137423897
    vertex 91.44555868757539 53.892846185022016 6.192435565298254
    vertex 91.240533434406 54.097871438191426 5.969949493661208
  endloop
endfacet
facet normal 0.2847047352570877 -0.5597722016838586 -0.7782019634671951
  outer loop
    vertex 91.44555868757539 53.892846185022016 6.192435565298254
    vertex 92.04764021559252 54.70497821937796 5.828528137423897
    vertex 92.2233761468806 54.52924228808988 6.019230484541367
  endloop
endfacet
facet normal 0.5032714496872587 -0.7783389161140148 -0.3753749853042231
  outer loop
    vertex 91.91279329275756 54.83982514221292 5.58000000000004
    vertex 90.98431565175686 54.354089220840535 5.342346663143569
    vertex 91.82802497332185 54.92459346164864 5.290582854123065
  endloop
endfacet
facet normal 0.5032714496872587 -0.7783389161140148 -0.3753749853042231
  outer loop
    vertex 90.98431565175686 54.354089220840535 5.342346663143569
    vertex 91.91279329275756 54.83982514221292 5.58000000000004
    vertex 91.08321202443189 54.25519284816554 5.6800000000000415
  endloop
endfacet
facet normal -0.7071067811865476 -0.7071067811865476 0.0
  outer loop
    vertex 93.77901106549099 51.55939380710641 10.00000000000004
    vertex 94.06185377796562 51.27655109463178 2.4000000000000408
    vertex 94.06185377796562 51.27655109463178 9.600000000000039
  endloop
endfacet
facet normal -0.7071067811865476 -0.7071067811865476 0.0
  outer loop
    vertex 94.06185377796562 51.27655109463178 2.4000000000000408
    vertex 93.77901106549099 51.55939380710641 10.00000000000004
    vertex 93.77901106549099 51.55939380710641 2.000000000000043
  endloop
endfacet
facet normal -0.7071067811865476 -0.7071067811865476 0.0
  outer loop
    vertex 93.77901106549099 51.55939380710641 2.000000000000043
    vertex 93.77901106549099 51.55939380710641 10.00000000000004
    vertex 92.8967512170551 52.44165365554231 5.342346663143566
  endloop
endfacet
facet normal -0.7071067811865476 -0.7071067811865476 0.0
  outer loop
    vertex 92.8967512170551 52.44165365554231 5.342346663143566
    vertex 93.77901106549099 51.55939380710641 10.00000000000004
    vertex 92.79785484438007 52.54055002821731 5.680000000000039
  endloop
endfacet
facet normal -0.7071067811865476 -0.7071067811865476 0.0
  outer loop
    vertex 92.79785484438007 52.54055002821731 5.680000000000039
    vertex 93.77901106549099 51.55939380710641 10.00000000000004
    vertex 92.64053343440595 52.69787143819142 5.969949493661205
  endloop
endfacet
facet normal -0.7071067811865476 -0.7071067811865476 0.0
  outer loop
    vertex 92.64053343440595 52.69787143819142 5.969949493661205
    vertex 93.77901106549099 51.55939380710641 10.00000000000004
    vertex 90.10205580332095 55.23634906927644 10.000000000000036
  endloop
endfacet
facet normal -0.7071067811865476 -0.7071067811865476 0.0
  outer loop
    vertex 93.77901106549099 51.55939380710641 2.000000000000043
    vertex 92.8967512170551 52.44165365554231 5.342346663143566
    vertex 92.93048292806715 52.40792194453025 4.980000000000039
  endloop
endfacet
facet normal -0.7071067811865476 -0.7071067811865476 0.0
  outer loop
    vertex 92.64053343440595 52.69787143819142 5.969949493661205
    vertex 90.10205580332095 55.23634906927644 10.000000000000036
    vertex 92.43550818123656 52.90289669136084 6.192435565298253
  endloop
endfacet
facet normal -0.7071067811865476 -0.7071067811865476 0.0
  outer loop
    vertex 92.43550818123656 52.90289669136084 6.192435565298253
    vertex 90.10205580332095 55.23634906927644 10.000000000000036
    vertex 92.19675121705507 53.14165365554232 6.332296156804735
  endloop
endfacet
facet normal -0.7071067811865476 -0.7071067811865476 0.0
  outer loop
    vertex 92.19675121705507 53.14165365554232 6.332296156804735
    vertex 90.10205580332095 55.23634906927644 10.000000000000036
    vertex 91.94053343440598 53.39787143819143 6.38000000000004
  endloop
endfacet
facet normal -0.7071067811865476 -0.7071067811865476 0.0
  outer loop
    vertex 91.94053343440598 53.39787143819143 6.38000000000004
    vertex 90.10205580332095 55.23634906927644 10.000000000000036
    vertex 91.68431565175688 53.65408922084053 6.332296156804736
  endloop
endfacet
facet normal -0.7071067811865476 -0.7071067811865476 0.0
  outer loop
    vertex 91.68431565175688 53.65408922084053 6.332296156804736
    vertex 90.10205580332095 55.23634906927644 10.000000000000036
    vertex 91.44555868757539 53.892846185022016 6.192435565298254
  endloop
endfacet
facet normal -0.7071067811865476 -0.7071067811865476 0.0
  outer loop
    vertex 91.44555868757539 53.892846185022016 6.192435565298254
    vertex 90.10205580332095 55.23634906927644 10.000000000000036
    vertex 91.240533434406 54.097871438191426 5.969949493661208
  endloop
endfacet
facet normal -0.7071067811865476 -0.7071067811865476 0.0
  outer loop
    vertex 91.240533434406 54.097871438191426 5.969949493661208
    vertex 90.10205580332095 55.23634906927644 10.000000000000036
    vertex 91.08321202443189 54.25519284816554 5.6800000000000415
  endloop
endfacet
facet normal -0.7071067811865476 -0.7071067811865476 0.0
  outer loop
    vertex 91.08321202443189 54.25519284816554 5.6800000000000415
    vertex 90.10205580332095 55.23634906927644 10.000000000000036
    vertex 90.98431565175686 54.354089220840535 5.342346663143569
  endloop
endfacet
facet normal -0.7071067811865476 -0.7071067811865476 0.0
  outer loop
    vertex 90.98431565175686 54.354089220840535 5.342346663143569
    vertex 90.10205580332095 55.23634906927644 10.000000000000036
    vertex 90.95058394074479 54.3878209318526 4.980000000000041
  endloop
endfacet
facet normal -0.7071067811865476 -0.7071067811865476 0.0
  outer loop
    vertex 93.77901106549099 51.55939380710641 2.000000000000043
    vertex 92.43550818123656 52.90289669136084 3.767564434701825
    vertex 90.10205580332095 55.23634906927644 2.00000000000004
  endloop
endfacet
facet normal -0.7071067811865476 -0.7071067811865476 0.0
  outer loop
    vertex 92.43550818123656 52.90289669136084 3.767564434701825
    vertex 93.77901106549099 51.55939380710641 2.000000000000043
    vertex 92.64053343440595 52.69787143819143 3.9900505063388714
  endloop
endfacet
facet normal -0.7071067811865476 -0.7071067811865476 0.0
  outer loop
    vertex 92.64053343440595 52.69787143819143 3.9900505063388714
    vertex 93.77901106549099 51.55939380710641 2.000000000000043
    vertex 92.79785484438007 52.54055002821731 4.280000000000038
  endloop
endfacet
facet normal -0.7071067811865476 -0.7071067811865476 0.0
  outer loop
    vertex 92.79785484438007 52.54055002821731 4.280000000000038
    vertex 93.77901106549099 51.55939380710641 2.000000000000043
    vertex 92.8967512170551 52.44165365554232 4.617653336856508
  endloop
endfacet
facet normal -0.7071067811865476 -0.7071067811865476 0.0
  outer loop
    vertex 92.8967512170551 52.44165365554232 4.617653336856508
    vertex 93.77901106549099 51.55939380710641 2.000000000000043
    vertex 92.93048292806715 52.40792194453025 4.980000000000039
  endloop
endfacet
facet normal -0.7071067811865476 -0.7071067811865476 0.0
  outer loop
    vertex 90.10205580332095 55.23634906927644 2.00000000000004
    vertex 92.43550818123656 52.90289669136084 3.767564434701825
    vertex 92.19675121705507 53.14165365554232 3.6277038431953437
  endloop
endfacet
facet normal -0.7071067811865476 -0.7071067811865476 0.0
  outer loop
    vertex 90.10205580332095 55.23634906927644 2.00000000000004
    vertex 92.19675121705507 53.14165365554232 3.6277038431953437
    vertex 91.94053343440598 53.39787143819143 3.5800000000000396
  endloop
endfacet
facet normal -0.7071067811865476 -0.7071067811865476 0.0
  outer loop
    vertex 90.10205580332095 55.23634906927644 2.00000000000004
    vertex 91.94053343440598 53.39787143819143 3.5800000000000396
    vertex 91.68431565175688 53.65408922084053 3.6277038431953437
  endloop
endfacet
facet normal -0.7071067811865476 -0.7071067811865476 0.0
  outer loop
    vertex 90.10205580332095 55.23634906927644 2.00000000000004
    vertex 91.68431565175688 53.65408922084053 3.6277038431953437
    vertex 91.44555868757539 53.892846185022016 3.767564434701825
  endloop
endfacet
facet normal -0.7071067811865476 -0.7071067811865476 0.0
  outer loop
    vertex 90.10205580332095 55.23634906927644 2.00000000000004
    vertex 91.44555868757539 53.892846185022016 3.767564434701825
    vertex 91.240533434406 54.09787143819144 3.9900505063388727
  endloop
endfacet
facet normal -0.7071067811865476 -0.7071067811865476 0.0
  outer loop
    vertex 90.10205580332095 55.23634906927644 2.00000000000004
    vertex 91.240533434406 54.09787143819144 3.9900505063388727
    vertex 91.08321202443189 54.25519284816554 4.280000000000039
  endloop
endfacet
facet normal -0.7071067811865476 -0.7071067811865476 0.0
  outer loop
    vertex 90.10205580332095 55.23634906927644 2.00000000000004
    vertex 91.08321202443189 54.25519284816554 4.280000000000039
    vertex 90.98431565175686 54.35408922084054 4.617653336856509
  endloop
endfacet
facet normal -0.7071067811865476 -0.7071067811865476 0.0
  outer loop
    vertex 90.10205580332095 55.23634906927644 2.00000000000004
    vertex 90.98431565175686 54.35408922084054 4.617653336856509
    vertex 90.95058394074479 54.3878209318526 4.980000000000041
  endloop
endfacet
facet normal -0.7071067811865476 -0.7071067811865476 0.0
  outer loop
    vertex 90.10205580332095 55.23634906927644 2.00000000000004
    vertex 90.95058394074479 54.3878209318526 4.980000000000041
    vertex 90.10205580332095 55.23634906927644 10.000000000000036
  endloop
endfacet
facet normal -0.7071067811865476 -0.7071067811865476 0.0
  outer loop
    vertex 90.10205580332095 55.23634906927644 2.00000000000004
    vertex 90.10205580332095 55.23634906927644 10.000000000000036
    vertex 89.81921309084633 55.519191781751076 9.600000000000039
  endloop
endfacet
facet normal -0.7071067811865476 -0.7071067811865476 0.0
  outer loop
    vertex 90.10205580332095 55.23634906927644 2.00000000000004
    vertex 89.81921309084633 55.519191781751076 9.600000000000039
    vertex 89.81921309084633 55.519191781751076 2.4000000000000408
  endloop
endfacet
facet normal 0.41273815228694666 -0.6878056187137114 -0.5971353686666081
  outer loop
    vertex 92.04764021559252 54.70497821937796 5.828528137423897
    vertex 91.08321202443189 54.25519284816554 5.6800000000000415
    vertex 91.91279329275756 54.83982514221292 5.58000000000004
  endloop
endfacet
facet normal 0.41273815228694666 -0.6878056187137114 -0.5971353686666081
  outer loop
    vertex 91.08321202443189 54.25519284816554 5.6800000000000415
    vertex 92.04764021559252 54.70497821937796 5.828528137423897
    vertex 91.240533434406 54.097871438191426 5.969949493661208
  endloop
endfacet
facet normal -0.04700043581307437 -0.22806703061368797 -0.9725103539708132
  outer loop
    vertex 92.42802497332185 54.3245934616486 6.139110991546923
    vertex 91.94053343440598 53.39787143819143 6.38000000000004
    vertex 91.68431565175688 53.65408922084053 6.332296156804736
  endloop
endfacet
facet normal -0.04700043581307437 -0.22806703061368797 -0.9725103539708132
  outer loop
    vertex 91.94053343440598 53.39787143819143 6.38000000000004
    vertex 92.42802497332185 54.3245934616486 6.139110991546923
    vertex 92.64764021559252 54.10497821937796 6.1800000000000415
  endloop
endfacet
facet normal 1.0 0.0 0.0
  outer loop
    vertex 113.30449446508489 62.29076465700486 2.0000000000000413
    vertex 113.30449446508489 59.334071425719685 7.960000000000058
    vertex 113.30449446508489 59.334071425719685 2.0000000000000413
  endloop
endfacet
facet normal 1.0 0.0 0.0
  outer loop
    vertex 113.30449446508489 59.334071425719685 7.960000000000058
    vertex 113.30449446508489 62.29076465700486 2.0000000000000413
    vertex 113.30449446508489 62.29076465700486 7.960000000000058
  endloop
endfacet
facet normal 0.7828720121897838 -0.6221827806440154 0.0
  outer loop
    vertex 113.30449446508489 59.334071425719685 2.0000000000000413
    vertex 112.9044944650849 58.830764657004906 7.960000000000058
    vertex 112.9044944650849 58.830764657004906 2.0000000000000413
  endloop
endfacet
facet normal 0.7828720121897838 -0.6221827806440154 0.0
  outer loop
    vertex 112.9044944650849 58.830764657004906 7.960000000000058
    vertex 113.30449446508489 59.334071425719685 2.0000000000000413
    vertex 113.30449446508489 59.334071425719685 7.960000000000058
  endloop
endfacet
facet normal 0.7071067811865476 0.7071067811865476 0.0
  outer loop
    vertex 112.9044944650849 62.69076465700486 2.0000000000000866
    vertex 113.30449446508489 62.29076465700486 7.960000000000058
    vertex 113.30449446508489 62.29076465700486 2.0000000000000413
  endloop
endfacet
facet normal 0.7071067811865476 0.7071067811865476 0.0
  outer loop
    vertex 113.30449446508489 62.29076465700486 7.960000000000058
    vertex 112.9044944650849 62.69076465700486 2.0000000000000866
    vertex 112.9044944650849 62.69076465700486 7.960000000000058
  endloop
endfacet
facet normal -8.089095506033842e-16 8.977628725577669e-15 -1.0
  outer loop
    vertex 112.9044944650849 62.69076465700486 2.0000000000000866
    vertex 98.30449446508487 58.830764657004906 2.0000000000000413
    vertex 98.30449446508487 62.69076465700486 2.0000000000000866
  endloop
endfacet
facet normal -8.089095506033842e-16 8.977628725577669e-15 -1.0
  outer loop
    vertex 98.30449446508487 58.830764657004906 2.0000000000000413
    vertex 112.9044944650849 62.69076465700486 2.0000000000000866
    vertex 112.9044944650849 58.830764657004906 2.0000000000000413
  endloop
endfacet
facet normal -8.089095506033842e-16 8.977628725577669e-15 -1.0
  outer loop
    vertex 112.9044944650849 58.830764657004906 2.0000000000000413
    vertex 112.9044944650849 62.69076465700486 2.0000000000000866
    vertex 113.30449446508489 62.29076465700486 2.0000000000000413
  endloop
endfacet
facet normal -8.089095506033842e-16 8.977628725577669e-15 -1.0
  outer loop
    vertex 112.9044944650849 58.830764657004906 2.0000000000000413
    vertex 113.30449446508489 62.29076465700486 2.0000000000000413
    vertex 113.30449446508489 59.334071425719685 2.0000000000000413
  endloop
endfacet
facet normal 0.0 1.0 0.0
  outer loop
    vertex 98.30449446508487 62.69076465700486 2.0000000000000866
    vertex 102.99391161096187 62.690764657004905 3.8208890084532126
    vertex 112.9044944650849 62.69076465700486 2.0000000000000866
  endloop
endfacet
facet normal 0.0 1.0 0.0
  outer loop
    vertex 102.99391161096187 62.690764657004905 3.8208890084532126
    vertex 98.30449446508487 62.69076465700486 2.0000000000000866
    vertex 102.70449446508486 62.690764657004905 3.940769515458747
  endloop
endfacet
facet normal 0.0 1.0 0.0
  outer loop
    vertex 102.70449446508486 62.690764657004905 3.940769515458747
    vertex 98.30449446508487 62.69076465700486 2.0000000000000866
    vertex 102.45596632766102 62.690764657004905 4.131471862576208
  endloop
endfacet
facet normal 0.0 1.0 0.0
  outer loop
    vertex 102.45596632766102 62.690764657004905 4.131471862576208
    vertex 98.30449446508487 62.69076465700486 2.0000000000000866
    vertex 98.30449446508487 62.69076465700486 7.960000000000058
  endloop
endfacet
facet normal 0.0 1.0 0.0
  outer loop
    vertex 112.9044944650849 62.69076465700486 2.0000000000000866
    vertex 102.99391161096187 62.690764657004905 3.8208890084532126
    vertex 103.30449446508491 62.690764657004905 3.780000000000097
  endloop
endfacet
facet normal 0.0 1.0 0.0
  outer loop
    vertex 102.45596632766102 62.690764657004905 4.131471862576208
    vertex 98.30449446508487 62.69076465700486 7.960000000000058
    vertex 102.26526398054357 62.690764657004905 4.380000000000096
  endloop
endfacet
facet normal 0.0 1.0 0.0
  outer loop
    vertex 102.26526398054357 62.690764657004905 4.380000000000096
    vertex 98.30449446508487 62.69076465700486 7.960000000000058
    vertex 102.14538347353803 62.690764657004905 4.669417145877054
  endloop
endfacet
facet normal 0.0 1.0 0.0
  outer loop
    vertex 102.14538347353803 62.690764657004905 4.669417145877054
    vertex 98.30449446508487 62.69076465700486 7.960000000000058
    vertex 102.10449446508487 62.690764657004905 4.980000000000095
  endloop
endfacet
facet normal 0.0 1.0 0.0
  outer loop
    vertex 102.10449446508487 62.690764657004905 4.980000000000095
    vertex 98.30449446508487 62.69076465700486 7.960000000000058
    vertex 102.14538347353803 62.690764657004905 5.29058285412309
  endloop
endfacet
facet normal 0.0 1.0 0.0
  outer loop
    vertex 102.14538347353803 62.690764657004905 5.29058285412309
    vertex 98.30449446508487 62.69076465700486 7.960000000000058
    vertex 102.26526398054357 62.690764657004905 5.580000000000093
  endloop
endfacet
facet normal 0.0 1.0 0.0
  outer loop
    vertex 102.26526398054357 62.690764657004905 5.580000000000093
    vertex 98.30449446508487 62.69076465700486 7.960000000000058
    vertex 102.45596632766102 62.690764657004905 5.828528137423936
  endloop
endfacet
facet normal 0.0 1.0 0.0
  outer loop
    vertex 102.45596632766102 62.690764657004905 5.828528137423936
    vertex 98.30449446508487 62.69076465700486 7.960000000000058
    vertex 102.70449446508486 62.690764657004905 6.019230484541397
  endloop
endfacet
facet normal 0.0 1.0 0.0
  outer loop
    vertex 102.70449446508486 62.690764657004905 6.019230484541397
    vertex 98.30449446508487 62.69076465700486 7.960000000000058
    vertex 102.99391161096187 62.690764657004905 6.139110991546977
  endloop
endfacet
facet normal 0.0 1.0 0.0
  outer loop
    vertex 102.99391161096187 62.690764657004905 6.139110991546977
    vertex 98.30449446508487 62.69076465700486 7.960000000000058
    vertex 103.30449446508491 62.690764657004905 6.180000000000092
  endloop
endfacet
facet normal 0.0 1.0 0.0
  outer loop
    vertex 103.30449446508491 62.690764657004905 6.180000000000092
    vertex 98.30449446508487 62.69076465700486 7.960000000000058
    vertex 110.80449446508491 62.690764657004905 6.180000000000092
  endloop
endfacet
facet normal 0.0 1.0 0.0
  outer loop
    vertex 112.9044944650849 62.69076465700486 2.0000000000000866
    vertex 111.9636054566318 62.690764657004905 4.669417145877054
    vertex 112.9044944650849 62.69076465700486 7.960000000000058
  endloop
endfacet
facet normal 0.0 1.0 0.0
  outer loop
    vertex 111.9636054566318 62.690764657004905 4.669417145877054
    vertex 112.9044944650849 62.69076465700486 2.0000000000000866
    vertex 111.84372494962622 62.690764657004905 4.380000000000096
  endloop
endfacet
facet normal 0.0 1.0 0.0
  outer loop
    vertex 111.84372494962622 62.690764657004905 4.380000000000096
    vertex 112.9044944650849 62.69076465700486 2.0000000000000866
    vertex 111.65302260250876 62.690764657004905 4.131471862576208
  endloop
endfacet
facet normal 0.0 1.0 0.0
  outer loop
    vertex 111.65302260250876 62.690764657004905 4.131471862576208
    vertex 112.9044944650849 62.69076465700486 2.0000000000000866
    vertex 111.40449446508492 62.690764657004905 3.940769515458747
  endloop
endfacet
facet normal 0.0 1.0 0.0
  outer loop
    vertex 111.40449446508492 62.690764657004905 3.940769515458747
    vertex 112.9044944650849 62.69076465700486 2.0000000000000866
    vertex 111.11507731920791 62.690764657004905 3.8208890084532126
  endloop
endfacet
facet normal 0.0 1.0 0.0
  outer loop
    vertex 111.11507731920791 62.690764657004905 3.8208890084532126
    vertex 112.9044944650849 62.69076465700486 2.0000000000000866
    vertex 110.80449446508491 62.690764657004905 3.780000000000097
  endloop
endfacet
facet normal 0.0 1.0 0.0
  outer loop
    vertex 110.80449446508491 62.690764657004905 3.780000000000097
    vertex 112.9044944650849 62.69076465700486 2.0000000000000866
    vertex 103.30449446508491 62.690764657004905 3.780000000000097
  endloop
endfacet
facet normal 0.0 1.0 0.0
  outer loop
    vertex 112.9044944650849 62.69076465700486 7.960000000000058
    vertex 111.9636054566318 62.690764657004905 4.669417145877054
    vertex 112.00449446508492 62.690764657004905 4.980000000000095
  endloop
endfacet
facet normal 0.0 1.0 0.0
  outer loop
    vertex 112.9044944650849 62.69076465700486 7.960000000000058
    vertex 112.00449446508492 62.690764657004905 4.980000000000095
    vertex 111.9636054566318 62.690764657004905 5.29058285412309
  endloop
endfacet
facet normal 0.0 1.0 0.0
  outer loop
    vertex 112.9044944650849 62.69076465700486 7.960000000000058
    vertex 111.9636054566318 62.690764657004905 5.29058285412309
    vertex 111.84372494962622 62.690764657004905 5.580000000000093
  endloop
endfacet
facet normal 0.0 1.0 0.0
  outer loop
    vertex 112.9044944650849 62.69076465700486 7.960000000000058
    vertex 111.84372494962622 62.690764657004905 5.580000000000093
    vertex 111.65302260250876 62.690764657004905 5.828528137423936
  endloop
endfacet
facet normal 0.0 1.0 0.0
  outer loop
    vertex 112.9044944650849 62.69076465700486 7.960000000000058
    vertex 111.65302260250876 62.690764657004905 5.828528137423936
    vertex 111.40449446508492 62.690764657004905 6.019230484541397
  endloop
endfacet
facet normal 0.0 1.0 0.0
  outer loop
    vertex 112.9044944650849 62.69076465700486 7.960000000000058
    vertex 111.40449446508492 62.690764657004905 6.019230484541397
    vertex 111.11507731920791 62.690764657004905 6.139110991546977
  endloop
endfacet
facet normal 0.0 1.0 0.0
  outer loop
    vertex 112.9044944650849 62.69076465700486 7.960000000000058
    vertex 111.11507731920791 62.690764657004905 6.139110991546977
    vertex 110.80449446508491 62.690764657004905 6.180000000000092
  endloop
endfacet
facet normal 0.0 1.0 0.0
  outer loop
    vertex 112.9044944650849 62.69076465700486 7.960000000000058
    vertex 110.80449446508491 62.690764657004905 6.180000000000092
    vertex 98.30449446508487 62.69076465700486 7.960000000000058
  endloop
endfacet
facet normal 0.0 -1.0 0.0
  outer loop
    vertex 112.9044944650849 58.830764657004906 2.0000000000000413
    vertex 111.11507731920791 58.830764657004906 3.8208890084531677
    vertex 98.30449446508487 58.830764657004906 2.0000000000000413
  endloop
endfacet
facet normal 0.0 -1.0 0.0
  outer loop
    vertex 111.11507731920791 58.830764657004906 3.8208890084531677
    vertex 112.9044944650849 58.830764657004906 2.0000000000000413
    vertex 111.40449446508492 58.830764657004906 3.9407695154587024
  endloop
endfacet
facet normal 0.0 -1.0 0.0
  outer loop
    vertex 111.40449446508492 58.830764657004906 3.9407695154587024
    vertex 112.9044944650849 58.830764657004906 2.0000000000000413
    vertex 111.65302260250876 58.830764657004906 4.131471862576208
  endloop
endfacet
facet normal 0.0 -1.0 0.0
  outer loop
    vertex 111.65302260250876 58.830764657004906 4.131471862576208
    vertex 112.9044944650849 58.830764657004906 2.0000000000000413
    vertex 111.84372494962622 58.830764657004906 4.3800000000000505
  endloop
endfacet
facet normal 0.0 -1.0 0.0
  outer loop
    vertex 111.84372494962622 58.830764657004906 4.3800000000000505
    vertex 112.9044944650849 58.830764657004906 2.0000000000000413
    vertex 111.9636054566318 58.830764657004906 4.669417145877008
  endloop
endfacet
facet normal 0.0 -1.0 0.0
  outer loop
    vertex 111.9636054566318 58.830764657004906 4.669417145877008
    vertex 112.9044944650849 58.830764657004906 2.0000000000000413
    vertex 112.9044944650849 58.830764657004906 7.960000000000058
  endloop
endfacet
facet normal 0.0 -1.0 0.0
  outer loop
    vertex 98.30449446508487 58.830764657004906 2.0000000000000413
    vertex 111.11507731920791 58.830764657004906 3.8208890084531677
    vertex 110.80449446508491 58.830764657004906 3.7800000000000518
  endloop
endfacet
facet normal 0.0 -1.0 0.0
  outer loop
    vertex 111.9636054566318 58.830764657004906 4.669417145877008
    vertex 112.9044944650849 58.830764657004906 7.960000000000058
    vertex 112.00449446508492 58.830764657004906 4.980000000000049
  endloop
endfacet
facet normal 0.0 -1.0 0.0
  outer loop
    vertex 112.00449446508492 58.830764657004906 4.980000000000049
    vertex 112.9044944650849 58.830764657004906 7.960000000000058
    vertex 111.9636054566318 58.830764657004906 5.29058285412309
  endloop
endfacet
facet normal 0.0 -1.0 0.0
  outer loop
    vertex 111.9636054566318 58.830764657004906 5.29058285412309
    vertex 112.9044944650849 58.830764657004906 7.960000000000058
    vertex 111.84372494962622 58.830764657004906 5.580000000000048
  endloop
endfacet
facet normal 0.0 -1.0 0.0
  outer loop
    vertex 111.84372494962622 58.830764657004906 5.580000000000048
    vertex 112.9044944650849 58.830764657004906 7.960000000000058
    vertex 111.65302260250876 58.830764657004906 5.82852813742389
  endloop
endfacet
facet normal 0.0 -1.0 0.0
  outer loop
    vertex 111.65302260250876 58.830764657004906 5.82852813742389
    vertex 112.9044944650849 58.830764657004906 7.960000000000058
    vertex 111.40449446508492 58.830764657004906 6.019230484541351
  endloop
endfacet
facet normal 0.0 -1.0 0.0
  outer loop
    vertex 111.40449446508492 58.830764657004906 6.019230484541351
    vertex 112.9044944650849 58.830764657004906 7.960000000000058
    vertex 111.11507731920791 58.830764657004906 6.139110991546931
  endloop
endfacet
facet normal 0.0 -1.0 0.0
  outer loop
    vertex 111.11507731920791 58.830764657004906 6.139110991546931
    vertex 112.9044944650849 58.830764657004906 7.960000000000058
    vertex 110.80449446508491 58.830764657004906 6.180000000000048
  endloop
endfacet
facet normal 0.0 -1.0 0.0
  outer loop
    vertex 110.80449446508491 58.830764657004906 6.180000000000048
    vertex 112.9044944650849 58.830764657004906 7.960000000000058
    vertex 103.30449446508491 58.830764657004906 6.180000000000048
  endloop
endfacet
facet normal 0.0 -1.0 0.0
  outer loop
    vertex 98.30449446508487 58.830764657004906 2.0000000000000413
    vertex 102.45596632766102 58.830764657004906 4.131471862576208
    vertex 98.30449446508487 58.830764657004906 7.960000000000058
  endloop
endfacet
facet normal 0.0 -1.0 0.0
  outer loop
    vertex 102.45596632766102 58.830764657004906 4.131471862576208
    vertex 98.30449446508487 58.830764657004906 2.0000000000000413
    vertex 102.70449446508486 58.830764657004906 3.9407695154587024
  endloop
endfacet
facet normal 0.0 -1.0 0.0
  outer loop
    vertex 102.70449446508486 58.830764657004906 3.9407695154587024
    vertex 98.30449446508487 58.830764657004906 2.0000000000000413
    vertex 102.99391161096187 58.830764657004906 3.8208890084531677
  endloop
endfacet
facet normal 0.0 -1.0 0.0
  outer loop
    vertex 102.99391161096187 58.830764657004906 3.8208890084531677
    vertex 98.30449446508487 58.830764657004906 2.0000000000000413
    vertex 103.30449446508491 58.830764657004906 3.7800000000000518
  endloop
endfacet
facet normal 0.0 -1.0 0.0
  outer loop
    vertex 103.30449446508491 58.830764657004906 3.7800000000000518
    vertex 98.30449446508487 58.830764657004906 2.0000000000000413
    vertex 110.80449446508491 58.830764657004906 3.7800000000000518
  endloop
endfacet
facet normal 0.0 -1.0 0.0
  outer loop
    vertex 98.30449446508487 58.830764657004906 7.960000000000058
    vertex 102.45596632766102 58.830764657004906 4.131471862576208
    vertex 102.26526398054357 58.830764657004906 4.3800000000000505
  endloop
endfacet
facet normal 0.0 -1.0 0.0
  outer loop
    vertex 98.30449446508487 58.830764657004906 7.960000000000058
    vertex 102.26526398054357 58.830764657004906 4.3800000000000505
    vertex 102.14538347353803 58.830764657004906 4.669417145877008
  endloop
endfacet
facet normal 0.0 -1.0 0.0
  outer loop
    vertex 98.30449446508487 58.830764657004906 7.960000000000058
    vertex 102.14538347353803 58.830764657004906 4.669417145877008
    vertex 102.10449446508487 58.830764657004906 4.980000000000049
  endloop
endfacet
facet normal 0.0 -1.0 0.0
  outer loop
    vertex 98.30449446508487 58.830764657004906 7.960000000000058
    vertex 102.10449446508487 58.830764657004906 4.980000000000049
    vertex 102.14538347353803 58.830764657004906 5.29058285412309
  endloop
endfacet
facet normal 0.0 -1.0 0.0
  outer loop
    vertex 98.30449446508487 58.830764657004906 7.960000000000058
    vertex 102.14538347353803 58.830764657004906 5.29058285412309
    vertex 102.26526398054357 58.830764657004906 5.580000000000048
  endloop
endfacet
facet normal 0.0 -1.0 0.0
  outer loop
    vertex 98.30449446508487 58.830764657004906 7.960000000000058
    vertex 102.26526398054357 58.830764657004906 5.580000000000048
    vertex 102.45596632766102 58.830764657004906 5.82852813742389
  endloop
endfacet
facet normal 0.0 -1.0 0.0
  outer loop
    vertex 98.30449446508487 58.830764657004906 7.960000000000058
    vertex 102.45596632766102 58.830764657004906 5.82852813742389
    vertex 102.70449446508486 58.830764657004906 6.019230484541351
  endloop
endfacet
facet normal 0.0 -1.0 0.0
  outer loop
    vertex 98.30449446508487 58.830764657004906 7.960000000000058
    vertex 102.70449446508486 58.830764657004906 6.019230484541351
    vertex 102.99391161096187 58.830764657004906 6.139110991546931
  endloop
endfacet
facet normal 0.0 -1.0 0.0
  outer loop
    vertex 98.30449446508487 58.830764657004906 7.960000000000058
    vertex 102.99391161096187 58.830764657004906 6.139110991546931
    vertex 103.30449446508491 58.830764657004906 6.180000000000048
  endloop
endfacet
facet normal 0.0 -1.0 0.0
  outer loop
    vertex 98.30449446508487 58.830764657004906 7.960000000000058
    vertex 103.30449446508491 58.830764657004906 6.180000000000048
    vertex 112.9044944650849 58.830764657004906 7.960000000000058
  endloop
endfacet
facet normal 0.0 0.0 1.0
  outer loop
    vertex 112.9044944650849 58.830764657004906 7.960000000000058
    vertex 98.30449446508487 62.69076465700486 7.960000000000058
    vertex 98.30449446508487 58.830764657004906 7.960000000000058
  endloop
endfacet
facet normal 0.0 0.0 1.0
  outer loop
    vertex 98.30449446508487 62.69076465700486 7.960000000000058
    vertex 112.9044944650849 58.830764657004906 7.960000000000058
    vertex 112.9044944650849 62.69076465700486 7.960000000000058
  endloop
endfacet
facet normal 0.0 0.0 1.0
  outer loop
    vertex 112.9044944650849 62.69076465700486 7.960000000000058
    vertex 112.9044944650849 58.830764657004906 7.960000000000058
    vertex 113.30449446508489 59.334071425719685 7.960000000000058
  endloop
endfacet
facet normal 0.0 0.0 1.0
  outer loop
    vertex 112.9044944650849 62.69076465700486 7.960000000000058
    vertex 113.30449446508489 59.334071425719685 7.960000000000058
    vertex 113.30449446508489 62.29076465700486 7.960000000000058
  endloop
endfacet
facet normal -1.0 0.0 0.0
  outer loop
    vertex 98.30449446508487 62.69076465700486 7.960000000000058
    vertex 98.30449446508487 58.830764657004906 2.0000000000000413
    vertex 98.30449446508487 58.830764657004906 7.960000000000058
  endloop
endfacet
facet normal -1.0 0.0 0.0
  outer loop
    vertex 98.30449446508487 58.830764657004906 2.0000000000000413
    vertex 98.30449446508487 62.69076465700486 7.960000000000058
    vertex 98.30449446508487 62.69076465700486 2.0000000000000866
  endloop
endfacet
facet normal 0.0 -1.1688980238540517e-14 1.0
  outer loop
    vertex 110.80449446508491 58.830764657004906 3.7800000000000518
    vertex 103.30449446508491 62.690764657004905 3.780000000000097
    vertex 103.30449446508491 58.830764657004906 3.7800000000000518
  endloop
endfacet
facet normal 0.0 -1.1688980238540517e-14 1.0
  outer loop
    vertex 103.30449446508491 62.690764657004905 3.780000000000097
    vertex 110.80449446508491 58.830764657004906 3.7800000000000518
    vertex 110.80449446508491 62.690764657004905 3.780000000000097
  endloop
endfacet
facet normal -0.13052619222005676 -1.1588504781298144e-14 0.9914448613738098
  outer loop
    vertex 111.11507731920791 58.830764657004906 3.8208890084531677
    vertex 110.80449446508491 62.690764657004905 3.780000000000097
    vertex 110.80449446508491 58.830764657004906 3.7800000000000518
  endloop
endfacet
facet normal -0.13052619222005676 -1.1588504781298144e-14 0.9914448613738098
  outer loop
    vertex 110.80449446508491 62.690764657004905 3.780000000000097
    vertex 111.11507731920791 58.830764657004906 3.8208890084531677
    vertex 111.11507731920791 62.690764657004905 3.8208890084532126
  endloop
endfacet
facet normal -0.38268343236500113 -1.0797683008907545e-14 0.9238795325113235
  outer loop
    vertex 111.40449446508492 58.830764657004906 3.9407695154587024
    vertex 111.11507731920791 62.690764657004905 3.8208890084532126
    vertex 111.11507731920791 58.830764657004906 3.8208890084531677
  endloop
endfacet
facet normal -0.38268343236500113 -1.0797683008907545e-14 0.9238795325113235
  outer loop
    vertex 111.11507731920791 62.690764657004905 3.8208890084532126
    vertex 111.40449446508492 58.830764657004906 3.9407695154587024
    vertex 111.40449446508492 62.690764657004905 3.940769515458747
  endloop
endfacet
facet normal -0.6087614290087722 -4.637021431200961e-15 0.7933533402911955
  outer loop
    vertex 111.65302260250876 58.830764657004906 4.131471862576208
    vertex 111.40449446508492 62.690764657004905 3.940769515458747
    vertex 111.40449446508492 58.830764657004906 3.9407695154587024
  endloop
endfacet
facet normal -0.6087614290087722 -4.637021431200961e-15 0.7933533402911955
  outer loop
    vertex 111.40449446508492 62.690764657004905 3.940769515458747
    vertex 111.65302260250876 58.830764657004906 4.131471862576208
    vertex 111.65302260250876 62.690764657004905 4.131471862576208
  endloop
endfacet
facet normal -0.793353340291257 -3.5581116879973325e-15 0.6087614290086922
  outer loop
    vertex 111.84372494962622 62.690764657004905 4.380000000000096
    vertex 111.65302260250876 58.830764657004906 4.131471862576208
    vertex 111.84372494962622 58.830764657004906 4.3800000000000505
  endloop
endfacet
facet normal -0.793353340291257 -3.5581116879973325e-15 0.6087614290086922
  outer loop
    vertex 111.65302260250876 58.830764657004906 4.131471862576208
    vertex 111.84372494962622 62.690764657004905 4.380000000000096
    vertex 111.65302260250876 62.690764657004905 4.131471862576208
  endloop
endfacet
facet normal -0.9238795325112514 -4.473445026629713e-15 0.38268343236517494
  outer loop
    vertex 111.9636054566318 62.690764657004905 4.669417145877054
    vertex 111.84372494962622 58.830764657004906 4.3800000000000505
    vertex 111.9636054566318 58.830764657004906 4.669417145877008
  endloop
endfacet
facet normal -0.9238795325112514 -4.473445026629713e-15 0.38268343236517494
  outer loop
    vertex 111.84372494962622 58.830764657004906 4.3800000000000505
    vertex 111.9636054566318 62.690764657004905 4.669417145877054
    vertex 111.84372494962622 62.690764657004905 4.380000000000096
  endloop
endfacet
facet normal -0.9914448613738123 -1.5251960167999527e-15 0.13052619222003808
  outer loop
    vertex 112.00449446508492 62.690764657004905 4.980000000000095
    vertex 111.9636054566318 58.830764657004906 4.669417145877008
    vertex 112.00449446508492 58.830764657004906 4.980000000000049
  endloop
endfacet
facet normal -0.9914448613738123 -1.5251960167999527e-15 0.13052619222003808
  outer loop
    vertex 111.9636054566318 58.830764657004906 4.669417145877008
    vertex 112.00449446508492 62.690764657004905 4.980000000000095
    vertex 111.9636054566318 62.690764657004905 4.669417145877054
  endloop
endfacet
facet normal -0.9914448613738109 7.629043957075438e-16 -0.1305261922200474
  outer loop
    vertex 111.9636054566318 62.690764657004905 5.29058285412309
    vertex 112.00449446508492 58.830764657004906 4.980000000000049
    vertex 111.9636054566318 58.830764657004906 5.29058285412309
  endloop
endfacet
facet normal -0.9914448613738109 7.629043957075438e-16 -0.1305261922200474
  outer loop
    vertex 112.00449446508492 58.830764657004906 4.980000000000049
    vertex 111.9636054566318 62.690764657004905 5.29058285412309
    vertex 112.00449446508492 62.690764657004905 4.980000000000095
  endloop
endfacet
facet normal -0.9238795325112621 2.2367225133147077e-15 -0.3826834323651495
  outer loop
    vertex 111.84372494962622 62.690764657004905 5.580000000000093
    vertex 111.9636054566318 58.830764657004906 5.29058285412309
    vertex 111.84372494962622 58.830764657004906 5.580000000000048
  endloop
endfacet
facet normal -0.9238795325112621 2.2367225133147077e-15 -0.3826834323651495
  outer loop
    vertex 111.9636054566318 58.830764657004906 5.29058285412309
    vertex 111.84372494962622 62.690764657004905 5.580000000000093
    vertex 111.9636054566318 62.690764657004905 5.29058285412309
  endloop
endfacet
facet normal -0.7933533402912304 7.113365454960535e-15 -0.608761429008727
  outer loop
    vertex 111.65302260250876 62.690764657004905 5.828528137423936
    vertex 111.84372494962622 58.830764657004906 5.580000000000048
    vertex 111.65302260250876 58.830764657004906 5.82852813742389
  endloop
endfacet
facet normal -0.7933533402912304 7.113365454960535e-15 -0.608761429008727
  outer loop
    vertex 111.84372494962622 58.830764657004906 5.580000000000048
    vertex 111.65302260250876 62.690764657004905 5.828528137423936
    vertex 111.84372494962622 62.690764657004905 5.580000000000093
  endloop
endfacet
facet normal -0.608761429008727 9.274042862402328e-15 -0.7933533402912304
  outer loop
    vertex 111.65302260250876 62.690764657004905 5.828528137423936
    vertex 111.40449446508492 58.830764657004906 6.019230484541351
    vertex 111.40449446508492 62.690764657004905 6.019230484541397
  endloop
endfacet
facet normal -0.608761429008727 9.274042862402328e-15 -0.7933533402912304
  outer loop
    vertex 111.40449446508492 58.830764657004906 6.019230484541351
    vertex 111.65302260250876 62.690764657004905 5.828528137423936
    vertex 111.65302260250876 58.830764657004906 5.82852813742389
  endloop
endfacet
facet normal -0.38268343236512403 1.0799851653817353e-14 -0.9238795325112725
  outer loop
    vertex 111.40449446508492 62.690764657004905 6.019230484541397
    vertex 111.11507731920791 58.830764657004906 6.139110991546931
    vertex 111.11507731920791 62.690764657004905 6.139110991546977
  endloop
endfacet
facet normal -0.38268343236512403 1.0799851653817353e-14 -0.9238795325112725
  outer loop
    vertex 111.11507731920791 58.830764657004906 6.139110991546931
    vertex 111.40449446508492 62.690764657004905 6.019230484541397
    vertex 111.40449446508492 58.830764657004906 6.019230484541351
  endloop
endfacet
facet normal -0.13052619222005676 1.1588504781298144e-14 -0.9914448613738098
  outer loop
    vertex 111.11507731920791 62.690764657004905 6.139110991546977
    vertex 110.80449446508491 58.830764657004906 6.180000000000048
    vertex 110.80449446508491 62.690764657004905 6.180000000000092
  endloop
endfacet
facet normal -0.13052619222005676 1.1588504781298144e-14 -0.9914448613738098
  outer loop
    vertex 110.80449446508491 58.830764657004906 6.180000000000048
    vertex 111.11507731920791 62.690764657004905 6.139110991546977
    vertex 111.11507731920791 58.830764657004906 6.139110991546931
  endloop
endfacet
facet normal 0.0 1.1688980238540517e-14 -1.0
  outer loop
    vertex 110.80449446508491 62.690764657004905 6.180000000000092
    vertex 103.30449446508491 58.830764657004906 6.180000000000048
    vertex 103.30449446508491 62.690764657004905 6.180000000000092
  endloop
endfacet
facet normal 0.0 1.1688980238540517e-14 -1.0
  outer loop
    vertex 103.30449446508491 58.830764657004906 6.180000000000048
    vertex 110.80449446508491 62.690764657004905 6.180000000000092
    vertex 110.80449446508491 58.830764657004906 6.180000000000048
  endloop
endfacet
facet normal 0.13052619222003808 1.1588504781298172e-14 -0.9914448613738123
  outer loop
    vertex 103.30449446508491 62.690764657004905 6.180000000000092
    vertex 102.99391161096187 58.830764657004906 6.139110991546931
    vertex 102.99391161096187 62.690764657004905 6.139110991546977
  endloop
endfacet
facet normal 0.13052619222003808 1.1588504781298172e-14 -0.9914448613738123
  outer loop
    vertex 102.99391161096187 58.830764657004906 6.139110991546931
    vertex 103.30449446508491 62.690764657004905 6.180000000000092
    vertex 103.30449446508491 58.830764657004906 6.180000000000048
  endloop
endfacet
facet normal 0.38268343236512403 1.0799851653817353e-14 -0.9238795325112725
  outer loop
    vertex 102.99391161096187 62.690764657004905 6.139110991546977
    vertex 102.70449446508486 58.830764657004906 6.019230484541351
    vertex 102.70449446508486 62.690764657004905 6.019230484541397
  endloop
endfacet
facet normal 0.38268343236512403 1.0799851653817353e-14 -0.9238795325112725
  outer loop
    vertex 102.70449446508486 58.830764657004906 6.019230484541351
    vertex 102.99391161096187 62.690764657004905 6.139110991546977
    vertex 102.99391161096187 58.830764657004906 6.139110991546931
  endloop
endfacet
facet normal 0.608761429008727 9.274042862402328e-15 -0.7933533402912304
  outer loop
    vertex 102.70449446508486 62.690764657004905 6.019230484541397
    vertex 102.45596632766102 58.830764657004906 5.82852813742389
    vertex 102.45596632766102 62.690764657004905 5.828528137423936
  endloop
endfacet
facet normal 0.608761429008727 9.274042862402328e-15 -0.7933533402912304
  outer loop
    vertex 102.45596632766102 58.830764657004906 5.82852813742389
    vertex 102.70449446508486 62.690764657004905 6.019230484541397
    vertex 102.70449446508486 58.830764657004906 6.019230484541351
  endloop
endfacet
facet normal 0.7933533402912304 7.113365454960535e-15 -0.608761429008727
  outer loop
    vertex 102.26526398054357 62.690764657004905 5.580000000000093
    vertex 102.45596632766102 58.830764657004906 5.82852813742389
    vertex 102.26526398054357 58.830764657004906 5.580000000000048
  endloop
endfacet
facet normal 0.7933533402912304 7.113365454960535e-15 -0.608761429008727
  outer loop
    vertex 102.45596632766102 58.830764657004906 5.82852813742389
    vertex 102.26526398054357 62.690764657004905 5.580000000000093
    vertex 102.45596632766102 62.690764657004905 5.828528137423936
  endloop
endfacet
facet normal 0.923879532511313 2.236722513313989e-15 -0.38268343236502655
  outer loop
    vertex 102.14538347353803 62.690764657004905 5.29058285412309
    vertex 102.26526398054357 58.830764657004906 5.580000000000048
    vertex 102.14538347353803 58.830764657004906 5.29058285412309
  endloop
endfacet
facet normal 0.923879532511313 2.236722513313989e-15 -0.38268343236502655
  outer loop
    vertex 102.26526398054357 58.830764657004906 5.580000000000048
    vertex 102.14538347353803 62.690764657004905 5.29058285412309
    vertex 102.26526398054357 62.690764657004905 5.580000000000093
  endloop
endfacet
facet normal 0.9914448613737924 7.629043957083712e-16 -0.13052619222018896
  outer loop
    vertex 102.10449446508487 62.690764657004905 4.980000000000095
    vertex 102.14538347353803 58.830764657004906 5.29058285412309
    vertex 102.10449446508487 58.830764657004906 4.980000000000049
  endloop
endfacet
facet normal 0.9914448613737924 7.629043957083712e-16 -0.13052619222018896
  outer loop
    vertex 102.14538347353803 58.830764657004906 5.29058285412309
    vertex 102.10449446508487 62.690764657004905 4.980000000000095
    vertex 102.14538347353803 62.690764657004905 5.29058285412309
  endloop
endfacet
facet normal 0.9914448613737937 -1.5251960168016068e-15 0.13052619222017964
  outer loop
    vertex 102.14538347353803 62.690764657004905 4.669417145877054
    vertex 102.10449446508487 58.830764657004906 4.980000000000049
    vertex 102.14538347353803 58.830764657004906 4.669417145877008
  endloop
endfacet
facet normal 0.9914448613737937 -1.5251960168016068e-15 0.13052619222017964
  outer loop
    vertex 102.10449446508487 58.830764657004906 4.980000000000049
    vertex 102.14538347353803 62.690764657004905 4.669417145877054
    vertex 102.10449446508487 62.690764657004905 4.980000000000095
  endloop
endfacet
facet normal 0.9238795325113024 -4.473445026628276e-15 0.382683432365052
  outer loop
    vertex 102.26526398054357 62.690764657004905 4.380000000000096
    vertex 102.14538347353803 58.830764657004906 4.669417145877008
    vertex 102.26526398054357 58.830764657004906 4.3800000000000505
  endloop
endfacet
facet normal 0.9238795325113024 -4.473445026628276e-15 0.382683432365052
  outer loop
    vertex 102.14538347353803 58.830764657004906 4.669417145877008
    vertex 102.26526398054357 62.690764657004905 4.380000000000096
    vertex 102.14538347353803 62.690764657004905 4.669417145877054
  endloop
endfacet
facet normal 0.793353340291257 -3.5581116879973325e-15 0.6087614290086922
  outer loop
    vertex 102.45596632766102 62.690764657004905 4.131471862576208
    vertex 102.26526398054357 58.830764657004906 4.3800000000000505
    vertex 102.45596632766102 58.830764657004906 4.131471862576208
  endloop
endfacet
facet normal 0.793353340291257 -3.5581116879973325e-15 0.6087614290086922
  outer loop
    vertex 102.26526398054357 58.830764657004906 4.3800000000000505
    vertex 102.45596632766102 62.690764657004905 4.131471862576208
    vertex 102.26526398054357 62.690764657004905 4.380000000000096
  endloop
endfacet
facet normal 0.6087614290087722 -4.637021431200961e-15 0.7933533402911955
  outer loop
    vertex 102.70449446508486 58.830764657004906 3.9407695154587024
    vertex 102.45596632766102 62.690764657004905 4.131471862576208
    vertex 102.45596632766102 58.830764657004906 4.131471862576208
  endloop
endfacet
facet normal 0.6087614290087722 -4.637021431200961e-15 0.7933533402911955
  outer loop
    vertex 102.45596632766102 62.690764657004905 4.131471862576208
    vertex 102.70449446508486 58.830764657004906 3.9407695154587024
    vertex 102.70449446508486 62.690764657004905 3.940769515458747
  endloop
endfacet
facet normal 0.38268343236500113 -1.0797683008907545e-14 0.9238795325113235
  outer loop
    vertex 102.99391161096187 58.830764657004906 3.8208890084531677
    vertex 102.70449446508486 62.690764657004905 3.940769515458747
    vertex 102.70449446508486 58.830764657004906 3.9407695154587024
  endloop
endfacet
facet normal 0.38268343236500113 -1.0797683008907545e-14 0.9238795325113235
  outer loop
    vertex 102.70449446508486 62.690764657004905 3.940769515458747
    vertex 102.99391161096187 58.830764657004906 3.8208890084531677
    vertex 102.99391161096187 62.690764657004905 3.8208890084532126
  endloop
endfacet
facet normal 0.13052619222003808 -1.1588504781298172e-14 0.9914448613738123
  outer loop
    vertex 103.30449446508491 58.830764657004906 3.7800000000000518
    vertex 102.99391161096187 62.690764657004905 3.8208890084532126
    vertex 102.99391161096187 58.830764657004906 3.8208890084531677
  endloop
endfacet
facet normal 0.13052619222003808 -1.1588504781298172e-14 0.9914448613738123
  outer loop
    vertex 102.99391161096187 62.690764657004905 3.8208890084532126
    vertex 103.30449446508491 58.830764657004906 3.7800000000000518
    vertex 103.30449446508491 62.690764657004905 3.780000000000097
  endloop
endfacet
facet normal -1.0 -0.0 0.0
  outer loop
    vertex 98.30449446508487 52.6907646570049 8.000000000000039
    vertex 98.30449446508487 56.59076465700487 2.0000000000000426
    vertex 98.30449446508487 52.69076465700488 2.0000000000000404
  endloop
endfacet
facet normal -1.0 -0.0 0.0
  outer loop
    vertex 98.30449446508487 56.59076465700487 2.0000000000000426
    vertex 98.30449446508487 52.6907646570049 8.000000000000039
    vertex 98.30449446508487 56.590764657004904 8.00000000000004
  endloop
endfacet
facet normal 0.0 1.0 5.551115123125783e-16
  outer loop
    vertex 100.30449446508487 56.590764657004904 8.00000000000004
    vertex 98.30449446508487 56.59076465700487 2.0000000000000426
    vertex 98.30449446508487 56.590764657004904 8.00000000000004
  endloop
endfacet
facet normal 0.0 1.0 5.551115123125783e-16
  outer loop
    vertex 98.30449446508487 56.59076465700487 2.0000000000000426
    vertex 100.30449446508487 56.590764657004904 8.00000000000004
    vertex 100.30449446508487 56.59076465700487 2.0000000000000426
  endloop
endfacet
facet normal 1.0 0.0 0.0
  outer loop
    vertex 100.30449446508487 56.590764657004904 8.00000000000004
    vertex 100.30449446508487 52.69076465700488 2.0000000000000404
    vertex 100.30449446508487 56.59076465700487 2.0000000000000426
  endloop
endfacet
facet normal 1.0 0.0 0.0
  outer loop
    vertex 100.30449446508487 52.69076465700488 2.0000000000000404
    vertex 100.30449446508487 56.590764657004904 8.00000000000004
    vertex 100.30449446508487 52.6907646570049 8.000000000000039
  endloop
endfacet
facet normal 0.0 -5.551115123125783e-16 1.0
  outer loop
    vertex 98.30449446508487 52.6907646570049 8.000000000000039
    vertex 100.30449446508487 56.590764657004904 8.00000000000004
    vertex 98.30449446508487 56.590764657004904 8.00000000000004
  endloop
endfacet
facet normal 0.0 -5.551115123125783e-16 1.0
  outer loop
    vertex 100.30449446508487 56.590764657004904 8.00000000000004
    vertex 98.30449446508487 52.6907646570049 8.000000000000039
    vertex 100.30449446508487 52.6907646570049 8.000000000000039
  endloop
endfacet
facet normal 0.0 -1.0 -5.551115123125783e-16
  outer loop
    vertex 100.30449446508487 52.69076465700488 2.0000000000000404
    vertex 98.30449446508487 52.6907646570049 8.000000000000039
    vertex 98.30449446508487 52.69076465700488 2.0000000000000404
  endloop
endfacet
facet normal 0.0 -1.0 -5.551115123125783e-16
  outer loop
    vertex 98.30449446508487 52.6907646570049 8.000000000000039
    vertex 100.30449446508487 52.69076465700488 2.0000000000000404
    vertex 100.30449446508487 52.6907646570049 8.000000000000039
  endloop
endfacet
facet normal 0.0 5.551115123125783e-16 -1.0
  outer loop
    vertex 100.30449446508487 52.69076465700488 2.0000000000000404
    vertex 98.30449446508487 56.59076465700487 2.0000000000000426
    vertex 100.30449446508487 56.59076465700487 2.0000000000000426
  endloop
endfacet
facet normal 0.0 5.551115123125783e-16 -1.0
  outer loop
    vertex 98.30449446508487 56.59076465700487 2.0000000000000426
    vertex 100.30449446508487 52.69076465700488 2.0000000000000404
    vertex 98.30449446508487 52.69076465700488 2.0000000000000404
  endloop
endfacet
facet normal -0.7117600907944308 0.690191603194595 -0.1305110111522334
  outer loop
    vertex 93.4672554578632 53.28536297710729 5.290582854123065
    vertex 98.0216517526103 57.92335483778532 4.980000000000027
    vertex 93.49616835301636 53.25645008195408 4.980000000000041
  endloop
endfacet
facet normal -0.7117600907944308 0.690191603194595 -0.1305110111522334
  outer loop
    vertex 98.0216517526103 57.92335483778532 4.980000000000027
    vertex 93.4672554578632 53.28536297710729 5.290582854123065
    vertex 97.99514826538652 57.949858325009075 5.2647009496128
  endloop
endfacet
facet normal 0.5501360366340254 -0.5717045242338564 0.6086906259892182
  outer loop
    vertex 92.04764021559252 54.70497821937796 4.1314718625761815
    vertex 96.57022461403967 59.37478197635591 4.430000000000053
    vertex 91.91279329275756 54.83982514221292 4.380000000000039
  endloop
endfacet
facet normal 0.5501360366340254 -0.5717045242338564 0.6086906259892182
  outer loop
    vertex 96.57022461403967 59.37478197635591 4.430000000000053
    vertex 92.04764021559252 54.70497821937796 4.1314718625761815
    vertex 96.69383429330506 59.251172297090534 4.2021825406948485
  endloop
endfacet
facet normal -0.28135082151275 0.25978233391291905 -0.9237720791520262
  outer loop
    vertex 97.4451482653865 58.49985832500907 6.042518408918013
    vertex 93.07190428430444 53.68071415066604 6.019230484541368
    vertex 92.86725545786315 53.88536297710729 6.139110991546923
  endloop
endfacet
facet normal -0.28135082151275 0.25978233391291905 -0.9237720791520262
  outer loop
    vertex 93.07190428430444 53.68071415066604 6.019230484541368
    vertex 97.4451482653865 58.49985832500907 6.042518408918013
    vertex 97.63274302295768 58.31226356743792 5.932627944162918
  endloop
endfacet
facet normal -0.44119351308159954 0.4196250254817673 0.7932610679997745
  outer loop
    vertex 93.24764021559253 53.50497821937797 4.1314718625761815
    vertex 97.63274302295768 58.312263567437924 4.027372055837153
    vertex 93.07190428430444 53.68071415066604 3.940769515458712
  endloop
endfacet
facet normal -0.44119351308159954 0.4196250254817673 0.7932610679997745
  outer loop
    vertex 97.63274302295768 58.312263567437924 4.027372055837153
    vertex 93.24764021559253 53.50497821937797 4.1314718625761815
    vertex 97.79383429330508 58.151172297090525 4.202182540694831
  endloop
endfacet
facet normal -0.10306946480518367 0.08150097720535131 0.9913295497156058
  outer loop
    vertex 92.86725545786315 53.88536297710729 3.820889008453156
    vertex 97.24383429330507 58.70117229709054 3.8800000000000416
    vertex 92.64764021559252 54.10497821937796 3.7800000000000376
  endloop
endfacet
facet normal -0.10306946480518367 0.08150097720535131 0.9913295497156058
  outer loop
    vertex 97.24383429330507 58.70117229709054 3.8800000000000416
    vertex 92.86725545786315 53.88536297710729 3.820889008453156
    vertex 97.4451482653865 58.499858325009086 3.917481591082064
  endloop
endfacet
facet normal 0.08150097720535228 -0.10306946480518267 -0.9913295497156058
  outer loop
    vertex 97.04252032122363 58.902486269171966 6.042518408918021
    vertex 92.64764021559252 54.10497821937796 6.1800000000000415
    vertex 92.42802497332185 54.3245934616486 6.139110991546923
  endloop
endfacet
facet normal 0.08150097720535228 -0.10306946480518267 -0.9913295497156058
  outer loop
    vertex 92.64764021559252 54.10497821937796 6.1800000000000415
    vertex 97.04252032122363 58.902486269171966 6.042518408918021
    vertex 97.24383429330507 58.701172297090515 6.080000000000042
  endloop
endfacet
facet normal 0.5501360366340267 -0.5717045242338571 -0.6086906259892163
  outer loop
    vertex 96.57022461403972 59.3747819763559 5.530000000000053
    vertex 92.04764021559252 54.70497821937796 5.828528137423897
    vertex 91.91279329275756 54.83982514221292 5.58000000000004
  endloop
endfacet
facet normal 0.5501360366340267 -0.5717045242338571 -0.6086906259892163
  outer loop
    vertex 92.04764021559252 54.70497821937796 5.828528137423897
    vertex 96.57022461403972 59.3747819763559 5.530000000000053
    vertex 96.6938342933051 59.25117229709052 5.757817459305254
  endloop
endfacet
facet normal 0.2597823339129172 -0.2813508215127468 -0.9237720791520276
  outer loop
    vertex 96.85492556365246 59.09008102674312 5.932627944162932
    vertex 92.42802497332185 54.3245934616486 6.139110991546923
    vertex 92.2233761468806 54.52924228808988 6.019230484541367
  endloop
endfacet
facet normal 0.2597823339129172 -0.2813508215127468 -0.9237720791520276
  outer loop
    vertex 92.42802497332185 54.3245934616486 6.139110991546923
    vertex 96.85492556365246 59.09008102674312 5.932627944162932
    vertex 97.04252032122363 58.902486269171966 6.042518408918021
  endloop
endfacet
facet normal -0.10306946480519055 0.08150097720535912 -0.9913295497156046
  outer loop
    vertex 97.24383429330507 58.701172297090515 6.080000000000042
    vertex 92.86725545786315 53.88536297710729 6.139110991546923
    vertex 92.64764021559252 54.10497821937796 6.1800000000000415
  endloop
endfacet
facet normal -0.10306946480519055 0.08150097720535912 -0.9913295497156046
  outer loop
    vertex 92.86725545786315 53.88536297710729 6.139110991546923
    vertex 97.24383429330507 58.701172297090515 6.080000000000042
    vertex 97.4451482653865 58.49985832500907 6.042518408918013
  endloop
endfacet
facet normal -0.6639897452391131 0.6424212576392776 -0.3826389237263594
  outer loop
    vertex 93.38248713842748 53.370131296543 5.58000000000004
    vertex 97.99514826538652 57.949858325009075 5.2647009496128
    vertex 93.4672554578632 53.28536297710729 5.290582854123065
  endloop
endfacet
facet normal -0.6639897452391131 0.6424212576392776 -0.3826389237263594
  outer loop
    vertex 97.99514826538652 57.949858325009075 5.2647009496128
    vertex 93.38248713842748 53.370131296543 5.58000000000004
    vertex 97.91744397257047 58.02756261782515 5.530000000000029
  endloop
endfacet
facet normal -0.6639897452391117 0.6424212576392756 0.3826389237263652
  outer loop
    vertex 97.99514826538652 57.94985832500908 4.6952990503872565
    vertex 93.38248713842748 53.370131296543 4.380000000000039
    vertex 93.4672554578632 53.28536297710729 4.669417145877015
  endloop
endfacet
facet normal -0.6639897452391117 0.6424212576392756 0.3826389237263652
  outer loop
    vertex 93.38248713842748 53.370131296543 4.380000000000039
    vertex 97.99514826538652 57.94985832500908 4.6952990503872565
    vertex 97.91744397257042 58.02756261782515 4.430000000000031
  endloop
endfacet
facet normal 0.6901916031946045 -0.7117600907944324 0.1305110111521749
  outer loop
    vertex 96.49252032122362 59.45248626917198 4.695299050387282
    vertex 91.79911207816868 54.9535063568018 4.980000000000041
    vertex 91.82802497332185 54.92459346164864 4.669417145877015
  endloop
endfacet
facet normal 0.6901916031946045 -0.7117600907944324 0.1305110111521749
  outer loop
    vertex 91.79911207816868 54.9535063568018 4.980000000000041
    vertex 96.49252032122362 59.45248626917198 4.695299050387282
    vertex 96.46601683399986 59.47898975639573 4.9800000000000555
  endloop
endfacet
facet normal -0.571704524233855 0.550136036634021 -0.6086906259892234
  outer loop
    vertex 97.79383429330508 58.15117229709051 5.757817459305233
    vertex 93.38248713842748 53.370131296543 5.58000000000004
    vertex 93.24764021559253 53.50497821937797 5.828528137423899
  endloop
endfacet
facet normal -0.571704524233855 0.550136036634021 -0.6086906259892234
  outer loop
    vertex 93.38248713842748 53.370131296543 5.58000000000004
    vertex 97.79383429330508 58.15117229709051 5.757817459305233
    vertex 97.91744397257047 58.02756261782515 5.530000000000029
  endloop
endfacet
facet normal -0.2813508215127404 0.2597823339129095 0.9237720791520317
  outer loop
    vertex 93.07190428430444 53.68071415066604 3.940769515458712
    vertex 97.4451482653865 58.499858325009086 3.917481591082064
    vertex 92.86725545786315 53.88536297710729 3.820889008453156
  endloop
endfacet
facet normal -0.2813508215127404 0.2597823339129095 0.9237720791520317
  outer loop
    vertex 97.4451482653865 58.499858325009086 3.917481591082064
    vertex 93.07190428430444 53.68071415066604 3.940769515458712
    vertex 97.63274302295768 58.312263567437924 4.027372055837153
  endloop
endfacet
facet normal 0.41962502548176134 -0.4411935130815905 -0.7932610679997826
  outer loop
    vertex 96.6938342933051 59.25117229709052 5.757817459305254
    vertex 92.2233761468806 54.52924228808988 6.019230484541367
    vertex 92.04764021559252 54.70497821937796 5.828528137423897
  endloop
endfacet
facet normal 0.41962502548176134 -0.4411935130815905 -0.7932610679997826
  outer loop
    vertex 92.2233761468806 54.52924228808988 6.019230484541367
    vertex 96.6938342933051 59.25117229709052 5.757817459305254
    vertex 96.85492556365246 59.09008102674312 5.932627944162932
  endloop
endfacet
facet normal 0.41962502548174413 -0.4411935130815736 0.7932610679998011
  outer loop
    vertex 92.2233761468806 54.52924228808988 3.940769515458712
    vertex 96.69383429330506 59.251172297090534 4.2021825406948485
    vertex 92.04764021559252 54.70497821937796 4.1314718625761815
  endloop
endfacet
facet normal 0.41962502548174413 -0.4411935130815736 0.7932610679998011
  outer loop
    vertex 96.69383429330506 59.251172297090534 4.2021825406948485
    vertex 92.2233761468806 54.52924228808988 3.940769515458712
    vertex 96.85492556365246 59.090081026743135 4.027372055837165
  endloop
endfacet
facet normal -0.7117600907944296 0.6901916031945934 0.1305110111522483
  outer loop
    vertex 98.0216517526103 57.92335483778532 4.980000000000027
    vertex 93.4672554578632 53.28536297710729 4.669417145877015
    vertex 93.49616835301636 53.25645008195408 4.980000000000041
  endloop
endfacet
facet normal -0.7117600907944296 0.6901916031945934 0.1305110111522483
  outer loop
    vertex 93.4672554578632 53.28536297710729 4.669417145877015
    vertex 98.0216517526103 57.92335483778532 4.980000000000027
    vertex 97.99514826538652 57.94985832500908 4.6952990503872565
  endloop
endfacet
facet normal 0.6424212576392766 -0.663989745239108 -0.38263892372636976
  outer loop
    vertex 96.57022461403972 59.3747819763559 5.530000000000053
    vertex 91.82802497332185 54.92459346164864 5.290582854123065
    vertex 96.49252032122362 59.45248626917196 5.264700949612827
  endloop
endfacet
facet normal 0.6424212576392766 -0.663989745239108 -0.38263892372636976
  outer loop
    vertex 91.82802497332185 54.92459346164864 5.290582854123065
    vertex 96.57022461403972 59.3747819763559 5.530000000000053
    vertex 91.91279329275756 54.83982514221292 5.58000000000004
  endloop
endfacet
facet normal 0.6424212576392783 -0.6639897452391097 0.38263892372636443
  outer loop
    vertex 96.57022461403967 59.37478197635591 4.430000000000053
    vertex 91.82802497332185 54.92459346164864 4.669417145877015
    vertex 91.91279329275756 54.83982514221292 4.380000000000039
  endloop
endfacet
facet normal 0.6424212576392783 -0.6639897452391097 0.38263892372636443
  outer loop
    vertex 91.82802497332185 54.92459346164864 4.669417145877015
    vertex 96.57022461403967 59.37478197635591 4.430000000000053
    vertex 96.49252032122362 59.45248626917198 4.695299050387282
  endloop
endfacet
facet normal 0.690191603194603 -0.7117600907944311 -0.13051101115218974
  outer loop
    vertex 96.46601683399986 59.47898975639573 4.9800000000000555
    vertex 91.82802497332185 54.92459346164864 5.290582854123065
    vertex 91.79911207816868 54.9535063568018 4.980000000000041
  endloop
endfacet
facet normal 0.690191603194603 -0.7117600907944311 -0.13051101115218974
  outer loop
    vertex 91.82802497332185 54.92459346164864 5.290582854123065
    vertex 96.46601683399986 59.47898975639573 4.9800000000000555
    vertex 96.49252032122362 59.45248626917196 5.264700949612827
  endloop
endfacet
facet normal -0.5717045242338356 0.5501360366340017 0.608690625989259
  outer loop
    vertex 93.38248713842748 53.370131296543 4.380000000000039
    vertex 97.79383429330508 58.151172297090525 4.202182540694831
    vertex 93.24764021559253 53.50497821937797 4.1314718625761815
  endloop
endfacet
facet normal -0.5717045242338356 0.5501360366340017 0.608690625989259
  outer loop
    vertex 97.79383429330508 58.151172297090525 4.202182540694831
    vertex 93.38248713842748 53.370131296543 4.380000000000039
    vertex 97.91744397257042 58.02756261782515 4.430000000000031
  endloop
endfacet
facet normal 0.2597823339129166 -0.2813508215127467 0.9237720791520279
  outer loop
    vertex 92.42802497332185 54.3245934616486 3.820889008453156
    vertex 96.85492556365246 59.090081026743135 4.027372055837165
    vertex 92.2233761468806 54.52924228808988 3.940769515458712
  endloop
endfacet
facet normal 0.2597823339129166 -0.2813508215127467 0.9237720791520279
  outer loop
    vertex 96.85492556365246 59.090081026743135 4.027372055837165
    vertex 92.42802497332185 54.3245934616486 3.820889008453156
    vertex 97.04252032122363 58.90248626917197 3.9174815910820695
  endloop
endfacet
facet normal -0.4411935130815955 0.41962502548176384 -0.7932610679997787
  outer loop
    vertex 97.63274302295768 58.31226356743792 5.932627944162918
    vertex 93.24764021559253 53.50497821937797 5.828528137423899
    vertex 93.07190428430444 53.68071415066604 6.019230484541368
  endloop
endfacet
facet normal -0.4411935130815955 0.41962502548176384 -0.7932610679997787
  outer loop
    vertex 93.24764021559253 53.50497821937797 5.828528137423899
    vertex 97.63274302295768 58.31226356743792 5.932627944162918
    vertex 97.79383429330508 58.15117229709051 5.757817459305233
  endloop
endfacet
facet normal 0.08150097720536388 -0.10306946480519505 0.9913295497156037
  outer loop
    vertex 92.64764021559252 54.10497821937796 3.7800000000000376
    vertex 97.04252032122363 58.90248626917197 3.9174815910820695
    vertex 92.42802497332185 54.3245934616486 3.820889008453156
  endloop
endfacet
facet normal 0.08150097720536388 -0.10306946480519505 0.9913295497156037
  outer loop
    vertex 97.04252032122363 58.90248626917197 3.9174815910820695
    vertex 92.64764021559252 54.10497821937796 3.7800000000000376
    vertex 97.24383429330507 58.70117229709054 3.8800000000000416
  endloop
endfacet
facet normal -0.7071067811865422 -0.7071067811865528 -9.97790636338971e-16
  outer loop
    vertex 92.64764021559252 58.347618906497225 2.4000000000000394
    vertex 91.23342665321942 59.761832468870324 2.00000000000004
    vertex 92.93048292806715 58.06477619402264 2.00000000000004
  endloop
endfacet
facet normal -0.7071067811865422 -0.7071067811865528 -9.97790636338971e-16
  outer loop
    vertex 91.23342665321942 59.761832468870324 2.00000000000004
    vertex 92.64764021559252 58.347618906497225 2.4000000000000394
    vertex 91.23342665321942 59.761832468870324 9.98000000000004
  endloop
endfacet
facet normal -0.7071067811865422 -0.7071067811865528 -9.97790636338971e-16
  outer loop
    vertex 91.23342665321942 59.761832468870324 9.98000000000004
    vertex 92.64764021559252 58.347618906497225 2.4000000000000394
    vertex 92.64764021559247 58.347618906497225 9.600000000000039
  endloop
endfacet
facet normal -0.7071067811865422 -0.7071067811865528 -9.97790636338971e-16
  outer loop
    vertex 91.23342665321942 59.761832468870324 9.98000000000004
    vertex 92.64764021559247 58.347618906497225 9.600000000000039
    vertex 92.91634079244342 58.078918329646356 9.98000000000004
  endloop
endfacet
facet normal -0.7071067811865422 -0.7071067811865528 -9.97790636338971e-16
  outer loop
    vertex 91.23342665321942 59.761832468870324 9.98000000000004
    vertex 92.91634079244342 58.078918329646356 9.98000000000004
    vertex 92.93048292806715 58.06477619402264 10.000000000000036
  endloop
endfacet
endsolid Totem Plastic Brackets collection v.1.0
