solid carter wheel spacer cylinders 3.3
facet normal -0.9914448613738104 -0.1305261922200516 -0.0
  outer loop
    vertex 1.5454813220625094 0.41411047216403335 10.250000000000002
    vertex 1.5999999999999992 0.0 0.0
    vertex 1.5999999999999992 0.0 10.250000000000002
  endloop
endfacet
facet normal -0.9914448613738104 -0.1305261922200516 -0.0
  outer loop
    vertex 1.5999999999999992 0.0 0.0
    vertex 1.5454813220625094 0.41411047216403335 10.250000000000002
    vertex 1.5454813220625094 0.41411047216403335 0.0
  endloop
endfacet
facet normal 0.0 0.0 1.0
  outer loop
    vertex -4.829629131445342 -1.294095225512602 10.250000000000002
    vertex -4.8296291314453415 1.2940952255126046 10.250000000000002
    vertex -5.0 7.049916206369744e-16 10.250000000000002
  endloop
endfacet
facet normal 0.0 0.0 1.0
  outer loop
    vertex -4.8296291314453415 1.2940952255126046 10.250000000000002
    vertex -4.829629131445342 -1.294095225512602 10.250000000000002
    vertex -4.3301270189221945 -2.4999999999999987 10.250000000000002
  endloop
endfacet
facet normal 0.0 0.0 1.0
  outer loop
    vertex -4.8296291314453415 1.2940952255126046 10.250000000000002
    vertex -4.3301270189221945 -2.4999999999999987 10.250000000000002
    vertex -4.330127018922193 2.5000000000000018 10.250000000000002
  endloop
endfacet
facet normal 0.0 0.0 1.0
  outer loop
    vertex -4.330127018922193 2.5000000000000018 10.250000000000002
    vertex -4.3301270189221945 -2.4999999999999987 10.250000000000002
    vertex -3.5355339059327395 -3.535533905932736 10.250000000000002
  endloop
endfacet
facet normal 0.0 0.0 1.0
  outer loop
    vertex -4.330127018922193 2.5000000000000018 10.250000000000002
    vertex -3.5355339059327395 -3.535533905932736 10.250000000000002
    vertex -3.5355339059327373 3.5355339059327373 10.250000000000002
  endloop
endfacet
facet normal 0.0 0.0 1.0
  outer loop
    vertex -3.5355339059327373 3.5355339059327373 10.250000000000002
    vertex -3.5355339059327395 -3.535533905932736 10.250000000000002
    vertex -2.500000000000002 -4.330127018922193 10.250000000000002
  endloop
endfacet
facet normal 0.0 0.0 1.0
  outer loop
    vertex -3.5355339059327373 3.5355339059327373 10.250000000000002
    vertex -2.500000000000002 -4.330127018922193 10.250000000000002
    vertex -2.499999999999999 4.330127018922194 10.250000000000002
  endloop
endfacet
facet normal 0.0 0.0 1.0
  outer loop
    vertex -2.499999999999999 4.330127018922194 10.250000000000002
    vertex -2.500000000000002 -4.330127018922193 10.250000000000002
    vertex -1.2940952255126075 -4.829629131445341 10.250000000000002
  endloop
endfacet
facet normal 0.0 0.0 1.0
  outer loop
    vertex -2.499999999999999 4.330127018922194 10.250000000000002
    vertex -1.2940952255126075 -4.829629131445341 10.250000000000002
    vertex -1.5999999999999999 0.0 10.250000000000002
  endloop
endfacet
facet normal 0.0 0.0 1.0
  outer loop
    vertex -1.5999999999999999 0.0 10.250000000000002
    vertex -1.2940952255126075 -4.829629131445341 10.250000000000002
    vertex -1.5454813220625094 -0.41411047216403263 10.250000000000002
  endloop
endfacet
facet normal 0.0 0.0 1.0
  outer loop
    vertex -1.5454813220625094 -0.41411047216403263 10.250000000000002
    vertex -1.2940952255126075 -4.829629131445341 10.250000000000002
    vertex -1.3856406460551023 -0.7999999999999993 10.250000000000002
  endloop
endfacet
facet normal 0.0 0.0 1.0
  outer loop
    vertex -1.3856406460551023 -0.7999999999999993 10.250000000000002
    vertex -1.2940952255126075 -4.829629131445341 10.250000000000002
    vertex -1.1313708498984762 -1.1313708498984756 10.250000000000002
  endloop
endfacet
facet normal 0.0 0.0 1.0
  outer loop
    vertex -1.1313708498984762 -1.1313708498984756 10.250000000000002
    vertex -1.2940952255126075 -4.829629131445341 10.250000000000002
    vertex -7.049916206369744e-16 -5.0 10.250000000000002
  endloop
endfacet
facet normal 0.0 0.0 1.0
  outer loop
    vertex -1.1313708498984762 -1.1313708498984756 10.250000000000002
    vertex -7.049916206369744e-16 -5.0 10.250000000000002
    vertex -0.8000000000000006 -1.3856406460551016 10.250000000000002
  endloop
endfacet
facet normal 0.0 0.0 1.0
  outer loop
    vertex -0.8000000000000006 -1.3856406460551016 10.250000000000002
    vertex -7.049916206369744e-16 -5.0 10.250000000000002
    vertex -0.414110472164034 -1.5454813220625088 10.250000000000002
  endloop
endfacet
facet normal 0.0 0.0 1.0
  outer loop
    vertex -0.414110472164034 -1.5454813220625088 10.250000000000002
    vertex -7.049916206369744e-16 -5.0 10.250000000000002
    vertex 0.0 -1.5999999999999999 10.250000000000002
  endloop
endfacet
facet normal 0.0 0.0 1.0
  outer loop
    vertex 0.0 -1.5999999999999999 10.250000000000002
    vertex -7.049916206369744e-16 -5.0 10.250000000000002
    vertex 1.294095225512602 -4.829629131445342 10.250000000000002
  endloop
endfacet
facet normal 0.0 0.0 1.0
  outer loop
    vertex 0.0 -1.5999999999999999 10.250000000000002
    vertex 1.294095225512602 -4.829629131445342 10.250000000000002
    vertex 0.41411047216403263 -1.5454813220625094 10.250000000000002
  endloop
endfacet
facet normal 0.0 0.0 1.0
  outer loop
    vertex 0.41411047216403263 -1.5454813220625094 10.250000000000002
    vertex 1.294095225512602 -4.829629131445342 10.250000000000002
    vertex 0.7999999999999993 -1.3856406460551023 10.250000000000002
  endloop
endfacet
facet normal 0.0 0.0 1.0
  outer loop
    vertex 0.7999999999999993 -1.3856406460551023 10.250000000000002
    vertex 1.294095225512602 -4.829629131445342 10.250000000000002
    vertex 1.1313708498984756 -1.1313708498984762 10.250000000000002
  endloop
endfacet
facet normal 0.0 0.0 1.0
  outer loop
    vertex 1.1313708498984756 -1.1313708498984762 10.250000000000002
    vertex 1.294095225512602 -4.829629131445342 10.250000000000002
    vertex 1.3856406460551007 -0.8000000000000006 10.250000000000002
  endloop
endfacet
facet normal 0.0 0.0 1.0
  outer loop
    vertex 1.3856406460551007 -0.8000000000000006 10.250000000000002
    vertex 1.294095225512602 -4.829629131445342 10.250000000000002
    vertex 2.4999999999999973 -4.330127018922195 10.250000000000002
  endloop
endfacet
facet normal 0.0 0.0 1.0
  outer loop
    vertex 1.3856406460551007 -0.8000000000000006 10.250000000000002
    vertex 2.4999999999999973 -4.330127018922195 10.250000000000002
    vertex 1.5454813220625094 -0.41411047216403474 10.250000000000002
  endloop
endfacet
facet normal 0.0 0.0 1.0
  outer loop
    vertex 1.5454813220625094 -0.41411047216403474 10.250000000000002
    vertex 2.4999999999999973 -4.330127018922195 10.250000000000002
    vertex 1.5999999999999992 0.0 10.250000000000002
  endloop
endfacet
facet normal 0.0 0.0 1.0
  outer loop
    vertex -1.5999999999999999 0.0 10.250000000000002
    vertex -1.2940952255126033 4.8296291314453415 10.250000000000002
    vertex -2.499999999999999 4.330127018922194 10.250000000000002
  endloop
endfacet
facet normal 0.0 0.0 1.0
  outer loop
    vertex -1.2940952255126033 4.8296291314453415 10.250000000000002
    vertex -1.5999999999999999 0.0 10.250000000000002
    vertex -1.5454813220625088 0.41411047216403335 10.250000000000002
  endloop
endfacet
facet normal 0.0 0.0 1.0
  outer loop
    vertex -1.2940952255126033 4.8296291314453415 10.250000000000002
    vertex -1.5454813220625088 0.41411047216403335 10.250000000000002
    vertex -1.3856406460551016 0.8000000000000006 10.250000000000002
  endloop
endfacet
facet normal 0.0 0.0 1.0
  outer loop
    vertex -1.2940952255126033 4.8296291314453415 10.250000000000002
    vertex -1.3856406460551016 0.8000000000000006 10.250000000000002
    vertex -1.1313708498984762 1.1313708498984762 10.250000000000002
  endloop
endfacet
facet normal 0.0 0.0 1.0
  outer loop
    vertex -1.2940952255126033 4.8296291314453415 10.250000000000002
    vertex -1.1313708498984762 1.1313708498984762 10.250000000000002
    vertex 0.0 5.0 10.250000000000002
  endloop
endfacet
facet normal 0.0 0.0 1.0
  outer loop
    vertex 0.0 5.0 10.250000000000002
    vertex -1.1313708498984762 1.1313708498984762 10.250000000000002
    vertex -0.7999999999999993 1.3856406460551023 10.250000000000002
  endloop
endfacet
facet normal 0.0 0.0 1.0
  outer loop
    vertex 0.0 5.0 10.250000000000002
    vertex -0.7999999999999993 1.3856406460551023 10.250000000000002
    vertex -0.41411047216403263 1.5454813220625094 10.250000000000002
  endloop
endfacet
facet normal 0.0 0.0 1.0
  outer loop
    vertex 0.0 5.0 10.250000000000002
    vertex -0.41411047216403263 1.5454813220625094 10.250000000000002
    vertex 0.0 1.5999999999999992 10.250000000000002
  endloop
endfacet
facet normal 0.0 0.0 1.0
  outer loop
    vertex 0.0 5.0 10.250000000000002
    vertex 0.0 1.5999999999999992 10.250000000000002
    vertex 0.41411047216403335 1.5454813220625094 10.250000000000002
  endloop
endfacet
facet normal 0.0 0.0 1.0
  outer loop
    vertex 0.0 5.0 10.250000000000002
    vertex 0.41411047216403335 1.5454813220625094 10.250000000000002
    vertex 1.2940952255126046 4.8296291314453415 10.250000000000002
  endloop
endfacet
facet normal 0.0 0.0 1.0
  outer loop
    vertex 1.2940952255126046 4.8296291314453415 10.250000000000002
    vertex 0.41411047216403335 1.5454813220625094 10.250000000000002
    vertex 0.7999999999999999 1.3856406460551023 10.250000000000002
  endloop
endfacet
facet normal 0.0 0.0 1.0
  outer loop
    vertex 1.2940952255126046 4.8296291314453415 10.250000000000002
    vertex 0.7999999999999999 1.3856406460551023 10.250000000000002
    vertex 1.1313708498984762 1.1313708498984762 10.250000000000002
  endloop
endfacet
facet normal 0.0 0.0 1.0
  outer loop
    vertex 1.2940952255126046 4.8296291314453415 10.250000000000002
    vertex 1.1313708498984762 1.1313708498984762 10.250000000000002
    vertex 1.3856406460551023 0.7999999999999999 10.250000000000002
  endloop
endfacet
facet normal 0.0 0.0 1.0
  outer loop
    vertex 1.2940952255126046 4.8296291314453415 10.250000000000002
    vertex 1.3856406460551023 0.7999999999999999 10.250000000000002
    vertex 2.5000000000000004 4.330127018922193 10.250000000000002
  endloop
endfacet
facet normal 0.0 0.0 1.0
  outer loop
    vertex 2.5000000000000004 4.330127018922193 10.250000000000002
    vertex 1.3856406460551023 0.7999999999999999 10.250000000000002
    vertex 1.5454813220625094 0.41411047216403335 10.250000000000002
  endloop
endfacet
facet normal 0.0 0.0 1.0
  outer loop
    vertex 2.5000000000000004 4.330127018922193 10.250000000000002
    vertex 1.5454813220625094 0.41411047216403335 10.250000000000002
    vertex 1.5999999999999992 0.0 10.250000000000002
  endloop
endfacet
facet normal 0.0 0.0 1.0
  outer loop
    vertex 2.5000000000000004 4.330127018922193 10.250000000000002
    vertex 1.5999999999999992 0.0 10.250000000000002
    vertex 2.4999999999999973 -4.330127018922195 10.250000000000002
  endloop
endfacet
facet normal 0.0 0.0 1.0
  outer loop
    vertex 2.5000000000000004 4.330127018922193 10.250000000000002
    vertex 2.4999999999999973 -4.330127018922195 10.250000000000002
    vertex 3.5355339059327373 -3.5355339059327386 10.250000000000002
  endloop
endfacet
facet normal 0.0 0.0 1.0
  outer loop
    vertex 2.5000000000000004 4.330127018922193 10.250000000000002
    vertex 3.5355339059327373 -3.5355339059327386 10.250000000000002
    vertex 3.5355339059327373 3.5355339059327373 10.250000000000002
  endloop
endfacet
facet normal 0.0 0.0 1.0
  outer loop
    vertex 3.5355339059327373 3.5355339059327373 10.250000000000002
    vertex 3.5355339059327373 -3.5355339059327386 10.250000000000002
    vertex 4.330127018922193 -2.500000000000002 10.250000000000002
  endloop
endfacet
facet normal 0.0 0.0 1.0
  outer loop
    vertex 3.5355339059327373 3.5355339059327373 10.250000000000002
    vertex 4.330127018922193 -2.500000000000002 10.250000000000002
    vertex 4.330127018922194 2.5000000000000004 10.250000000000002
  endloop
endfacet
facet normal 0.0 0.0 1.0
  outer loop
    vertex 4.330127018922194 2.5000000000000004 10.250000000000002
    vertex 4.330127018922193 -2.500000000000002 10.250000000000002
    vertex 4.82962913144534 -1.2940952255126075 10.250000000000002
  endloop
endfacet
facet normal 0.0 0.0 1.0
  outer loop
    vertex 4.330127018922194 2.5000000000000004 10.250000000000002
    vertex 4.82962913144534 -1.2940952255126075 10.250000000000002
    vertex 4.8296291314453415 1.2940952255126033 10.250000000000002
  endloop
endfacet
facet normal 0.0 0.0 1.0
  outer loop
    vertex 4.8296291314453415 1.2940952255126033 10.250000000000002
    vertex 4.82962913144534 -1.2940952255126075 10.250000000000002
    vertex 5.0 0.0 10.250000000000002
  endloop
endfacet
facet normal 0.0 0.0 -1.0
  outer loop
    vertex -1.2940952255126033 4.8296291314453415 0.0
    vertex -1.5999999999999999 0.0 0.0
    vertex -2.499999999999999 4.330127018922194 0.0
  endloop
endfacet
facet normal 0.0 0.0 -1.0
  outer loop
    vertex -1.5999999999999999 0.0 0.0
    vertex -1.2940952255126033 4.8296291314453415 0.0
    vertex -1.5454813220625088 0.41411047216403335 0.0
  endloop
endfacet
facet normal 0.0 0.0 -1.0
  outer loop
    vertex -1.5454813220625088 0.41411047216403335 0.0
    vertex -1.2940952255126033 4.8296291314453415 0.0
    vertex -1.3856406460551016 0.8000000000000006 0.0
  endloop
endfacet
facet normal 0.0 0.0 -1.0
  outer loop
    vertex -1.3856406460551016 0.8000000000000006 0.0
    vertex -1.2940952255126033 4.8296291314453415 0.0
    vertex -1.1313708498984762 1.1313708498984762 0.0
  endloop
endfacet
facet normal 0.0 0.0 -1.0
  outer loop
    vertex -1.1313708498984762 1.1313708498984762 0.0
    vertex -1.2940952255126033 4.8296291314453415 0.0
    vertex 0.0 5.0 0.0
  endloop
endfacet
facet normal 0.0 0.0 -1.0
  outer loop
    vertex -1.1313708498984762 1.1313708498984762 0.0
    vertex 0.0 5.0 0.0
    vertex -0.7999999999999993 1.3856406460551023 0.0
  endloop
endfacet
facet normal 0.0 0.0 -1.0
  outer loop
    vertex -0.7999999999999993 1.3856406460551023 0.0
    vertex 0.0 5.0 0.0
    vertex -0.41411047216403263 1.5454813220625094 0.0
  endloop
endfacet
facet normal 0.0 0.0 -1.0
  outer loop
    vertex -0.41411047216403263 1.5454813220625094 0.0
    vertex 0.0 5.0 0.0
    vertex 0.0 1.5999999999999992 0.0
  endloop
endfacet
facet normal 0.0 0.0 -1.0
  outer loop
    vertex 0.0 1.5999999999999992 0.0
    vertex 0.0 5.0 0.0
    vertex 1.2940952255126046 4.8296291314453415 0.0
  endloop
endfacet
facet normal 0.0 0.0 -1.0
  outer loop
    vertex 0.0 1.5999999999999992 0.0
    vertex 1.2940952255126046 4.8296291314453415 0.0
    vertex 0.41411047216403335 1.5454813220625094 0.0
  endloop
endfacet
facet normal 0.0 0.0 -1.0
  outer loop
    vertex 0.41411047216403335 1.5454813220625094 0.0
    vertex 1.2940952255126046 4.8296291314453415 0.0
    vertex 0.7999999999999999 1.3856406460551023 0.0
  endloop
endfacet
facet normal 0.0 0.0 -1.0
  outer loop
    vertex 0.7999999999999999 1.3856406460551023 0.0
    vertex 1.2940952255126046 4.8296291314453415 0.0
    vertex 1.1313708498984762 1.1313708498984762 0.0
  endloop
endfacet
facet normal 0.0 0.0 -1.0
  outer loop
    vertex 1.1313708498984762 1.1313708498984762 0.0
    vertex 1.2940952255126046 4.8296291314453415 0.0
    vertex 1.3856406460551023 0.7999999999999999 0.0
  endloop
endfacet
facet normal 0.0 0.0 -1.0
  outer loop
    vertex 1.3856406460551023 0.7999999999999999 0.0
    vertex 1.2940952255126046 4.8296291314453415 0.0
    vertex 2.5000000000000004 4.330127018922193 0.0
  endloop
endfacet
facet normal 0.0 0.0 -1.0
  outer loop
    vertex 1.3856406460551023 0.7999999999999999 0.0
    vertex 2.5000000000000004 4.330127018922193 0.0
    vertex 1.5454813220625094 0.41411047216403335 0.0
  endloop
endfacet
facet normal 0.0 0.0 -1.0
  outer loop
    vertex 1.5454813220625094 0.41411047216403335 0.0
    vertex 2.5000000000000004 4.330127018922193 0.0
    vertex 1.5999999999999992 0.0 0.0
  endloop
endfacet
facet normal 0.0 0.0 -1.0
  outer loop
    vertex 1.5999999999999992 0.0 0.0
    vertex 2.5000000000000004 4.330127018922193 0.0
    vertex 2.4999999999999973 -4.330127018922195 0.0
  endloop
endfacet
facet normal 0.0 0.0 -1.0
  outer loop
    vertex 2.4999999999999973 -4.330127018922195 0.0
    vertex 2.5000000000000004 4.330127018922193 0.0
    vertex 3.5355339059327373 -3.5355339059327386 0.0
  endloop
endfacet
facet normal 0.0 0.0 -1.0
  outer loop
    vertex 3.5355339059327373 -3.5355339059327386 0.0
    vertex 2.5000000000000004 4.330127018922193 0.0
    vertex 3.5355339059327373 3.5355339059327373 0.0
  endloop
endfacet
facet normal 0.0 0.0 -1.0
  outer loop
    vertex 3.5355339059327373 -3.5355339059327386 0.0
    vertex 3.5355339059327373 3.5355339059327373 0.0
    vertex 4.330127018922194 2.5000000000000004 0.0
  endloop
endfacet
facet normal 0.0 0.0 -1.0
  outer loop
    vertex 3.5355339059327373 -3.5355339059327386 0.0
    vertex 4.330127018922194 2.5000000000000004 0.0
    vertex 4.330127018922193 -2.500000000000002 0.0
  endloop
endfacet
facet normal 0.0 0.0 -1.0
  outer loop
    vertex 4.330127018922193 -2.500000000000002 0.0
    vertex 4.330127018922194 2.5000000000000004 0.0
    vertex 4.82962913144534 -1.2940952255126075 0.0
  endloop
endfacet
facet normal 0.0 0.0 -1.0
  outer loop
    vertex 4.82962913144534 -1.2940952255126075 0.0
    vertex 4.330127018922194 2.5000000000000004 0.0
    vertex 4.8296291314453415 1.2940952255126033 0.0
  endloop
endfacet
facet normal 0.0 0.0 -1.0
  outer loop
    vertex 4.82962913144534 -1.2940952255126075 0.0
    vertex 4.8296291314453415 1.2940952255126033 0.0
    vertex 5.0 0.0 0.0
  endloop
endfacet
facet normal 0.0 0.0 -1.0
  outer loop
    vertex -4.8296291314453415 1.2940952255126046 0.0
    vertex -4.829629131445342 -1.294095225512602 0.0
    vertex -5.0 7.049916206369744e-16 0.0
  endloop
endfacet
facet normal 0.0 0.0 -1.0
  outer loop
    vertex -4.829629131445342 -1.294095225512602 0.0
    vertex -4.8296291314453415 1.2940952255126046 0.0
    vertex -4.3301270189221945 -2.4999999999999987 0.0
  endloop
endfacet
facet normal 0.0 0.0 -1.0
  outer loop
    vertex -4.3301270189221945 -2.4999999999999987 0.0
    vertex -4.8296291314453415 1.2940952255126046 0.0
    vertex -4.330127018922193 2.5000000000000018 0.0
  endloop
endfacet
facet normal 0.0 0.0 -1.0
  outer loop
    vertex -4.3301270189221945 -2.4999999999999987 0.0
    vertex -4.330127018922193 2.5000000000000018 0.0
    vertex -3.5355339059327395 -3.535533905932736 0.0
  endloop
endfacet
facet normal 0.0 0.0 -1.0
  outer loop
    vertex -3.5355339059327395 -3.535533905932736 0.0
    vertex -4.330127018922193 2.5000000000000018 0.0
    vertex -3.5355339059327373 3.5355339059327373 0.0
  endloop
endfacet
facet normal 0.0 0.0 -1.0
  outer loop
    vertex -3.5355339059327395 -3.535533905932736 0.0
    vertex -3.5355339059327373 3.5355339059327373 0.0
    vertex -2.500000000000002 -4.330127018922193 0.0
  endloop
endfacet
facet normal 0.0 0.0 -1.0
  outer loop
    vertex -2.500000000000002 -4.330127018922193 0.0
    vertex -3.5355339059327373 3.5355339059327373 0.0
    vertex -2.499999999999999 4.330127018922194 0.0
  endloop
endfacet
facet normal 0.0 0.0 -1.0
  outer loop
    vertex -2.500000000000002 -4.330127018922193 0.0
    vertex -2.499999999999999 4.330127018922194 0.0
    vertex -1.2940952255126075 -4.829629131445341 0.0
  endloop
endfacet
facet normal 0.0 0.0 -1.0
  outer loop
    vertex -1.2940952255126075 -4.829629131445341 0.0
    vertex -2.499999999999999 4.330127018922194 0.0
    vertex -1.5999999999999999 0.0 0.0
  endloop
endfacet
facet normal 0.0 0.0 -1.0
  outer loop
    vertex -1.2940952255126075 -4.829629131445341 0.0
    vertex -1.5999999999999999 0.0 0.0
    vertex -1.5454813220625094 -0.41411047216403263 0.0
  endloop
endfacet
facet normal 0.0 0.0 -1.0
  outer loop
    vertex -1.2940952255126075 -4.829629131445341 0.0
    vertex -1.5454813220625094 -0.41411047216403263 0.0
    vertex -1.3856406460551023 -0.7999999999999993 0.0
  endloop
endfacet
facet normal 0.0 0.0 -1.0
  outer loop
    vertex -1.2940952255126075 -4.829629131445341 0.0
    vertex -1.3856406460551023 -0.7999999999999993 0.0
    vertex -1.1313708498984762 -1.1313708498984756 0.0
  endloop
endfacet
facet normal 0.0 0.0 -1.0
  outer loop
    vertex -1.2940952255126075 -4.829629131445341 0.0
    vertex -1.1313708498984762 -1.1313708498984756 0.0
    vertex -7.049916206369744e-16 -5.0 0.0
  endloop
endfacet
facet normal 0.0 0.0 -1.0
  outer loop
    vertex -7.049916206369744e-16 -5.0 0.0
    vertex -1.1313708498984762 -1.1313708498984756 0.0
    vertex -0.8000000000000006 -1.3856406460551016 0.0
  endloop
endfacet
facet normal 0.0 0.0 -1.0
  outer loop
    vertex -7.049916206369744e-16 -5.0 0.0
    vertex -0.8000000000000006 -1.3856406460551016 0.0
    vertex -0.414110472164034 -1.5454813220625088 0.0
  endloop
endfacet
facet normal 0.0 0.0 -1.0
  outer loop
    vertex -7.049916206369744e-16 -5.0 0.0
    vertex -0.414110472164034 -1.5454813220625088 0.0
    vertex 0.0 -1.5999999999999999 0.0
  endloop
endfacet
facet normal 0.0 0.0 -1.0
  outer loop
    vertex -7.049916206369744e-16 -5.0 0.0
    vertex 0.0 -1.5999999999999999 0.0
    vertex 1.294095225512602 -4.829629131445342 0.0
  endloop
endfacet
facet normal 0.0 0.0 -1.0
  outer loop
    vertex 1.294095225512602 -4.829629131445342 0.0
    vertex 0.0 -1.5999999999999999 0.0
    vertex 0.41411047216403263 -1.5454813220625094 0.0
  endloop
endfacet
facet normal 0.0 0.0 -1.0
  outer loop
    vertex 1.294095225512602 -4.829629131445342 0.0
    vertex 0.41411047216403263 -1.5454813220625094 0.0
    vertex 0.7999999999999993 -1.3856406460551023 0.0
  endloop
endfacet
facet normal 0.0 0.0 -1.0
  outer loop
    vertex 1.294095225512602 -4.829629131445342 0.0
    vertex 0.7999999999999993 -1.3856406460551023 0.0
    vertex 1.1313708498984756 -1.1313708498984762 0.0
  endloop
endfacet
facet normal 0.0 0.0 -1.0
  outer loop
    vertex 1.294095225512602 -4.829629131445342 0.0
    vertex 1.1313708498984756 -1.1313708498984762 0.0
    vertex 1.3856406460551007 -0.8000000000000006 0.0
  endloop
endfacet
facet normal 0.0 0.0 -1.0
  outer loop
    vertex 1.294095225512602 -4.829629131445342 0.0
    vertex 1.3856406460551007 -0.8000000000000006 0.0
    vertex 2.4999999999999973 -4.330127018922195 0.0
  endloop
endfacet
facet normal 0.0 0.0 -1.0
  outer loop
    vertex 2.4999999999999973 -4.330127018922195 0.0
    vertex 1.3856406460551007 -0.8000000000000006 0.0
    vertex 1.5454813220625094 -0.41411047216403474 0.0
  endloop
endfacet
facet normal 0.0 0.0 -1.0
  outer loop
    vertex 2.4999999999999973 -4.330127018922195 0.0
    vertex 1.5454813220625094 -0.41411047216403474 0.0
    vertex 1.5999999999999992 0.0 0.0
  endloop
endfacet
facet normal -0.7933533402912347 0.6087614290087211 0.0
  outer loop
    vertex 1.3856406460551007 -0.8000000000000006 10.250000000000002
    vertex 1.1313708498984756 -1.1313708498984762 0.0
    vertex 1.1313708498984756 -1.1313708498984762 10.250000000000002
  endloop
endfacet
facet normal -0.7933533402912347 0.6087614290087211 0.0
  outer loop
    vertex 1.1313708498984756 -1.1313708498984762 0.0
    vertex 1.3856406460551007 -0.8000000000000006 10.250000000000002
    vertex 1.3856406460551007 -0.8000000000000006 0.0
  endloop
endfacet
facet normal -0.9238795325112866 0.38268343236509034 0.0
  outer loop
    vertex 1.5454813220625094 -0.41411047216403474 10.250000000000002
    vertex 1.3856406460551007 -0.8000000000000006 0.0
    vertex 1.3856406460551007 -0.8000000000000006 10.250000000000002
  endloop
endfacet
facet normal -0.9238795325112866 0.38268343236509034 0.0
  outer loop
    vertex 1.3856406460551007 -0.8000000000000006 0.0
    vertex 1.5454813220625094 -0.41411047216403474 10.250000000000002
    vertex 1.5454813220625094 -0.41411047216403474 0.0
  endloop
endfacet
facet normal -0.130526192220052 -0.9914448613738104 -0.0
  outer loop
    vertex -7.049916206369744e-16 -5.0 10.250000000000002
    vertex -1.2940952255126075 -4.829629131445341 0.0
    vertex -7.049916206369744e-16 -5.0 0.0
  endloop
endfacet
facet normal -0.130526192220052 -0.9914448613738104 -0.0
  outer loop
    vertex -1.2940952255126075 -4.829629131445341 0.0
    vertex -7.049916206369744e-16 -5.0 10.250000000000002
    vertex -1.2940952255126075 -4.829629131445341 10.250000000000002
  endloop
endfacet
facet normal -0.9914448613738105 0.13052619222005202 0.0
  outer loop
    vertex 1.5999999999999992 0.0 10.250000000000002
    vertex 1.5454813220625094 -0.41411047216403474 0.0
    vertex 1.5454813220625094 -0.41411047216403474 10.250000000000002
  endloop
endfacet
facet normal -0.9914448613738105 0.13052619222005202 0.0
  outer loop
    vertex 1.5454813220625094 -0.41411047216403474 0.0
    vertex 1.5999999999999992 0.0 10.250000000000002
    vertex 1.5999999999999992 0.0 0.0
  endloop
endfacet
facet normal 0.9914448613738105 -0.13052619222005188 0.0
  outer loop
    vertex 5.0 0.0 0.0
    vertex 4.82962913144534 -1.2940952255126075 10.250000000000002
    vertex 4.82962913144534 -1.2940952255126075 0.0
  endloop
endfacet
facet normal 0.9914448613738105 -0.13052619222005188 0.0
  outer loop
    vertex 4.82962913144534 -1.2940952255126075 10.250000000000002
    vertex 5.0 0.0 0.0
    vertex 5.0 0.0 10.250000000000002
  endloop
endfacet
facet normal 0.6087614290087203 -0.7933533402912355 0.0
  outer loop
    vertex 3.5355339059327373 -3.5355339059327386 10.250000000000002
    vertex 2.4999999999999973 -4.330127018922195 0.0
    vertex 3.5355339059327373 -3.5355339059327386 0.0
  endloop
endfacet
facet normal 0.6087614290087203 -0.7933533402912355 0.0
  outer loop
    vertex 2.4999999999999973 -4.330127018922195 0.0
    vertex 3.5355339059327373 -3.5355339059327386 10.250000000000002
    vertex 2.4999999999999973 -4.330127018922195 10.250000000000002
  endloop
endfacet
facet normal 0.9238795325112871 0.3826834323650894 0.0
  outer loop
    vertex 4.330127018922194 2.5000000000000004 0.0
    vertex 4.8296291314453415 1.2940952255126033 10.250000000000002
    vertex 4.8296291314453415 1.2940952255126033 0.0
  endloop
endfacet
facet normal 0.9238795325112871 0.3826834323650894 0.0
  outer loop
    vertex 4.8296291314453415 1.2940952255126033 10.250000000000002
    vertex 4.330127018922194 2.5000000000000004 0.0
    vertex 4.330127018922194 2.5000000000000004 10.250000000000002
  endloop
endfacet
facet normal -0.793353340291235 0.6087614290087209 0.0
  outer loop
    vertex -3.5355339059327373 3.5355339059327373 10.250000000000002
    vertex -4.330127018922193 2.5000000000000018 0.0
    vertex -4.330127018922193 2.5000000000000018 10.250000000000002
  endloop
endfacet
facet normal -0.793353340291235 0.6087614290087209 0.0
  outer loop
    vertex -4.330127018922193 2.5000000000000018 0.0
    vertex -3.5355339059327373 3.5355339059327373 10.250000000000002
    vertex -3.5355339059327373 3.5355339059327373 0.0
  endloop
endfacet
facet normal 0.13052619222005135 -0.9914448613738105 0.0
  outer loop
    vertex 1.294095225512602 -4.829629131445342 10.250000000000002
    vertex -7.049916206369744e-16 -5.0 0.0
    vertex 1.294095225512602 -4.829629131445342 0.0
  endloop
endfacet
facet normal 0.13052619222005135 -0.9914448613738105 0.0
  outer loop
    vertex -7.049916206369744e-16 -5.0 0.0
    vertex 1.294095225512602 -4.829629131445342 10.250000000000002
    vertex -7.049916206369744e-16 -5.0 10.250000000000002
  endloop
endfacet
facet normal -0.6087614290087212 -0.7933533402912348 -0.0
  outer loop
    vertex -2.500000000000002 -4.330127018922193 10.250000000000002
    vertex -3.5355339059327395 -3.535533905932736 0.0
    vertex -2.500000000000002 -4.330127018922193 0.0
  endloop
endfacet
facet normal -0.6087614290087212 -0.7933533402912348 -0.0
  outer loop
    vertex -3.5355339059327395 -3.535533905932736 0.0
    vertex -2.500000000000002 -4.330127018922193 10.250000000000002
    vertex -3.5355339059327395 -3.535533905932736 10.250000000000002
  endloop
endfacet
facet normal -0.13052619222005177 0.9914448613738104 0.0
  outer loop
    vertex -1.2940952255126033 4.8296291314453415 10.250000000000002
    vertex 0.0 5.0 0.0
    vertex -1.2940952255126033 4.8296291314453415 0.0
  endloop
endfacet
facet normal -0.13052619222005177 0.9914448613738104 0.0
  outer loop
    vertex 0.0 5.0 0.0
    vertex -1.2940952255126033 4.8296291314453415 10.250000000000002
    vertex 0.0 5.0 10.250000000000002
  endloop
endfacet
facet normal 0.9238795325112864 -0.3826834323650908 0.0
  outer loop
    vertex 4.82962913144534 -1.2940952255126075 0.0
    vertex 4.330127018922193 -2.500000000000002 10.250000000000002
    vertex 4.330127018922193 -2.500000000000002 0.0
  endloop
endfacet
facet normal 0.9238795325112864 -0.3826834323650908 0.0
  outer loop
    vertex 4.330127018922193 -2.500000000000002 10.250000000000002
    vertex 4.82962913144534 -1.2940952255126075 0.0
    vertex 4.82962913144534 -1.2940952255126075 10.250000000000002
  endloop
endfacet
facet normal -0.3826834323650902 -0.9238795325112865 -0.0
  outer loop
    vertex -1.2940952255126075 -4.829629131445341 10.250000000000002
    vertex -2.500000000000002 -4.330127018922193 0.0
    vertex -1.2940952255126075 -4.829629131445341 0.0
  endloop
endfacet
facet normal -0.3826834323650902 -0.9238795325112865 -0.0
  outer loop
    vertex -2.500000000000002 -4.330127018922193 0.0
    vertex -1.2940952255126075 -4.829629131445341 10.250000000000002
    vertex -2.500000000000002 -4.330127018922193 10.250000000000002
  endloop
endfacet
facet normal 0.9914448613738104 0.13052619222005174 0.0
  outer loop
    vertex 4.8296291314453415 1.2940952255126033 0.0
    vertex 5.0 0.0 10.250000000000002
    vertex 5.0 0.0 0.0
  endloop
endfacet
facet normal 0.9914448613738104 0.13052619222005174 0.0
  outer loop
    vertex 5.0 0.0 10.250000000000002
    vertex 4.8296291314453415 1.2940952255126033 0.0
    vertex 4.8296291314453415 1.2940952255126033 10.250000000000002
  endloop
endfacet
facet normal -0.9238795325112866 0.38268343236509006 0.0
  outer loop
    vertex -4.330127018922193 2.5000000000000018 10.250000000000002
    vertex -4.8296291314453415 1.2940952255126046 0.0
    vertex -4.8296291314453415 1.2940952255126046 10.250000000000002
  endloop
endfacet
facet normal -0.9238795325112866 0.38268343236509006 0.0
  outer loop
    vertex -4.8296291314453415 1.2940952255126046 0.0
    vertex -4.330127018922193 2.5000000000000018 10.250000000000002
    vertex -4.330127018922193 2.5000000000000018 0.0
  endloop
endfacet
facet normal 0.13052619222005168 0.9914448613738105 0.0
  outer loop
    vertex 0.0 5.0 10.250000000000002
    vertex 1.2940952255126046 4.8296291314453415 0.0
    vertex 0.0 5.0 0.0
  endloop
endfacet
facet normal 0.13052619222005168 0.9914448613738105 0.0
  outer loop
    vertex 1.2940952255126046 4.8296291314453415 0.0
    vertex 0.0 5.0 10.250000000000002
    vertex 1.2940952255126046 4.8296291314453415 10.250000000000002
  endloop
endfacet
facet normal 0.7933533402912353 0.6087614290087204 0.0
  outer loop
    vertex 3.5355339059327373 3.5355339059327373 0.0
    vertex 4.330127018922194 2.5000000000000004 10.250000000000002
    vertex 4.330127018922194 2.5000000000000004 0.0
  endloop
endfacet
facet normal 0.7933533402912353 0.6087614290087204 0.0
  outer loop
    vertex 4.330127018922194 2.5000000000000004 10.250000000000002
    vertex 3.5355339059327373 3.5355339059327373 0.0
    vertex 3.5355339059327373 3.5355339059327373 10.250000000000002
  endloop
endfacet
facet normal 0.3826834323650899 0.9238795325112867 0.0
  outer loop
    vertex 1.2940952255126046 4.8296291314453415 10.250000000000002
    vertex 2.5000000000000004 4.330127018922193 0.0
    vertex 1.2940952255126046 4.8296291314453415 0.0
  endloop
endfacet
facet normal 0.3826834323650899 0.9238795325112867 0.0
  outer loop
    vertex 2.5000000000000004 4.330127018922193 0.0
    vertex 1.2940952255126046 4.8296291314453415 10.250000000000002
    vertex 2.5000000000000004 4.330127018922193 10.250000000000002
  endloop
endfacet
facet normal 0.6087614290087204 0.7933533402912353 0.0
  outer loop
    vertex 2.5000000000000004 4.330127018922193 10.250000000000002
    vertex 3.5355339059327373 3.5355339059327373 0.0
    vertex 2.5000000000000004 4.330127018922193 0.0
  endloop
endfacet
facet normal 0.6087614290087204 0.7933533402912353 0.0
  outer loop
    vertex 3.5355339059327373 3.5355339059327373 0.0
    vertex 2.5000000000000004 4.330127018922193 10.250000000000002
    vertex 3.5355339059327373 3.5355339059327373 10.250000000000002
  endloop
endfacet
facet normal -0.9238795325112871 -0.3826834323650891 -0.0
  outer loop
    vertex -4.829629131445342 -1.294095225512602 10.250000000000002
    vertex -4.3301270189221945 -2.4999999999999987 0.0
    vertex -4.3301270189221945 -2.4999999999999987 10.250000000000002
  endloop
endfacet
facet normal -0.9238795325112871 -0.3826834323650891 -0.0
  outer loop
    vertex -4.3301270189221945 -2.4999999999999987 0.0
    vertex -4.829629131445342 -1.294095225512602 10.250000000000002
    vertex -4.829629131445342 -1.294095225512602 0.0
  endloop
endfacet
facet normal -0.9914448613738105 0.13052619222005168 0.0
  outer loop
    vertex -4.8296291314453415 1.2940952255126046 10.250000000000002
    vertex -5.0 7.049916206369744e-16 0.0
    vertex -5.0 7.049916206369744e-16 10.250000000000002
  endloop
endfacet
facet normal -0.9914448613738105 0.13052619222005168 0.0
  outer loop
    vertex -5.0 7.049916206369744e-16 0.0
    vertex -4.8296291314453415 1.2940952255126046 10.250000000000002
    vertex -4.8296291314453415 1.2940952255126046 0.0
  endloop
endfacet
facet normal 0.38268343236508917 -0.9238795325112872 0.0
  outer loop
    vertex 2.4999999999999973 -4.330127018922195 10.250000000000002
    vertex 1.294095225512602 -4.829629131445342 0.0
    vertex 2.4999999999999973 -4.330127018922195 0.0
  endloop
endfacet
facet normal 0.38268343236508917 -0.9238795325112872 0.0
  outer loop
    vertex 1.294095225512602 -4.829629131445342 0.0
    vertex 2.4999999999999973 -4.330127018922195 10.250000000000002
    vertex 1.294095225512602 -4.829629131445342 10.250000000000002
  endloop
endfacet
facet normal -0.9914448613738105 -0.13052619222005138 -0.0
  outer loop
    vertex -5.0 7.049916206369744e-16 10.250000000000002
    vertex -4.829629131445342 -1.294095225512602 0.0
    vertex -4.829629131445342 -1.294095225512602 10.250000000000002
  endloop
endfacet
facet normal -0.9914448613738105 -0.13052619222005138 -0.0
  outer loop
    vertex -4.829629131445342 -1.294095225512602 0.0
    vertex -5.0 7.049916206369744e-16 10.250000000000002
    vertex -5.0 7.049916206369744e-16 0.0
  endloop
endfacet
facet normal -0.7933533402912353 -0.6087614290087204 -0.0
  outer loop
    vertex -4.3301270189221945 -2.4999999999999987 10.250000000000002
    vertex -3.5355339059327395 -3.535533905932736 0.0
    vertex -3.5355339059327395 -3.535533905932736 10.250000000000002
  endloop
endfacet
facet normal -0.7933533402912353 -0.6087614290087204 -0.0
  outer loop
    vertex -3.5355339059327395 -3.535533905932736 0.0
    vertex -4.3301270189221945 -2.4999999999999987 10.250000000000002
    vertex -4.3301270189221945 -2.4999999999999987 0.0
  endloop
endfacet
facet normal 0.7933533402912352 -0.6087614290087208 0.0
  outer loop
    vertex 4.330127018922193 -2.500000000000002 0.0
    vertex 3.5355339059327373 -3.5355339059327386 10.250000000000002
    vertex 3.5355339059327373 -3.5355339059327386 0.0
  endloop
endfacet
facet normal 0.7933533402912352 -0.6087614290087208 0.0
  outer loop
    vertex 3.5355339059327373 -3.5355339059327386 10.250000000000002
    vertex 4.330127018922193 -2.500000000000002 0.0
    vertex 4.330127018922193 -2.500000000000002 10.250000000000002
  endloop
endfacet
facet normal -0.382683432365089 0.9238795325112871 0.0
  outer loop
    vertex 0.41411047216403263 -1.5454813220625094 10.250000000000002
    vertex 0.7999999999999993 -1.3856406460551023 0.0
    vertex 0.41411047216403263 -1.5454813220625094 0.0
  endloop
endfacet
facet normal -0.382683432365089 0.9238795325112871 0.0
  outer loop
    vertex 0.7999999999999993 -1.3856406460551023 0.0
    vertex 0.41411047216403263 -1.5454813220625094 10.250000000000002
    vertex 0.7999999999999993 -1.3856406460551023 10.250000000000002
  endloop
endfacet
facet normal -0.6087614290087205 0.7933533402912354 0.0
  outer loop
    vertex 0.7999999999999993 -1.3856406460551023 10.250000000000002
    vertex 1.1313708498984756 -1.1313708498984762 0.0
    vertex 0.7999999999999993 -1.3856406460551023 0.0
  endloop
endfacet
facet normal -0.6087614290087205 0.7933533402912354 0.0
  outer loop
    vertex 1.1313708498984756 -1.1313708498984762 0.0
    vertex 0.7999999999999993 -1.3856406460551023 10.250000000000002
    vertex 1.1313708498984756 -1.1313708498984762 10.250000000000002
  endloop
endfacet
facet normal -0.3826834323650894 0.923879532511287 0.0
  outer loop
    vertex -2.499999999999999 4.330127018922194 10.250000000000002
    vertex -1.2940952255126033 4.8296291314453415 0.0
    vertex -2.499999999999999 4.330127018922194 0.0
  endloop
endfacet
facet normal -0.3826834323650894 0.923879532511287 0.0
  outer loop
    vertex -1.2940952255126033 4.8296291314453415 0.0
    vertex -2.499999999999999 4.330127018922194 10.250000000000002
    vertex -1.2940952255126033 4.8296291314453415 10.250000000000002
  endloop
endfacet
facet normal -0.6087614290087204 0.7933533402912353 0.0
  outer loop
    vertex -3.5355339059327373 3.5355339059327373 10.250000000000002
    vertex -2.499999999999999 4.330127018922194 0.0
    vertex -3.5355339059327373 3.5355339059327373 0.0
  endloop
endfacet
facet normal -0.6087614290087204 0.7933533402912353 0.0
  outer loop
    vertex -2.499999999999999 4.330127018922194 0.0
    vertex -3.5355339059327373 3.5355339059327373 10.250000000000002
    vertex -2.499999999999999 4.330127018922194 10.250000000000002
  endloop
endfacet
facet normal 0.38268343236508956 -0.9238795325112867 0.0
  outer loop
    vertex -0.41411047216403263 1.5454813220625094 10.250000000000002
    vertex -0.7999999999999993 1.3856406460551023 0.0
    vertex -0.41411047216403263 1.5454813220625094 0.0
  endloop
endfacet
facet normal 0.38268343236508956 -0.9238795325112867 0.0
  outer loop
    vertex -0.7999999999999993 1.3856406460551023 0.0
    vertex -0.41411047216403263 1.5454813220625094 10.250000000000002
    vertex -0.7999999999999993 1.3856406460551023 10.250000000000002
  endloop
endfacet
facet normal -0.13052619222005132 0.9914448613738104 0.0
  outer loop
    vertex 0.0 -1.5999999999999999 10.250000000000002
    vertex 0.41411047216403263 -1.5454813220625094 0.0
    vertex 0.0 -1.5999999999999999 0.0
  endloop
endfacet
facet normal -0.13052619222005132 0.9914448613738104 0.0
  outer loop
    vertex 0.41411047216403263 -1.5454813220625094 0.0
    vertex 0.0 -1.5999999999999999 10.250000000000002
    vertex 0.41411047216403263 -1.5454813220625094 10.250000000000002
  endloop
endfacet
facet normal 0.7933533402912347 -0.6087614290087211 0.0
  outer loop
    vertex -1.1313708498984762 1.1313708498984762 0.0
    vertex -1.3856406460551016 0.8000000000000006 10.250000000000002
    vertex -1.3856406460551016 0.8000000000000006 0.0
  endloop
endfacet
facet normal 0.7933533402912347 -0.6087614290087211 0.0
  outer loop
    vertex -1.3856406460551016 0.8000000000000006 10.250000000000002
    vertex -1.1313708498984762 1.1313708498984762 0.0
    vertex -1.1313708498984762 1.1313708498984762 10.250000000000002
  endloop
endfacet
facet normal 0.9914448613738104 -0.13052619222005193 0.0
  outer loop
    vertex -1.5454813220625088 0.41411047216403335 0.0
    vertex -1.5999999999999999 0.0 10.250000000000002
    vertex -1.5999999999999999 0.0 0.0
  endloop
endfacet
facet normal 0.9914448613738104 -0.13052619222005193 0.0
  outer loop
    vertex -1.5999999999999999 0.0 10.250000000000002
    vertex -1.5454813220625088 0.41411047216403335 0.0
    vertex -1.5454813220625088 0.41411047216403335 10.250000000000002
  endloop
endfacet
facet normal 0.7933533402912355 0.6087614290087204 0.0
  outer loop
    vertex -1.3856406460551023 -0.7999999999999993 0.0
    vertex -1.1313708498984762 -1.1313708498984756 10.250000000000002
    vertex -1.1313708498984762 -1.1313708498984756 0.0
  endloop
endfacet
facet normal 0.7933533402912355 0.6087614290087204 0.0
  outer loop
    vertex -1.1313708498984762 -1.1313708498984756 10.250000000000002
    vertex -1.3856406460551023 -0.7999999999999993 0.0
    vertex -1.3856406460551023 -0.7999999999999993 10.250000000000002
  endloop
endfacet
facet normal 0.38268343236508984 0.9238795325112866 0.0
  outer loop
    vertex -0.8000000000000006 -1.3856406460551016 10.250000000000002
    vertex -0.414110472164034 -1.5454813220625088 0.0
    vertex -0.8000000000000006 -1.3856406460551016 0.0
  endloop
endfacet
facet normal 0.38268343236508984 0.9238795325112866 0.0
  outer loop
    vertex -0.414110472164034 -1.5454813220625088 0.0
    vertex -0.8000000000000006 -1.3856406460551016 10.250000000000002
    vertex -0.414110472164034 -1.5454813220625088 10.250000000000002
  endloop
endfacet
facet normal 0.6087614290087215 0.7933533402912346 0.0
  outer loop
    vertex -1.1313708498984762 -1.1313708498984756 10.250000000000002
    vertex -0.8000000000000006 -1.3856406460551016 0.0
    vertex -1.1313708498984762 -1.1313708498984756 0.0
  endloop
endfacet
facet normal 0.6087614290087215 0.7933533402912346 0.0
  outer loop
    vertex -0.8000000000000006 -1.3856406460551016 0.0
    vertex -1.1313708498984762 -1.1313708498984756 10.250000000000002
    vertex -0.8000000000000006 -1.3856406460551016 10.250000000000002
  endloop
endfacet
facet normal 0.9238795325112867 -0.38268343236508967 0.0
  outer loop
    vertex -1.3856406460551016 0.8000000000000006 0.0
    vertex -1.5454813220625088 0.41411047216403335 10.250000000000002
    vertex -1.5454813220625088 0.41411047216403335 0.0
  endloop
endfacet
facet normal 0.9238795325112867 -0.38268343236508967 0.0
  outer loop
    vertex -1.5454813220625088 0.41411047216403335 10.250000000000002
    vertex -1.3856406460551016 0.8000000000000006 0.0
    vertex -1.3856406460551016 0.8000000000000006 10.250000000000002
  endloop
endfacet
facet normal 0.923879532511287 0.38268343236508934 0.0
  outer loop
    vertex -1.5454813220625094 -0.41411047216403263 0.0
    vertex -1.3856406460551023 -0.7999999999999993 10.250000000000002
    vertex -1.3856406460551023 -0.7999999999999993 0.0
  endloop
endfacet
facet normal 0.923879532511287 0.38268343236508934 0.0
  outer loop
    vertex -1.3856406460551023 -0.7999999999999993 10.250000000000002
    vertex -1.5454813220625094 -0.41411047216403263 0.0
    vertex -1.5454813220625094 -0.41411047216403263 10.250000000000002
  endloop
endfacet
facet normal -0.6087614290087207 -0.7933533402912352 -0.0
  outer loop
    vertex 1.1313708498984762 1.1313708498984762 10.250000000000002
    vertex 0.7999999999999999 1.3856406460551023 0.0
    vertex 1.1313708498984762 1.1313708498984762 0.0
  endloop
endfacet
facet normal -0.6087614290087207 -0.7933533402912352 -0.0
  outer loop
    vertex 0.7999999999999999 1.3856406460551023 0.0
    vertex 1.1313708498984762 1.1313708498984762 10.250000000000002
    vertex 0.7999999999999999 1.3856406460551023 10.250000000000002
  endloop
endfacet
facet normal -0.38268343236508956 -0.9238795325112867 -0.0
  outer loop
    vertex 0.7999999999999999 1.3856406460551023 10.250000000000002
    vertex 0.41411047216403335 1.5454813220625094 0.0
    vertex 0.7999999999999999 1.3856406460551023 0.0
  endloop
endfacet
facet normal -0.38268343236508956 -0.9238795325112867 -0.0
  outer loop
    vertex 0.41411047216403335 1.5454813220625094 0.0
    vertex 0.7999999999999999 1.3856406460551023 10.250000000000002
    vertex 0.41411047216403335 1.5454813220625094 10.250000000000002
  endloop
endfacet
facet normal -0.13052619222005193 -0.9914448613738104 -0.0
  outer loop
    vertex 0.41411047216403335 1.5454813220625094 10.250000000000002
    vertex 0.0 1.5999999999999992 0.0
    vertex 0.41411047216403335 1.5454813220625094 0.0
  endloop
endfacet
facet normal -0.13052619222005193 -0.9914448613738104 -0.0
  outer loop
    vertex 0.0 1.5999999999999992 0.0
    vertex 0.41411047216403335 1.5454813220625094 10.250000000000002
    vertex 0.0 1.5999999999999992 10.250000000000002
  endloop
endfacet
facet normal 0.9914448613738104 0.13052619222005132 0.0
  outer loop
    vertex -1.5999999999999999 0.0 0.0
    vertex -1.5454813220625094 -0.41411047216403263 10.250000000000002
    vertex -1.5454813220625094 -0.41411047216403263 0.0
  endloop
endfacet
facet normal 0.9914448613738104 0.13052619222005132 0.0
  outer loop
    vertex -1.5454813220625094 -0.41411047216403263 10.250000000000002
    vertex -1.5999999999999999 0.0 0.0
    vertex -1.5999999999999999 0.0 10.250000000000002
  endloop
endfacet
facet normal 0.13052619222005213 0.9914448613738104 0.0
  outer loop
    vertex -0.414110472164034 -1.5454813220625088 10.250000000000002
    vertex 0.0 -1.5999999999999999 0.0
    vertex -0.414110472164034 -1.5454813220625088 0.0
  endloop
endfacet
facet normal 0.13052619222005213 0.9914448613738104 0.0
  outer loop
    vertex 0.0 -1.5999999999999999 0.0
    vertex -0.414110472164034 -1.5454813220625088 10.250000000000002
    vertex 0.0 -1.5999999999999999 10.250000000000002
  endloop
endfacet
facet normal 0.13052619222005163 -0.9914448613738105 0.0
  outer loop
    vertex 0.0 1.5999999999999992 10.250000000000002
    vertex -0.41411047216403263 1.5454813220625094 0.0
    vertex 0.0 1.5999999999999992 0.0
  endloop
endfacet
facet normal 0.13052619222005163 -0.9914448613738105 0.0
  outer loop
    vertex -0.41411047216403263 1.5454813220625094 0.0
    vertex 0.0 1.5999999999999992 10.250000000000002
    vertex -0.41411047216403263 1.5454813220625094 10.250000000000002
  endloop
endfacet
facet normal 0.6087614290087205 -0.7933533402912353 0.0
  outer loop
    vertex -0.7999999999999993 1.3856406460551023 10.250000000000002
    vertex -1.1313708498984762 1.1313708498984762 0.0
    vertex -0.7999999999999993 1.3856406460551023 0.0
  endloop
endfacet
facet normal 0.6087614290087205 -0.7933533402912353 0.0
  outer loop
    vertex -1.1313708498984762 1.1313708498984762 0.0
    vertex -0.7999999999999993 1.3856406460551023 10.250000000000002
    vertex -1.1313708498984762 1.1313708498984762 10.250000000000002
  endloop
endfacet
facet normal -0.7933533402912353 -0.6087614290087205 -0.0
  outer loop
    vertex 1.1313708498984762 1.1313708498984762 10.250000000000002
    vertex 1.3856406460551023 0.7999999999999999 0.0
    vertex 1.3856406460551023 0.7999999999999999 10.250000000000002
  endloop
endfacet
facet normal -0.7933533402912353 -0.6087614290087205 -0.0
  outer loop
    vertex 1.3856406460551023 0.7999999999999999 0.0
    vertex 1.1313708498984762 1.1313708498984762 10.250000000000002
    vertex 1.1313708498984762 1.1313708498984762 0.0
  endloop
endfacet
facet normal -0.9238795325112867 -0.38268343236508956 -0.0
  outer loop
    vertex 1.3856406460551023 0.7999999999999999 10.250000000000002
    vertex 1.5454813220625094 0.41411047216403335 0.0
    vertex 1.5454813220625094 0.41411047216403335 10.250000000000002
  endloop
endfacet
facet normal -0.9238795325112867 -0.38268343236508956 -0.0
  outer loop
    vertex 1.5454813220625094 0.41411047216403335 0.0
    vertex 1.3856406460551023 0.7999999999999999 10.250000000000002
    vertex 1.3856406460551023 0.7999999999999999 0.0
  endloop
endfacet
endsolid carter wheel spacer cylinders 3.3
