solid carter wheel spacer cylinders 3.3
facet normal -0.9914448613738104 -0.1305261922200516 -0.0
  outer loop
    vertex 17.89989532206251 0.41411047216403335 6.750000000000002
    vertex 17.954413999999996 0.0 0.0
    vertex 17.954413999999996 0.0 6.750000000000002
  endloop
endfacet
facet normal -0.9914448613738104 -0.1305261922200516 -0.0
  outer loop
    vertex 17.954413999999996 0.0 0.0
    vertex 17.89989532206251 0.41411047216403335 6.750000000000002
    vertex 17.89989532206251 0.41411047216403335 0.0
  endloop
endfacet
facet normal 0.0 0.0 1.0
  outer loop
    vertex 11.524784868554658 -1.294095225512602 6.750000000000002
    vertex 11.524784868554658 1.2940952255126046 6.750000000000002
    vertex 11.354413999999998 7.049916206369744e-16 6.750000000000002
  endloop
endfacet
facet normal 0.0 0.0 1.0
  outer loop
    vertex 11.524784868554658 1.2940952255126046 6.750000000000002
    vertex 11.524784868554658 -1.294095225512602 6.750000000000002
    vertex 12.024286981077804 -2.4999999999999987 6.750000000000002
  endloop
endfacet
facet normal 0.0 0.0 1.0
  outer loop
    vertex 11.524784868554658 1.2940952255126046 6.750000000000002
    vertex 12.024286981077804 -2.4999999999999987 6.750000000000002
    vertex 12.024286981077806 2.5000000000000018 6.750000000000002
  endloop
endfacet
facet normal 0.0 0.0 1.0
  outer loop
    vertex 12.024286981077806 2.5000000000000018 6.750000000000002
    vertex 12.024286981077804 -2.4999999999999987 6.750000000000002
    vertex 12.818880094067259 -3.535533905932736 6.750000000000002
  endloop
endfacet
facet normal 0.0 0.0 1.0
  outer loop
    vertex 12.024286981077806 2.5000000000000018 6.750000000000002
    vertex 12.818880094067259 -3.535533905932736 6.750000000000002
    vertex 12.818880094067259 3.5355339059327373 6.750000000000002
  endloop
endfacet
facet normal 0.0 0.0 1.0
  outer loop
    vertex 12.818880094067259 3.5355339059327373 6.750000000000002
    vertex 12.818880094067259 -3.535533905932736 6.750000000000002
    vertex 13.854413999999997 -4.330127018922193 6.750000000000002
  endloop
endfacet
facet normal 0.0 0.0 1.0
  outer loop
    vertex 12.818880094067259 3.5355339059327373 6.750000000000002
    vertex 13.854413999999997 -4.330127018922193 6.750000000000002
    vertex 13.854414 4.330127018922194 6.750000000000002
  endloop
endfacet
facet normal 0.0 0.0 1.0
  outer loop
    vertex 13.854414 4.330127018922194 6.750000000000002
    vertex 13.854413999999997 -4.330127018922193 6.750000000000002
    vertex 15.060318774487392 -4.829629131445341 6.750000000000002
  endloop
endfacet
facet normal 0.0 0.0 1.0
  outer loop
    vertex 13.854414 4.330127018922194 6.750000000000002
    vertex 15.060318774487392 -4.829629131445341 6.750000000000002
    vertex 14.754413999999997 0.0 6.750000000000002
  endloop
endfacet
facet normal 0.0 0.0 1.0
  outer loop
    vertex 14.754413999999997 0.0 6.750000000000002
    vertex 15.060318774487392 -4.829629131445341 6.750000000000002
    vertex 14.808932677937488 -0.41411047216403263 6.750000000000002
  endloop
endfacet
facet normal 0.0 0.0 1.0
  outer loop
    vertex 14.808932677937488 -0.41411047216403263 6.750000000000002
    vertex 15.060318774487392 -4.829629131445341 6.750000000000002
    vertex 14.968773353944897 -0.7999999999999993 6.750000000000002
  endloop
endfacet
facet normal 0.0 0.0 1.0
  outer loop
    vertex 14.968773353944897 -0.7999999999999993 6.750000000000002
    vertex 15.060318774487392 -4.829629131445341 6.750000000000002
    vertex 15.223043150101523 -1.1313708498984756 6.750000000000002
  endloop
endfacet
facet normal 0.0 0.0 1.0
  outer loop
    vertex 15.223043150101523 -1.1313708498984756 6.750000000000002
    vertex 15.060318774487392 -4.829629131445341 6.750000000000002
    vertex 16.354414 -5.0 6.750000000000002
  endloop
endfacet
facet normal 0.0 0.0 1.0
  outer loop
    vertex 15.223043150101523 -1.1313708498984756 6.750000000000002
    vertex 16.354414 -5.0 6.750000000000002
    vertex 15.554413999999996 -1.3856406460551016 6.750000000000002
  endloop
endfacet
facet normal 0.0 0.0 1.0
  outer loop
    vertex 15.554413999999996 -1.3856406460551016 6.750000000000002
    vertex 16.354414 -5.0 6.750000000000002
    vertex 15.940303527835963 -1.5454813220625088 6.750000000000002
  endloop
endfacet
facet normal 0.0 0.0 1.0
  outer loop
    vertex 15.940303527835963 -1.5454813220625088 6.750000000000002
    vertex 16.354414 -5.0 6.750000000000002
    vertex 16.354414 -1.5999999999999999 6.750000000000002
  endloop
endfacet
facet normal 0.0 0.0 1.0
  outer loop
    vertex 16.354414 -1.5999999999999999 6.750000000000002
    vertex 16.354414 -5.0 6.750000000000002
    vertex 17.6485092255126 -4.829629131445342 6.750000000000002
  endloop
endfacet
facet normal 0.0 0.0 1.0
  outer loop
    vertex 16.354414 -1.5999999999999999 6.750000000000002
    vertex 17.6485092255126 -4.829629131445342 6.750000000000002
    vertex 16.76852447216403 -1.5454813220625094 6.750000000000002
  endloop
endfacet
facet normal 0.0 0.0 1.0
  outer loop
    vertex 16.76852447216403 -1.5454813220625094 6.750000000000002
    vertex 17.6485092255126 -4.829629131445342 6.750000000000002
    vertex 17.154414 -1.3856406460551023 6.750000000000002
  endloop
endfacet
facet normal 0.0 0.0 1.0
  outer loop
    vertex 17.154414 -1.3856406460551023 6.750000000000002
    vertex 17.6485092255126 -4.829629131445342 6.750000000000002
    vertex 17.485784849898472 -1.1313708498984762 6.750000000000002
  endloop
endfacet
facet normal 0.0 0.0 1.0
  outer loop
    vertex 17.485784849898472 -1.1313708498984762 6.750000000000002
    vertex 17.6485092255126 -4.829629131445342 6.750000000000002
    vertex 17.7400546460551 -0.8000000000000006 6.750000000000002
  endloop
endfacet
facet normal 0.0 0.0 1.0
  outer loop
    vertex 17.7400546460551 -0.8000000000000006 6.750000000000002
    vertex 17.6485092255126 -4.829629131445342 6.750000000000002
    vertex 18.854413999999995 -4.330127018922195 6.750000000000002
  endloop
endfacet
facet normal 0.0 0.0 1.0
  outer loop
    vertex 17.7400546460551 -0.8000000000000006 6.750000000000002
    vertex 18.854413999999995 -4.330127018922195 6.750000000000002
    vertex 17.89989532206251 -0.41411047216403474 6.750000000000002
  endloop
endfacet
facet normal 0.0 0.0 1.0
  outer loop
    vertex 17.89989532206251 -0.41411047216403474 6.750000000000002
    vertex 18.854413999999995 -4.330127018922195 6.750000000000002
    vertex 17.954413999999996 0.0 6.750000000000002
  endloop
endfacet
facet normal 0.0 0.0 1.0
  outer loop
    vertex 14.754413999999997 0.0 6.750000000000002
    vertex 15.060318774487396 4.8296291314453415 6.750000000000002
    vertex 13.854414 4.330127018922194 6.750000000000002
  endloop
endfacet
facet normal 0.0 0.0 1.0
  outer loop
    vertex 15.060318774487396 4.8296291314453415 6.750000000000002
    vertex 14.754413999999997 0.0 6.750000000000002
    vertex 14.80893267793749 0.41411047216403335 6.750000000000002
  endloop
endfacet
facet normal 0.0 0.0 1.0
  outer loop
    vertex 15.060318774487396 4.8296291314453415 6.750000000000002
    vertex 14.80893267793749 0.41411047216403335 6.750000000000002
    vertex 14.968773353944897 0.8000000000000006 6.750000000000002
  endloop
endfacet
facet normal 0.0 0.0 1.0
  outer loop
    vertex 15.060318774487396 4.8296291314453415 6.750000000000002
    vertex 14.968773353944897 0.8000000000000006 6.750000000000002
    vertex 15.223043150101523 1.1313708498984762 6.750000000000002
  endloop
endfacet
facet normal 0.0 0.0 1.0
  outer loop
    vertex 15.060318774487396 4.8296291314453415 6.750000000000002
    vertex 15.223043150101523 1.1313708498984762 6.750000000000002
    vertex 16.354414 5.0 6.750000000000002
  endloop
endfacet
facet normal 0.0 0.0 1.0
  outer loop
    vertex 16.354414 5.0 6.750000000000002
    vertex 15.223043150101523 1.1313708498984762 6.750000000000002
    vertex 15.554414 1.3856406460551023 6.750000000000002
  endloop
endfacet
facet normal 0.0 0.0 1.0
  outer loop
    vertex 16.354414 5.0 6.750000000000002
    vertex 15.554414 1.3856406460551023 6.750000000000002
    vertex 15.940303527835965 1.5454813220625094 6.750000000000002
  endloop
endfacet
facet normal 0.0 0.0 1.0
  outer loop
    vertex 16.354414 5.0 6.750000000000002
    vertex 15.940303527835965 1.5454813220625094 6.750000000000002
    vertex 16.354414 1.5999999999999992 6.750000000000002
  endloop
endfacet
facet normal 0.0 0.0 1.0
  outer loop
    vertex 16.354414 5.0 6.750000000000002
    vertex 16.354414 1.5999999999999992 6.750000000000002
    vertex 16.76852447216403 1.5454813220625094 6.750000000000002
  endloop
endfacet
facet normal 0.0 0.0 1.0
  outer loop
    vertex 16.354414 5.0 6.750000000000002
    vertex 16.76852447216403 1.5454813220625094 6.750000000000002
    vertex 17.648509225512605 4.8296291314453415 6.750000000000002
  endloop
endfacet
facet normal 0.0 0.0 1.0
  outer loop
    vertex 17.648509225512605 4.8296291314453415 6.750000000000002
    vertex 16.76852447216403 1.5454813220625094 6.750000000000002
    vertex 17.154414 1.3856406460551023 6.750000000000002
  endloop
endfacet
facet normal 0.0 0.0 1.0
  outer loop
    vertex 17.648509225512605 4.8296291314453415 6.750000000000002
    vertex 17.154414 1.3856406460551023 6.750000000000002
    vertex 17.485784849898476 1.1313708498984762 6.750000000000002
  endloop
endfacet
facet normal 0.0 0.0 1.0
  outer loop
    vertex 17.648509225512605 4.8296291314453415 6.750000000000002
    vertex 17.485784849898476 1.1313708498984762 6.750000000000002
    vertex 17.740054646055103 0.7999999999999999 6.750000000000002
  endloop
endfacet
facet normal 0.0 0.0 1.0
  outer loop
    vertex 17.648509225512605 4.8296291314453415 6.750000000000002
    vertex 17.740054646055103 0.7999999999999999 6.750000000000002
    vertex 18.854414 4.330127018922193 6.750000000000002
  endloop
endfacet
facet normal 0.0 0.0 1.0
  outer loop
    vertex 18.854414 4.330127018922193 6.750000000000002
    vertex 17.740054646055103 0.7999999999999999 6.750000000000002
    vertex 17.89989532206251 0.41411047216403335 6.750000000000002
  endloop
endfacet
facet normal 0.0 0.0 1.0
  outer loop
    vertex 18.854414 4.330127018922193 6.750000000000002
    vertex 17.89989532206251 0.41411047216403335 6.750000000000002
    vertex 17.954413999999996 0.0 6.750000000000002
  endloop
endfacet
facet normal 0.0 0.0 1.0
  outer loop
    vertex 18.854414 4.330127018922193 6.750000000000002
    vertex 17.954413999999996 0.0 6.750000000000002
    vertex 18.854413999999995 -4.330127018922195 6.750000000000002
  endloop
endfacet
facet normal 0.0 0.0 1.0
  outer loop
    vertex 18.854414 4.330127018922193 6.750000000000002
    vertex 18.854413999999995 -4.330127018922195 6.750000000000002
    vertex 19.889947905932736 -3.5355339059327386 6.750000000000002
  endloop
endfacet
facet normal 0.0 0.0 1.0
  outer loop
    vertex 18.854414 4.330127018922193 6.750000000000002
    vertex 19.889947905932736 -3.5355339059327386 6.750000000000002
    vertex 19.889947905932736 3.5355339059327373 6.750000000000002
  endloop
endfacet
facet normal 0.0 0.0 1.0
  outer loop
    vertex 19.889947905932736 3.5355339059327373 6.750000000000002
    vertex 19.889947905932736 -3.5355339059327386 6.750000000000002
    vertex 20.68454101892219 -2.500000000000002 6.750000000000002
  endloop
endfacet
facet normal 0.0 0.0 1.0
  outer loop
    vertex 19.889947905932736 3.5355339059327373 6.750000000000002
    vertex 20.68454101892219 -2.500000000000002 6.750000000000002
    vertex 20.68454101892219 2.5000000000000004 6.750000000000002
  endloop
endfacet
facet normal 0.0 0.0 1.0
  outer loop
    vertex 20.68454101892219 2.5000000000000004 6.750000000000002
    vertex 20.68454101892219 -2.500000000000002 6.750000000000002
    vertex 21.18404313144534 -1.2940952255126075 6.750000000000002
  endloop
endfacet
facet normal 0.0 0.0 1.0
  outer loop
    vertex 20.68454101892219 2.5000000000000004 6.750000000000002
    vertex 21.18404313144534 -1.2940952255126075 6.750000000000002
    vertex 21.18404313144534 1.2940952255126033 6.750000000000002
  endloop
endfacet
facet normal 0.0 0.0 1.0
  outer loop
    vertex 21.18404313144534 1.2940952255126033 6.750000000000002
    vertex 21.18404313144534 -1.2940952255126075 6.750000000000002
    vertex 21.354414 0.0 6.750000000000002
  endloop
endfacet
facet normal 0.0 0.0 -1.0
  outer loop
    vertex 15.060318774487396 4.8296291314453415 0.0
    vertex 14.754413999999997 0.0 0.0
    vertex 13.854414 4.330127018922194 0.0
  endloop
endfacet
facet normal 0.0 0.0 -1.0
  outer loop
    vertex 14.754413999999997 0.0 0.0
    vertex 15.060318774487396 4.8296291314453415 0.0
    vertex 14.80893267793749 0.41411047216403335 0.0
  endloop
endfacet
facet normal 0.0 0.0 -1.0
  outer loop
    vertex 14.80893267793749 0.41411047216403335 0.0
    vertex 15.060318774487396 4.8296291314453415 0.0
    vertex 14.968773353944897 0.8000000000000006 0.0
  endloop
endfacet
facet normal 0.0 0.0 -1.0
  outer loop
    vertex 14.968773353944897 0.8000000000000006 0.0
    vertex 15.060318774487396 4.8296291314453415 0.0
    vertex 15.223043150101523 1.1313708498984762 0.0
  endloop
endfacet
facet normal 0.0 0.0 -1.0
  outer loop
    vertex 15.223043150101523 1.1313708498984762 0.0
    vertex 15.060318774487396 4.8296291314453415 0.0
    vertex 16.354414 5.0 0.0
  endloop
endfacet
facet normal 0.0 0.0 -1.0
  outer loop
    vertex 15.223043150101523 1.1313708498984762 0.0
    vertex 16.354414 5.0 0.0
    vertex 15.554414 1.3856406460551023 0.0
  endloop
endfacet
facet normal 0.0 0.0 -1.0
  outer loop
    vertex 15.554414 1.3856406460551023 0.0
    vertex 16.354414 5.0 0.0
    vertex 15.940303527835965 1.5454813220625094 0.0
  endloop
endfacet
facet normal 0.0 0.0 -1.0
  outer loop
    vertex 15.940303527835965 1.5454813220625094 0.0
    vertex 16.354414 5.0 0.0
    vertex 16.354414 1.5999999999999992 0.0
  endloop
endfacet
facet normal 0.0 0.0 -1.0
  outer loop
    vertex 16.354414 1.5999999999999992 0.0
    vertex 16.354414 5.0 0.0
    vertex 17.648509225512605 4.8296291314453415 0.0
  endloop
endfacet
facet normal 0.0 0.0 -1.0
  outer loop
    vertex 16.354414 1.5999999999999992 0.0
    vertex 17.648509225512605 4.8296291314453415 0.0
    vertex 16.76852447216403 1.5454813220625094 0.0
  endloop
endfacet
facet normal 0.0 0.0 -1.0
  outer loop
    vertex 16.76852447216403 1.5454813220625094 0.0
    vertex 17.648509225512605 4.8296291314453415 0.0
    vertex 17.154414 1.3856406460551023 0.0
  endloop
endfacet
facet normal 0.0 0.0 -1.0
  outer loop
    vertex 17.154414 1.3856406460551023 0.0
    vertex 17.648509225512605 4.8296291314453415 0.0
    vertex 17.485784849898476 1.1313708498984762 0.0
  endloop
endfacet
facet normal 0.0 0.0 -1.0
  outer loop
    vertex 17.485784849898476 1.1313708498984762 0.0
    vertex 17.648509225512605 4.8296291314453415 0.0
    vertex 17.740054646055103 0.7999999999999999 0.0
  endloop
endfacet
facet normal 0.0 0.0 -1.0
  outer loop
    vertex 17.740054646055103 0.7999999999999999 0.0
    vertex 17.648509225512605 4.8296291314453415 0.0
    vertex 18.854414 4.330127018922193 0.0
  endloop
endfacet
facet normal 0.0 0.0 -1.0
  outer loop
    vertex 17.740054646055103 0.7999999999999999 0.0
    vertex 18.854414 4.330127018922193 0.0
    vertex 17.89989532206251 0.41411047216403335 0.0
  endloop
endfacet
facet normal 0.0 0.0 -1.0
  outer loop
    vertex 17.89989532206251 0.41411047216403335 0.0
    vertex 18.854414 4.330127018922193 0.0
    vertex 17.954413999999996 0.0 0.0
  endloop
endfacet
facet normal 0.0 0.0 -1.0
  outer loop
    vertex 17.954413999999996 0.0 0.0
    vertex 18.854414 4.330127018922193 0.0
    vertex 18.854413999999995 -4.330127018922195 0.0
  endloop
endfacet
facet normal 0.0 0.0 -1.0
  outer loop
    vertex 18.854413999999995 -4.330127018922195 0.0
    vertex 18.854414 4.330127018922193 0.0
    vertex 19.889947905932736 -3.5355339059327386 0.0
  endloop
endfacet
facet normal 0.0 0.0 -1.0
  outer loop
    vertex 19.889947905932736 -3.5355339059327386 0.0
    vertex 18.854414 4.330127018922193 0.0
    vertex 19.889947905932736 3.5355339059327373 0.0
  endloop
endfacet
facet normal 0.0 0.0 -1.0
  outer loop
    vertex 19.889947905932736 -3.5355339059327386 0.0
    vertex 19.889947905932736 3.5355339059327373 0.0
    vertex 20.68454101892219 2.5000000000000004 0.0
  endloop
endfacet
facet normal 0.0 0.0 -1.0
  outer loop
    vertex 19.889947905932736 -3.5355339059327386 0.0
    vertex 20.68454101892219 2.5000000000000004 0.0
    vertex 20.68454101892219 -2.500000000000002 0.0
  endloop
endfacet
facet normal 0.0 0.0 -1.0
  outer loop
    vertex 20.68454101892219 -2.500000000000002 0.0
    vertex 20.68454101892219 2.5000000000000004 0.0
    vertex 21.18404313144534 1.2940952255126033 0.0
  endloop
endfacet
facet normal 0.0 0.0 -1.0
  outer loop
    vertex 20.68454101892219 -2.500000000000002 0.0
    vertex 21.18404313144534 1.2940952255126033 0.0
    vertex 21.18404313144534 -1.2940952255126075 0.0
  endloop
endfacet
facet normal 0.0 0.0 -1.0
  outer loop
    vertex 21.18404313144534 -1.2940952255126075 0.0
    vertex 21.18404313144534 1.2940952255126033 0.0
    vertex 21.354414 0.0 0.0
  endloop
endfacet
facet normal 0.0 0.0 -1.0
  outer loop
    vertex 11.524784868554658 1.2940952255126046 0.0
    vertex 11.524784868554658 -1.294095225512602 0.0
    vertex 11.354413999999998 7.049916206369744e-16 0.0
  endloop
endfacet
facet normal 0.0 0.0 -1.0
  outer loop
    vertex 11.524784868554658 -1.294095225512602 0.0
    vertex 11.524784868554658 1.2940952255126046 0.0
    vertex 12.024286981077806 2.5000000000000018 0.0
  endloop
endfacet
facet normal 0.0 0.0 -1.0
  outer loop
    vertex 11.524784868554658 -1.294095225512602 0.0
    vertex 12.024286981077806 2.5000000000000018 0.0
    vertex 12.024286981077804 -2.4999999999999987 0.0
  endloop
endfacet
facet normal 0.0 0.0 -1.0
  outer loop
    vertex 12.024286981077804 -2.4999999999999987 0.0
    vertex 12.024286981077806 2.5000000000000018 0.0
    vertex 12.818880094067259 -3.535533905932736 0.0
  endloop
endfacet
facet normal 0.0 0.0 -1.0
  outer loop
    vertex 12.818880094067259 -3.535533905932736 0.0
    vertex 12.024286981077806 2.5000000000000018 0.0
    vertex 12.818880094067259 3.5355339059327373 0.0
  endloop
endfacet
facet normal 0.0 0.0 -1.0
  outer loop
    vertex 12.818880094067259 -3.535533905932736 0.0
    vertex 12.818880094067259 3.5355339059327373 0.0
    vertex 13.854414 4.330127018922194 0.0
  endloop
endfacet
facet normal 0.0 0.0 -1.0
  outer loop
    vertex 12.818880094067259 -3.535533905932736 0.0
    vertex 13.854414 4.330127018922194 0.0
    vertex 13.854413999999997 -4.330127018922193 0.0
  endloop
endfacet
facet normal 0.0 0.0 -1.0
  outer loop
    vertex 13.854413999999997 -4.330127018922193 0.0
    vertex 13.854414 4.330127018922194 0.0
    vertex 15.060318774487392 -4.829629131445341 0.0
  endloop
endfacet
facet normal 0.0 0.0 -1.0
  outer loop
    vertex 15.060318774487392 -4.829629131445341 0.0
    vertex 13.854414 4.330127018922194 0.0
    vertex 14.754413999999997 0.0 0.0
  endloop
endfacet
facet normal 0.0 0.0 -1.0
  outer loop
    vertex 15.060318774487392 -4.829629131445341 0.0
    vertex 14.754413999999997 0.0 0.0
    vertex 14.808932677937488 -0.41411047216403263 0.0
  endloop
endfacet
facet normal 0.0 0.0 -1.0
  outer loop
    vertex 15.060318774487392 -4.829629131445341 0.0
    vertex 14.808932677937488 -0.41411047216403263 0.0
    vertex 14.968773353944897 -0.7999999999999993 0.0
  endloop
endfacet
facet normal 0.0 0.0 -1.0
  outer loop
    vertex 15.060318774487392 -4.829629131445341 0.0
    vertex 14.968773353944897 -0.7999999999999993 0.0
    vertex 15.223043150101523 -1.1313708498984756 0.0
  endloop
endfacet
facet normal 0.0 0.0 -1.0
  outer loop
    vertex 15.060318774487392 -4.829629131445341 0.0
    vertex 15.223043150101523 -1.1313708498984756 0.0
    vertex 16.354414 -5.0 0.0
  endloop
endfacet
facet normal 0.0 0.0 -1.0
  outer loop
    vertex 16.354414 -5.0 0.0
    vertex 15.223043150101523 -1.1313708498984756 0.0
    vertex 15.554413999999996 -1.3856406460551016 0.0
  endloop
endfacet
facet normal 0.0 0.0 -1.0
  outer loop
    vertex 16.354414 -5.0 0.0
    vertex 15.554413999999996 -1.3856406460551016 0.0
    vertex 15.940303527835963 -1.5454813220625088 0.0
  endloop
endfacet
facet normal 0.0 0.0 -1.0
  outer loop
    vertex 16.354414 -5.0 0.0
    vertex 15.940303527835963 -1.5454813220625088 0.0
    vertex 16.354414 -1.5999999999999999 0.0
  endloop
endfacet
facet normal 0.0 0.0 -1.0
  outer loop
    vertex 16.354414 -5.0 0.0
    vertex 16.354414 -1.5999999999999999 0.0
    vertex 16.76852447216403 -1.5454813220625094 0.0
  endloop
endfacet
facet normal 0.0 0.0 -1.0
  outer loop
    vertex 16.354414 -5.0 0.0
    vertex 16.76852447216403 -1.5454813220625094 0.0
    vertex 17.6485092255126 -4.829629131445342 0.0
  endloop
endfacet
facet normal 0.0 0.0 -1.0
  outer loop
    vertex 17.6485092255126 -4.829629131445342 0.0
    vertex 16.76852447216403 -1.5454813220625094 0.0
    vertex 17.154414 -1.3856406460551023 0.0
  endloop
endfacet
facet normal 0.0 0.0 -1.0
  outer loop
    vertex 17.6485092255126 -4.829629131445342 0.0
    vertex 17.154414 -1.3856406460551023 0.0
    vertex 17.485784849898472 -1.1313708498984762 0.0
  endloop
endfacet
facet normal 0.0 0.0 -1.0
  outer loop
    vertex 17.6485092255126 -4.829629131445342 0.0
    vertex 17.485784849898472 -1.1313708498984762 0.0
    vertex 17.7400546460551 -0.8000000000000006 0.0
  endloop
endfacet
facet normal 0.0 0.0 -1.0
  outer loop
    vertex 17.6485092255126 -4.829629131445342 0.0
    vertex 17.7400546460551 -0.8000000000000006 0.0
    vertex 18.854413999999995 -4.330127018922195 0.0
  endloop
endfacet
facet normal 0.0 0.0 -1.0
  outer loop
    vertex 18.854413999999995 -4.330127018922195 0.0
    vertex 17.7400546460551 -0.8000000000000006 0.0
    vertex 17.89989532206251 -0.41411047216403474 0.0
  endloop
endfacet
facet normal 0.0 0.0 -1.0
  outer loop
    vertex 18.854413999999995 -4.330127018922195 0.0
    vertex 17.89989532206251 -0.41411047216403474 0.0
    vertex 17.954413999999996 0.0 0.0
  endloop
endfacet
facet normal -0.9238795325112871 -0.3826834323650891 -0.0
  outer loop
    vertex 11.524784868554658 -1.294095225512602 6.750000000000002
    vertex 12.024286981077804 -2.4999999999999987 0.0
    vertex 12.024286981077804 -2.4999999999999987 6.750000000000002
  endloop
endfacet
facet normal -0.9238795325112871 -0.3826834323650891 -0.0
  outer loop
    vertex 12.024286981077804 -2.4999999999999987 0.0
    vertex 11.524784868554658 -1.294095225512602 6.750000000000002
    vertex 11.524784868554658 -1.294095225512602 0.0
  endloop
endfacet
facet normal 0.6087614290087204 0.7933533402912353 0.0
  outer loop
    vertex 18.854414 4.330127018922193 6.750000000000002
    vertex 19.889947905932736 3.5355339059327373 0.0
    vertex 18.854414 4.330127018922193 0.0
  endloop
endfacet
facet normal 0.6087614290087204 0.7933533402912353 0.0
  outer loop
    vertex 19.889947905932736 3.5355339059327373 0.0
    vertex 18.854414 4.330127018922193 6.750000000000002
    vertex 19.889947905932736 3.5355339059327373 6.750000000000002
  endloop
endfacet
facet normal -0.7933533402912349 0.6087614290087212 0.0
  outer loop
    vertex 17.7400546460551 -0.8000000000000006 6.750000000000002
    vertex 17.485784849898472 -1.1313708498984762 0.0
    vertex 17.485784849898472 -1.1313708498984762 6.750000000000002
  endloop
endfacet
facet normal -0.7933533402912349 0.6087614290087212 0.0
  outer loop
    vertex 17.485784849898472 -1.1313708498984762 0.0
    vertex 17.7400546460551 -0.8000000000000006 6.750000000000002
    vertex 17.7400546460551 -0.8000000000000006 0.0
  endloop
endfacet
facet normal -0.6087614290087212 -0.7933533402912348 -0.0
  outer loop
    vertex 13.854413999999997 -4.330127018922193 6.750000000000002
    vertex 12.818880094067259 -3.535533905932736 0.0
    vertex 13.854413999999997 -4.330127018922193 0.0
  endloop
endfacet
facet normal -0.6087614290087212 -0.7933533402912348 -0.0
  outer loop
    vertex 12.818880094067259 -3.535533905932736 0.0
    vertex 13.854413999999997 -4.330127018922193 6.750000000000002
    vertex 12.818880094067259 -3.535533905932736 6.750000000000002
  endloop
endfacet
facet normal 0.9914448613738104 0.13052619222005174 0.0
  outer loop
    vertex 21.18404313144534 1.2940952255126033 0.0
    vertex 21.354414 0.0 6.750000000000002
    vertex 21.354414 0.0 0.0
  endloop
endfacet
facet normal 0.9914448613738104 0.13052619222005174 0.0
  outer loop
    vertex 21.354414 0.0 6.750000000000002
    vertex 21.18404313144534 1.2940952255126033 0.0
    vertex 21.18404313144534 1.2940952255126033 6.750000000000002
  endloop
endfacet
facet normal -0.9238795325112866 0.38268343236509006 0.0
  outer loop
    vertex 12.024286981077806 2.5000000000000018 6.750000000000002
    vertex 11.524784868554658 1.2940952255126046 0.0
    vertex 11.524784868554658 1.2940952255126046 6.750000000000002
  endloop
endfacet
facet normal -0.9238795325112866 0.38268343236509006 0.0
  outer loop
    vertex 11.524784868554658 1.2940952255126046 0.0
    vertex 12.024286981077806 2.5000000000000018 6.750000000000002
    vertex 12.024286981077806 2.5000000000000018 0.0
  endloop
endfacet
facet normal -0.130526192220052 -0.9914448613738104 -0.0
  outer loop
    vertex 16.354414 -5.0 6.750000000000002
    vertex 15.060318774487392 -4.829629131445341 0.0
    vertex 16.354414 -5.0 0.0
  endloop
endfacet
facet normal -0.130526192220052 -0.9914448613738104 -0.0
  outer loop
    vertex 15.060318774487392 -4.829629131445341 0.0
    vertex 16.354414 -5.0 6.750000000000002
    vertex 15.060318774487392 -4.829629131445341 6.750000000000002
  endloop
endfacet
facet normal -0.9238795325112866 0.38268343236509034 0.0
  outer loop
    vertex 17.89989532206251 -0.41411047216403474 6.750000000000002
    vertex 17.7400546460551 -0.8000000000000006 0.0
    vertex 17.7400546460551 -0.8000000000000006 6.750000000000002
  endloop
endfacet
facet normal -0.9238795325112866 0.38268343236509034 0.0
  outer loop
    vertex 17.7400546460551 -0.8000000000000006 0.0
    vertex 17.89989532206251 -0.41411047216403474 6.750000000000002
    vertex 17.89989532206251 -0.41411047216403474 0.0
  endloop
endfacet
facet normal -0.9914448613738105 0.13052619222005168 0.0
  outer loop
    vertex 11.524784868554658 1.2940952255126046 6.750000000000002
    vertex 11.354413999999998 7.049916206369744e-16 0.0
    vertex 11.354413999999998 7.049916206369744e-16 6.750000000000002
  endloop
endfacet
facet normal -0.9914448613738105 0.13052619222005168 0.0
  outer loop
    vertex 11.354413999999998 7.049916206369744e-16 0.0
    vertex 11.524784868554658 1.2940952255126046 6.750000000000002
    vertex 11.524784868554658 1.2940952255126046 0.0
  endloop
endfacet
facet normal 0.38268343236508917 -0.9238795325112872 0.0
  outer loop
    vertex 18.854413999999995 -4.330127018922195 6.750000000000002
    vertex 17.6485092255126 -4.829629131445342 0.0
    vertex 18.854413999999995 -4.330127018922195 0.0
  endloop
endfacet
facet normal 0.38268343236508917 -0.9238795325112872 0.0
  outer loop
    vertex 17.6485092255126 -4.829629131445342 0.0
    vertex 18.854413999999995 -4.330127018922195 6.750000000000002
    vertex 17.6485092255126 -4.829629131445342 6.750000000000002
  endloop
endfacet
facet normal 0.9914448613738105 -0.13052619222005188 0.0
  outer loop
    vertex 21.354414 0.0 0.0
    vertex 21.18404313144534 -1.2940952255126075 6.750000000000002
    vertex 21.18404313144534 -1.2940952255126075 0.0
  endloop
endfacet
facet normal 0.9914448613738105 -0.13052619222005188 0.0
  outer loop
    vertex 21.18404313144534 -1.2940952255126075 6.750000000000002
    vertex 21.354414 0.0 0.0
    vertex 21.354414 0.0 6.750000000000002
  endloop
endfacet
facet normal -0.793353340291235 0.6087614290087209 0.0
  outer loop
    vertex 12.818880094067259 3.5355339059327373 6.750000000000002
    vertex 12.024286981077806 2.5000000000000018 0.0
    vertex 12.024286981077806 2.5000000000000018 6.750000000000002
  endloop
endfacet
facet normal -0.793353340291235 0.6087614290087209 0.0
  outer loop
    vertex 12.024286981077806 2.5000000000000018 0.0
    vertex 12.818880094067259 3.5355339059327373 6.750000000000002
    vertex 12.818880094067259 3.5355339059327373 0.0
  endloop
endfacet
facet normal 0.9238795325112868 0.3826834323650893 0.0
  outer loop
    vertex 20.68454101892219 2.5000000000000004 0.0
    vertex 21.18404313144534 1.2940952255126033 6.750000000000002
    vertex 21.18404313144534 1.2940952255126033 0.0
  endloop
endfacet
facet normal 0.9238795325112868 0.3826834323650893 0.0
  outer loop
    vertex 21.18404313144534 1.2940952255126033 6.750000000000002
    vertex 20.68454101892219 2.5000000000000004 0.0
    vertex 20.68454101892219 2.5000000000000004 6.750000000000002
  endloop
endfacet
facet normal -0.9914448613738105 0.13052619222005202 0.0
  outer loop
    vertex 17.954413999999996 0.0 6.750000000000002
    vertex 17.89989532206251 -0.41411047216403474 0.0
    vertex 17.89989532206251 -0.41411047216403474 6.750000000000002
  endloop
endfacet
facet normal -0.9914448613738105 0.13052619222005202 0.0
  outer loop
    vertex 17.89989532206251 -0.41411047216403474 0.0
    vertex 17.954413999999996 0.0 6.750000000000002
    vertex 17.954413999999996 0.0 0.0
  endloop
endfacet
facet normal 0.13052619222005135 -0.9914448613738105 0.0
  outer loop
    vertex 17.6485092255126 -4.829629131445342 6.750000000000002
    vertex 16.354414 -5.0 0.0
    vertex 17.6485092255126 -4.829629131445342 0.0
  endloop
endfacet
facet normal 0.13052619222005135 -0.9914448613738105 0.0
  outer loop
    vertex 16.354414 -5.0 0.0
    vertex 17.6485092255126 -4.829629131445342 6.750000000000002
    vertex 16.354414 -5.0 6.750000000000002
  endloop
endfacet
facet normal -0.13052619222005177 0.9914448613738104 0.0
  outer loop
    vertex 15.060318774487396 4.8296291314453415 6.750000000000002
    vertex 16.354414 5.0 0.0
    vertex 15.060318774487396 4.8296291314453415 0.0
  endloop
endfacet
facet normal -0.13052619222005177 0.9914448613738104 0.0
  outer loop
    vertex 16.354414 5.0 0.0
    vertex 15.060318774487396 4.8296291314453415 6.750000000000002
    vertex 16.354414 5.0 6.750000000000002
  endloop
endfacet
facet normal 0.6087614290087203 -0.7933533402912355 0.0
  outer loop
    vertex 19.889947905932736 -3.5355339059327386 6.750000000000002
    vertex 18.854413999999995 -4.330127018922195 0.0
    vertex 19.889947905932736 -3.5355339059327386 0.0
  endloop
endfacet
facet normal 0.6087614290087203 -0.7933533402912355 0.0
  outer loop
    vertex 18.854413999999995 -4.330127018922195 0.0
    vertex 19.889947905932736 -3.5355339059327386 6.750000000000002
    vertex 18.854413999999995 -4.330127018922195 6.750000000000002
  endloop
endfacet
facet normal 0.9238795325112864 -0.3826834323650908 0.0
  outer loop
    vertex 21.18404313144534 -1.2940952255126075 0.0
    vertex 20.68454101892219 -2.500000000000002 6.750000000000002
    vertex 20.68454101892219 -2.500000000000002 0.0
  endloop
endfacet
facet normal 0.9238795325112864 -0.3826834323650908 0.0
  outer loop
    vertex 20.68454101892219 -2.500000000000002 6.750000000000002
    vertex 21.18404313144534 -1.2940952255126075 0.0
    vertex 21.18404313144534 -1.2940952255126075 6.750000000000002
  endloop
endfacet
facet normal -0.38268343236509034 -0.9238795325112867 -0.0
  outer loop
    vertex 15.060318774487392 -4.829629131445341 6.750000000000002
    vertex 13.854413999999997 -4.330127018922193 0.0
    vertex 15.060318774487392 -4.829629131445341 0.0
  endloop
endfacet
facet normal -0.38268343236509034 -0.9238795325112867 -0.0
  outer loop
    vertex 13.854413999999997 -4.330127018922193 0.0
    vertex 15.060318774487392 -4.829629131445341 6.750000000000002
    vertex 13.854413999999997 -4.330127018922193 6.750000000000002
  endloop
endfacet
facet normal 0.13052619222005168 0.9914448613738105 0.0
  outer loop
    vertex 16.354414 5.0 6.750000000000002
    vertex 17.648509225512605 4.8296291314453415 0.0
    vertex 16.354414 5.0 0.0
  endloop
endfacet
facet normal 0.13052619222005168 0.9914448613738105 0.0
  outer loop
    vertex 17.648509225512605 4.8296291314453415 0.0
    vertex 16.354414 5.0 6.750000000000002
    vertex 17.648509225512605 4.8296291314453415 6.750000000000002
  endloop
endfacet
facet normal 0.7933533402912353 0.6087614290087204 0.0
  outer loop
    vertex 19.889947905932736 3.5355339059327373 0.0
    vertex 20.68454101892219 2.5000000000000004 6.750000000000002
    vertex 20.68454101892219 2.5000000000000004 0.0
  endloop
endfacet
facet normal 0.7933533402912353 0.6087614290087204 0.0
  outer loop
    vertex 20.68454101892219 2.5000000000000004 6.750000000000002
    vertex 19.889947905932736 3.5355339059327373 0.0
    vertex 19.889947905932736 3.5355339059327373 6.750000000000002
  endloop
endfacet
facet normal 0.3826834323650899 0.9238795325112867 0.0
  outer loop
    vertex 17.648509225512605 4.8296291314453415 6.750000000000002
    vertex 18.854414 4.330127018922193 0.0
    vertex 17.648509225512605 4.8296291314453415 0.0
  endloop
endfacet
facet normal 0.3826834323650899 0.9238795325112867 0.0
  outer loop
    vertex 18.854414 4.330127018922193 0.0
    vertex 17.648509225512605 4.8296291314453415 6.750000000000002
    vertex 18.854414 4.330127018922193 6.750000000000002
  endloop
endfacet
facet normal -0.382683432365089 0.9238795325112871 0.0
  outer loop
    vertex 16.76852447216403 -1.5454813220625094 6.750000000000002
    vertex 17.154414 -1.3856406460551023 0.0
    vertex 16.76852447216403 -1.5454813220625094 0.0
  endloop
endfacet
facet normal -0.382683432365089 0.9238795325112871 0.0
  outer loop
    vertex 17.154414 -1.3856406460551023 0.0
    vertex 16.76852447216403 -1.5454813220625094 6.750000000000002
    vertex 17.154414 -1.3856406460551023 6.750000000000002
  endloop
endfacet
facet normal -0.38268343236508967 -0.923879532511287 -0.0
  outer loop
    vertex 17.154414 1.3856406460551023 6.750000000000002
    vertex 16.76852447216403 1.5454813220625094 0.0
    vertex 17.154414 1.3856406460551023 0.0
  endloop
endfacet
facet normal -0.38268343236508967 -0.923879532511287 -0.0
  outer loop
    vertex 16.76852447216403 1.5454813220625094 0.0
    vertex 17.154414 1.3856406460551023 6.750000000000002
    vertex 16.76852447216403 1.5454813220625094 6.750000000000002
  endloop
endfacet
facet normal -0.6087614290087205 0.7933533402912354 0.0
  outer loop
    vertex 17.154414 -1.3856406460551023 6.750000000000002
    vertex 17.485784849898472 -1.1313708498984762 0.0
    vertex 17.154414 -1.3856406460551023 0.0
  endloop
endfacet
facet normal -0.6087614290087205 0.7933533402912354 0.0
  outer loop
    vertex 17.485784849898472 -1.1313708498984762 0.0
    vertex 17.154414 -1.3856406460551023 6.750000000000002
    vertex 17.485784849898472 -1.1313708498984762 6.750000000000002
  endloop
endfacet
facet normal -0.3826834323650894 0.923879532511287 0.0
  outer loop
    vertex 13.854414 4.330127018922194 6.750000000000002
    vertex 15.060318774487396 4.8296291314453415 0.0
    vertex 13.854414 4.330127018922194 0.0
  endloop
endfacet
facet normal -0.3826834323650894 0.923879532511287 0.0
  outer loop
    vertex 15.060318774487396 4.8296291314453415 0.0
    vertex 13.854414 4.330127018922194 6.750000000000002
    vertex 15.060318774487396 4.8296291314453415 6.750000000000002
  endloop
endfacet
facet normal 0.7933533402912352 -0.6087614290087208 0.0
  outer loop
    vertex 20.68454101892219 -2.500000000000002 0.0
    vertex 19.889947905932736 -3.5355339059327386 6.750000000000002
    vertex 19.889947905932736 -3.5355339059327386 0.0
  endloop
endfacet
facet normal 0.7933533402912352 -0.6087614290087208 0.0
  outer loop
    vertex 19.889947905932736 -3.5355339059327386 6.750000000000002
    vertex 20.68454101892219 -2.500000000000002 0.0
    vertex 20.68454101892219 -2.500000000000002 6.750000000000002
  endloop
endfacet
facet normal -0.7933533402912353 -0.6087614290087204 -0.0
  outer loop
    vertex 12.024286981077804 -2.4999999999999987 6.750000000000002
    vertex 12.818880094067259 -3.535533905932736 0.0
    vertex 12.818880094067259 -3.535533905932736 6.750000000000002
  endloop
endfacet
facet normal -0.7933533402912353 -0.6087614290087204 -0.0
  outer loop
    vertex 12.818880094067259 -3.535533905932736 0.0
    vertex 12.024286981077804 -2.4999999999999987 6.750000000000002
    vertex 12.024286981077804 -2.4999999999999987 0.0
  endloop
endfacet
facet normal -0.9914448613738105 -0.13052619222005138 -0.0
  outer loop
    vertex 11.354413999999998 7.049916206369744e-16 6.750000000000002
    vertex 11.524784868554658 -1.294095225512602 0.0
    vertex 11.524784868554658 -1.294095225512602 6.750000000000002
  endloop
endfacet
facet normal -0.9914448613738105 -0.13052619222005138 -0.0
  outer loop
    vertex 11.524784868554658 -1.294095225512602 0.0
    vertex 11.354413999999998 7.049916206369744e-16 6.750000000000002
    vertex 11.354413999999998 7.049916206369744e-16 0.0
  endloop
endfacet
facet normal 0.6087614290087215 0.7933533402912346 0.0
  outer loop
    vertex 15.223043150101523 -1.1313708498984756 6.750000000000002
    vertex 15.554413999999996 -1.3856406460551016 0.0
    vertex 15.223043150101523 -1.1313708498984756 0.0
  endloop
endfacet
facet normal 0.6087614290087215 0.7933533402912346 0.0
  outer loop
    vertex 15.554413999999996 -1.3856406460551016 0.0
    vertex 15.223043150101523 -1.1313708498984756 6.750000000000002
    vertex 15.554413999999996 -1.3856406460551016 6.750000000000002
  endloop
endfacet
facet normal -0.6087614290087207 -0.7933533402912352 -0.0
  outer loop
    vertex 17.485784849898476 1.1313708498984762 6.750000000000002
    vertex 17.154414 1.3856406460551023 0.0
    vertex 17.485784849898476 1.1313708498984762 0.0
  endloop
endfacet
facet normal -0.6087614290087207 -0.7933533402912352 -0.0
  outer loop
    vertex 17.154414 1.3856406460551023 0.0
    vertex 17.485784849898476 1.1313708498984762 6.750000000000002
    vertex 17.154414 1.3856406460551023 6.750000000000002
  endloop
endfacet
facet normal -0.7933533402912353 -0.6087614290087205 -0.0
  outer loop
    vertex 17.485784849898476 1.1313708498984762 6.750000000000002
    vertex 17.740054646055103 0.7999999999999999 0.0
    vertex 17.740054646055103 0.7999999999999999 6.750000000000002
  endloop
endfacet
facet normal -0.7933533402912353 -0.6087614290087205 -0.0
  outer loop
    vertex 17.740054646055103 0.7999999999999999 0.0
    vertex 17.485784849898476 1.1313708498984762 6.750000000000002
    vertex 17.485784849898476 1.1313708498984762 0.0
  endloop
endfacet
facet normal 0.6087614290087205 -0.7933533402912353 0.0
  outer loop
    vertex 15.554414 1.3856406460551023 6.750000000000002
    vertex 15.223043150101523 1.1313708498984762 0.0
    vertex 15.554414 1.3856406460551023 0.0
  endloop
endfacet
facet normal 0.6087614290087205 -0.7933533402912353 0.0
  outer loop
    vertex 15.223043150101523 1.1313708498984762 0.0
    vertex 15.554414 1.3856406460551023 6.750000000000002
    vertex 15.223043150101523 1.1313708498984762 6.750000000000002
  endloop
endfacet
facet normal -0.13052619222005193 -0.9914448613738104 -0.0
  outer loop
    vertex 16.76852447216403 1.5454813220625094 6.750000000000002
    vertex 16.354414 1.5999999999999992 0.0
    vertex 16.76852447216403 1.5454813220625094 0.0
  endloop
endfacet
facet normal -0.13052619222005193 -0.9914448613738104 -0.0
  outer loop
    vertex 16.354414 1.5999999999999992 0.0
    vertex 16.76852447216403 1.5454813220625094 6.750000000000002
    vertex 16.354414 1.5999999999999992 6.750000000000002
  endloop
endfacet
facet normal 0.7933533402912355 0.6087614290087204 0.0
  outer loop
    vertex 14.968773353944897 -0.7999999999999993 0.0
    vertex 15.223043150101523 -1.1313708498984756 6.750000000000002
    vertex 15.223043150101523 -1.1313708498984756 0.0
  endloop
endfacet
facet normal 0.7933533402912355 0.6087614290087204 0.0
  outer loop
    vertex 15.223043150101523 -1.1313708498984756 6.750000000000002
    vertex 14.968773353944897 -0.7999999999999993 0.0
    vertex 14.968773353944897 -0.7999999999999993 6.750000000000002
  endloop
endfacet
facet normal 0.13052619222005213 0.9914448613738104 0.0
  outer loop
    vertex 15.940303527835963 -1.5454813220625088 6.750000000000002
    vertex 16.354414 -1.5999999999999999 0.0
    vertex 15.940303527835963 -1.5454813220625088 0.0
  endloop
endfacet
facet normal 0.13052619222005213 0.9914448613738104 0.0
  outer loop
    vertex 16.354414 -1.5999999999999999 0.0
    vertex 15.940303527835963 -1.5454813220625088 6.750000000000002
    vertex 16.354414 -1.5999999999999999 6.750000000000002
  endloop
endfacet
facet normal -0.6087614290087204 0.7933533402912353 0.0
  outer loop
    vertex 12.818880094067259 3.5355339059327373 6.750000000000002
    vertex 13.854414 4.330127018922194 0.0
    vertex 12.818880094067259 3.5355339059327373 0.0
  endloop
endfacet
facet normal -0.6087614290087204 0.7933533402912353 0.0
  outer loop
    vertex 13.854414 4.330127018922194 0.0
    vertex 12.818880094067259 3.5355339059327373 6.750000000000002
    vertex 13.854414 4.330127018922194 6.750000000000002
  endloop
endfacet
facet normal -0.13052619222005135 0.9914448613738106 0.0
  outer loop
    vertex 16.354414 -1.5999999999999999 6.750000000000002
    vertex 16.76852447216403 -1.5454813220625094 0.0
    vertex 16.354414 -1.5999999999999999 0.0
  endloop
endfacet
facet normal -0.13052619222005135 0.9914448613738106 0.0
  outer loop
    vertex 16.76852447216403 -1.5454813220625094 0.0
    vertex 16.354414 -1.5999999999999999 6.750000000000002
    vertex 16.76852447216403 -1.5454813220625094 6.750000000000002
  endloop
endfacet
facet normal 0.923879532511287 0.38268343236508934 0.0
  outer loop
    vertex 14.808932677937488 -0.41411047216403263 0.0
    vertex 14.968773353944897 -0.7999999999999993 6.750000000000002
    vertex 14.968773353944897 -0.7999999999999993 0.0
  endloop
endfacet
facet normal 0.923879532511287 0.38268343236508934 0.0
  outer loop
    vertex 14.968773353944897 -0.7999999999999993 6.750000000000002
    vertex 14.808932677937488 -0.41411047216403263 0.0
    vertex 14.808932677937488 -0.41411047216403263 6.750000000000002
  endloop
endfacet
facet normal 0.9914448613738106 0.13052619222005135 0.0
  outer loop
    vertex 14.754413999999997 0.0 0.0
    vertex 14.808932677937488 -0.41411047216403263 6.750000000000002
    vertex 14.808932677937488 -0.41411047216403263 0.0
  endloop
endfacet
facet normal 0.9914448613738106 0.13052619222005135 0.0
  outer loop
    vertex 14.808932677937488 -0.41411047216403263 6.750000000000002
    vertex 14.754413999999997 0.0 0.0
    vertex 14.754413999999997 0.0 6.750000000000002
  endloop
endfacet
facet normal 0.13052619222005163 -0.9914448613738105 0.0
  outer loop
    vertex 16.354414 1.5999999999999992 6.750000000000002
    vertex 15.940303527835965 1.5454813220625094 0.0
    vertex 16.354414 1.5999999999999992 0.0
  endloop
endfacet
facet normal 0.13052619222005163 -0.9914448613738105 0.0
  outer loop
    vertex 15.940303527835965 1.5454813220625094 0.0
    vertex 16.354414 1.5999999999999992 6.750000000000002
    vertex 15.940303527835965 1.5454813220625094 6.750000000000002
  endloop
endfacet
facet normal 0.38268343236508967 -0.923879532511287 0.0
  outer loop
    vertex 15.940303527835965 1.5454813220625094 6.750000000000002
    vertex 15.554414 1.3856406460551023 0.0
    vertex 15.940303527835965 1.5454813220625094 0.0
  endloop
endfacet
facet normal 0.38268343236508967 -0.923879532511287 0.0
  outer loop
    vertex 15.554414 1.3856406460551023 0.0
    vertex 15.940303527835965 1.5454813220625094 6.750000000000002
    vertex 15.554414 1.3856406460551023 6.750000000000002
  endloop
endfacet
facet normal 0.38268343236508995 0.9238795325112868 0.0
  outer loop
    vertex 15.554413999999996 -1.3856406460551016 6.750000000000002
    vertex 15.940303527835963 -1.5454813220625088 0.0
    vertex 15.554413999999996 -1.3856406460551016 0.0
  endloop
endfacet
facet normal 0.38268343236508995 0.9238795325112868 0.0
  outer loop
    vertex 15.940303527835963 -1.5454813220625088 0.0
    vertex 15.554413999999996 -1.3856406460551016 6.750000000000002
    vertex 15.940303527835963 -1.5454813220625088 6.750000000000002
  endloop
endfacet
facet normal 0.7933533402912349 -0.6087614290087212 0.0
  outer loop
    vertex 15.223043150101523 1.1313708498984762 0.0
    vertex 14.968773353944897 0.8000000000000006 6.750000000000002
    vertex 14.968773353944897 0.8000000000000006 0.0
  endloop
endfacet
facet normal 0.7933533402912349 -0.6087614290087212 0.0
  outer loop
    vertex 14.968773353944897 0.8000000000000006 6.750000000000002
    vertex 15.223043150101523 1.1313708498984762 0.0
    vertex 15.223043150101523 1.1313708498984762 6.750000000000002
  endloop
endfacet
facet normal -0.923879532511287 -0.38268343236508967 -0.0
  outer loop
    vertex 17.740054646055103 0.7999999999999999 6.750000000000002
    vertex 17.89989532206251 0.41411047216403335 0.0
    vertex 17.89989532206251 0.41411047216403335 6.750000000000002
  endloop
endfacet
facet normal -0.923879532511287 -0.38268343236508967 -0.0
  outer loop
    vertex 17.89989532206251 0.41411047216403335 0.0
    vertex 17.740054646055103 0.7999999999999999 6.750000000000002
    vertex 17.740054646055103 0.7999999999999999 0.0
  endloop
endfacet
facet normal 0.9914448613738104 -0.13052619222005193 0.0
  outer loop
    vertex 14.80893267793749 0.41411047216403335 0.0
    vertex 14.754413999999997 0.0 6.750000000000002
    vertex 14.754413999999997 0.0 0.0
  endloop
endfacet
facet normal 0.9914448613738104 -0.13052619222005193 0.0
  outer loop
    vertex 14.754413999999997 0.0 6.750000000000002
    vertex 14.80893267793749 0.41411047216403335 0.0
    vertex 14.80893267793749 0.41411047216403335 6.750000000000002
  endloop
endfacet
facet normal 0.923879532511287 -0.3826834323650898 0.0
  outer loop
    vertex 14.968773353944897 0.8000000000000006 0.0
    vertex 14.80893267793749 0.41411047216403335 6.750000000000002
    vertex 14.80893267793749 0.41411047216403335 0.0
  endloop
endfacet
facet normal 0.923879532511287 -0.3826834323650898 0.0
  outer loop
    vertex 14.80893267793749 0.41411047216403335 6.750000000000002
    vertex 14.968773353944897 0.8000000000000006 0.0
    vertex 14.968773353944897 0.8000000000000006 6.750000000000002
  endloop
endfacet
endsolid carter wheel spacer cylinders 3.3
