solid 45 degree plastic bracket for boards
facet normal 7.24418045405723e-10 8.912095356691359e-09 -1.0
  outer loop
    vertex 7.824447618848262e-08 9.999999986283568 7.233158674877643e-08
    vertex 3.9421570831286066 5.413402095222482 5.7333521009256256e-08
    vertex 3.873743329739527 5.066695654407296 5.3661541992745805e-08
  endloop
endfacet
facet normal 7.24418045405723e-10 8.912095356691359e-09 -1.0
  outer loop
    vertex 3.9421570831286066 5.413402095222482 5.7333521009256256e-08
    vertex 7.824447618848262e-08 9.999999986283568 7.233158674877643e-08
    vertex 4.105367325083104 5.731935866297056 6.070712232440072e-08
  endloop
endfacet
facet normal 7.24418045405723e-10 8.912095356691359e-09 -1.0
  outer loop
    vertex 4.105367325083104 5.731935866297056 6.070712232440072e-08
    vertex 7.824447618848262e-08 9.999999986283568 7.233158674877643e-08
    vertex 4.35225154733169 6.000589417534233 6.355244056999859e-08
  endloop
endfacet
facet normal 7.24418045405723e-10 8.912095356691359e-09 -1.0
  outer loop
    vertex 4.35225154733169 6.000589417534233 6.355244056999859e-08
    vertex 7.824447618848262e-08 9.999999986283568 7.233158674877643e-08
    vertex 4.665984998123425 6.201054453388169 6.567557203074336e-08
  endloop
endfacet
facet normal 7.24418045405723e-10 8.912095356691359e-09 -1.0
  outer loop
    vertex 4.665984998123425 6.201054453388169 6.567557203074336e-08
    vertex 7.824447618848262e-08 9.999999986283568 7.233158674877643e-08
    vertex 5.025187261255832 6.319669612949572 6.693182883089205e-08
  endloop
endfacet
facet normal 7.24418045405723e-10 8.912095356691359e-09 -1.0
  outer loop
    vertex 5.025187261255832 6.319669612949572 6.693182883089205e-08
    vertex 7.824447618848262e-08 9.999999986283568 7.233158674877643e-08
    vertex 23.17635561130543 9.999999745953652 1.0591032182146603e-07
  endloop
endfacet
facet normal 7.24418045405723e-10 8.912095356691359e-09 -1.0
  outer loop
    vertex 5.025187261255832 6.319669612949572 6.693182883089205e-08
    vertex 23.17635561130543 9.999999745953652 1.0591032182146603e-07
    vertex 5.405379296106532 6.348351469115143 6.723559910128823e-08
  endloop
endfacet
facet normal 7.24418045405723e-10 8.912095356691359e-09 -1.0
  outer loop
    vertex 5.405379296106532 6.348351469115143 6.723559910128823e-08
    vertex 23.17635561130543 9.999999745953652 1.0591032182146603e-07
    vertex 5.780651643797264 6.285145400786192 6.656618140189058e-08
  endloop
endfacet
facet normal 7.24418045405723e-10 8.912095356691359e-09 -1.0
  outer loop
    vertex 5.780651643797264 6.285145400786192 6.656618140189058e-08
    vertex 23.17635561130543 9.999999745953652 1.0591032182146603e-07
    vertex 6.125430113999783 6.134358797066413 6.496919547609863e-08
  endloop
endfacet
facet normal 7.24418045405723e-10 8.912095356691359e-09 -1.0
  outer loop
    vertex 6.125430113999783 6.134358797066413 6.496919547609863e-08
    vertex 23.17635561130543 9.999999745953652 1.0591032182146603e-07
    vertex 6.41621862374326 5.906267515812636 6.255347325973687e-08
  endloop
endfacet
facet normal 7.24418045405723e-10 8.912095356691359e-09 -1.0
  outer loop
    vertex 6.41621862374326 5.906267515812636 6.255347325973687e-08
    vertex 23.17635561130543 9.999999745953652 1.0591032182146603e-07
    vertex 6.633200416639323 5.616415600903632 5.948364221498858e-08
  endloop
endfacet
facet normal 7.24418045405723e-10 8.912095356691359e-09 -1.0
  outer loop
    vertex 6.633200416639323 5.616415600903632 5.948364221498858e-08
    vertex 23.17635561130543 9.999999745953652 1.0591032182146603e-07
    vertex 6.7615885420814985 5.284555981337525 5.596890624796208e-08
  endloop
endfacet
facet normal 7.24418045405723e-10 8.912095356691359e-09 -1.0
  outer loop
    vertex 6.7615885420814985 5.284555981337525 5.596890624796208e-08
    vertex 23.17635561130543 9.999999745953652 1.0591032182146603e-07
    vertex 6.792633561492288 4.933304341763795 5.2248788861425366e-08
  endloop
endfacet
facet normal 7.24418045405723e-10 8.912095356691359e-09 -1.0
  outer loop
    vertex 6.792633561492288 4.933304341763795 5.2248788861425366e-08
    vertex 23.17635561130543 9.999999745953652 1.0591032182146603e-07
    vertex 17.07309180204867 6.169134311729274 6.533749865259703e-08
  endloop
endfacet
facet normal 7.24418045405723e-10 8.912095356691359e-09 -1.0
  outer loop
    vertex 6.792633561492288 4.933304341763795 5.2248788861425366e-08
    vertex 17.07309180204867 6.169134311729274 6.533749865259703e-08
    vertex 16.770461268339506 5.954594171549456 6.306529733053623e-08
  endloop
endfacet
facet normal 7.24418045405723e-10 8.912095356691359e-09 -1.0
  outer loop
    vertex 6.792633561492288 4.933304341763795 5.2248788861425366e-08
    vertex 16.770461268339506 5.954594171549456 6.306529733053623e-08
    vertex 16.538244691622783 5.675000017198785 6.010410677232542e-08
  endloop
endfacet
facet normal 7.24418045405723e-10 8.912095356691359e-09 -1.0
  outer loop
    vertex 6.792633561492288 4.933304341763795 5.2248788861425366e-08
    vertex 16.538244691622783 5.675000017198785 6.010410677232542e-08
    vertex 16.39226724784617 5.34940572824506 5.665572726035184e-08
  endloop
endfacet
facet normal 7.24418045405723e-10 8.912095356691359e-09 -1.0
  outer loop
    vertex 6.792633561492288 4.933304341763795 5.2248788861425366e-08
    vertex 16.39226724784617 5.34940572824506 5.665572726035184e-08
    vertex 16.342477058563535 5.000000017410496 5.29551601947259e-08
  endloop
endfacet
facet normal 7.24418045405723e-10 8.912095356691359e-09 -1.0
  outer loop
    vertex 17.07309180204867 6.169134311729274 6.533749865259703e-08
    vertex 23.17635561130543 9.999999745953652 1.0591032182146603e-07
    vertex 17.425512521998797 6.303999881729337 6.676586406569734e-08
  endloop
endfacet
facet normal 7.24418045405723e-10 8.912095356691359e-09 -1.0
  outer loop
    vertex 17.425512521998797 6.303999881729337 6.676586406569734e-08
    vertex 23.17635561130543 9.999999745953652 1.0591032182146603e-07
    vertex 17.80370653852818 6.350000015830027 6.725305282118121e-08
  endloop
endfacet
facet normal 7.24418045405723e-10 8.912095356691359e-09 -1.0
  outer loop
    vertex 17.80370653852818 6.350000015830027 6.725305282118121e-08
    vertex 23.17635561130543 9.999999745953652 1.0591032182146603e-07
    vertex 18.181900554405377 6.3039998809111895 6.676586373523252e-08
  endloop
endfacet
facet normal 7.24418045405723e-10 8.912095356691359e-09 -1.0
  outer loop
    vertex 18.181900554405377 6.3039998809111895 6.676586373523252e-08
    vertex 23.17635561130543 9.999999745953652 1.0591032182146603e-07
    vertex 18.53432127244343 6.16913431014874 6.53374979476054e-08
  endloop
endfacet
facet normal 7.24418045405723e-10 8.912095356691359e-09 -1.0
  outer loop
    vertex 18.53432127244343 6.16913431014874 6.53374979476054e-08
    vertex 23.17635561130543 9.999999745953652 1.0591032182146603e-07
    vertex 18.836951803110924 5.954594169314244 6.306529627304879e-08
  endloop
endfacet
facet normal 7.24418045405723e-10 8.912095356691359e-09 -1.0
  outer loop
    vertex 18.836951803110924 5.954594169314244 6.306529627304879e-08
    vertex 23.17635561130543 9.999999745953652 1.0591032182146603e-07
    vertex 19.069168375863665 5.67500001446122 6.010410547249711e-08
  endloop
endfacet
facet normal 7.24418045405723e-10 8.912095356691359e-09 -1.0
  outer loop
    vertex 19.069168375863665 5.67500001446122 6.010410547249711e-08
    vertex 23.17635561130543 9.999999745953652 1.0591032182146603e-07
    vertex 19.21514581502417 5.349405725191723 5.665572582833761e-08
  endloop
endfacet
facet normal 7.24418045405723e-10 8.912095356691359e-09 -1.0
  outer loop
    vertex 19.21514581502417 5.349405725191723 5.665572582833761e-08
    vertex 23.17635561130543 9.999999745953652 1.0591032182146603e-07
    vertex 19.264935999353078 5.000000014249447 5.2955158718649696e-08
  endloop
endfacet
facet normal 7.24418045405723e-10 8.912095356691359e-09 -1.0
  outer loop
    vertex 0.0 2.8309396196790317e-18 0.0
    vertex 4.885725247434498 3.7148545953848737 3.934414938618763e-08
    vertex 23.176355730012663 1.6654427269109162e-08 3.569020079474683e-15
  endloop
endfacet
facet normal 7.24418045405723e-10 8.912095356691359e-09 -1.0
  outer loop
    vertex 4.885725247434498 3.7148545953848737 3.934414938618763e-08
    vertex 0.0 2.8309396196790317e-18 0.0
    vertex 4.540946777231979 3.8656411991046706 4.094113533401056e-08
  endloop
endfacet
facet normal 7.24418045405723e-10 8.912095356691359e-09 -1.0
  outer loop
    vertex 4.540946777231979 3.8656411991046706 4.094113533401056e-08
    vertex 0.0 2.8309396196790317e-18 0.0
    vertex 4.250158267488515 4.093732480358458 4.335685755037233e-08
  endloop
endfacet
facet normal 7.24418045405723e-10 8.912095356691359e-09 -1.0
  outer loop
    vertex 4.250158267488515 4.093732480358458 4.335685755037233e-08
    vertex 0.0 2.8309396196790317e-18 0.0
    vertex 4.0331764745924525 4.383584395267462 4.642668859512061e-08
  endloop
endfacet
facet normal 7.24418045405723e-10 8.912095356691359e-09 -1.0
  outer loop
    vertex 4.0331764745924525 4.383584395267462 4.642668859512061e-08
    vertex 0.0 2.8309396196790317e-18 0.0
    vertex 7.824447618848262e-08 9.999999986283568 7.233158674877643e-08
  endloop
endfacet
facet normal 7.24418045405723e-10 8.912095356691359e-09 -1.0
  outer loop
    vertex 4.0331764745924525 4.383584395267462 4.642668859512061e-08
    vertex 7.824447618848262e-08 9.999999986283568 7.233158674877643e-08
    vertex 3.904788349150316 4.715444014833569 4.9941424562147113e-08
  endloop
endfacet
facet normal 7.24418045405723e-10 8.912095356691359e-09 -1.0
  outer loop
    vertex 3.904788349150316 4.715444014833569 4.9941424562147113e-08
    vertex 7.824447618848262e-08 9.999999986283568 7.233158674877643e-08
    vertex 3.873743329739527 5.066695654407296 5.3661541992745805e-08
  endloop
endfacet
facet normal 7.24418045405723e-10 8.912095356691359e-09 -1.0
  outer loop
    vertex 23.176355730012663 1.6654427269109162e-08 3.569020079474683e-15
    vertex 4.885725247434498 3.7148545953848737 3.934414938618763e-08
    vertex 5.260997595125237 3.6516485270559356 3.8674731708820964e-08
  endloop
endfacet
facet normal 7.24418045405723e-10 8.912095356691359e-09 -1.0
  outer loop
    vertex 23.176355730012663 1.6654427269109162e-08 3.569020079474683e-15
    vertex 5.260997595125237 3.6516485270559356 3.8674731708820964e-08
    vertex 5.64118962997593 3.6803303832215026 3.897850200124814e-08
  endloop
endfacet
facet normal 7.24418045405723e-10 8.912095356691359e-09 -1.0
  outer loop
    vertex 23.176355730012663 1.6654427269109162e-08 3.569020079474683e-15
    vertex 5.64118962997593 3.6803303832215026 3.897850200124814e-08
    vertex 6.000391893108345 3.798945542782901 4.0234758779365826e-08
  endloop
endfacet
facet normal 7.24418045405723e-10 8.912095356691359e-09 -1.0
  outer loop
    vertex 23.176355730012663 1.6654427269109162e-08 3.569020079474683e-15
    vertex 6.000391893108345 3.798945542782901 4.0234758779365826e-08
    vertex 6.31412534390008 3.999410578636853 4.2357890262141595e-08
  endloop
endfacet
facet normal 7.24418045405723e-10 8.912095356691359e-09 -1.0
  outer loop
    vertex 23.176355730012663 1.6654427269109162e-08 3.569020079474683e-15
    vertex 6.31412534390008 3.999410578636853 4.2357890262141595e-08
    vertex 6.561009566148684 4.26806412987402 4.520320852977044e-08
  endloop
endfacet
facet normal 7.24418045405723e-10 8.912095356691359e-09 -1.0
  outer loop
    vertex 23.176355730012663 1.6654427269109162e-08 3.569020079474683e-15
    vertex 6.561009566148684 4.26806412987402 4.520320852977044e-08
    vertex 6.724219808103201 4.586597900948608 4.857680984491491e-08
  endloop
endfacet
facet normal 7.24418045405723e-10 8.912095356691359e-09 -1.0
  outer loop
    vertex 23.176355730012663 1.6654427269109162e-08 3.569020079474683e-15
    vertex 6.724219808103201 4.586597900948608 4.857680984491491e-08
    vertex 6.792633561492288 4.933304341763795 5.2248788861425366e-08
  endloop
endfacet
facet normal 7.24418045405723e-10 8.912095356691359e-09 -1.0
  outer loop
    vertex 23.176355730012663 1.6654427269109162e-08 3.569020079474683e-15
    vertex 6.792633561492288 4.933304341763795 5.2248788861425366e-08
    vertex 17.07309178547316 3.8308657215111785 4.0572820943739206e-08
  endloop
endfacet
facet normal 7.24418045405723e-10 8.912095356691359e-09 -1.0
  outer loop
    vertex 17.07309178547316 3.8308657215111785 4.0572820943739206e-08
    vertex 6.792633561492288 4.933304341763795 5.2248788861425366e-08
    vertex 16.77046125480567 4.045405862345687 4.2845022662357786e-08
  endloop
endfacet
facet normal 7.24418045405723e-10 8.912095356691359e-09 -1.0
  outer loop
    vertex 16.77046125480567 4.045405862345687 4.2845022662357786e-08
    vertex 6.792633561492288 4.933304341763795 5.2248788861425366e-08
    vertex 16.53824468205295 4.325000017198709 4.5806213440878484e-08
  endloop
endfacet
facet normal 7.24418045405723e-10 8.912095356691359e-09 -1.0
  outer loop
    vertex 16.53824468205295 4.325000017198709 4.5806213440878484e-08
    vertex 6.792633561492288 4.933304341763795 5.2248788861425366e-08
    vertex 16.392267242892455 4.6505943064682205 4.9254593063007e-08
  endloop
endfacet
facet normal 7.24418045405723e-10 8.912095356691359e-09 -1.0
  outer loop
    vertex 16.392267242892455 4.6505943064682205 4.9254593063007e-08
    vertex 6.792633561492288 4.933304341763795 5.2248788861425366e-08
    vertex 16.342477058563535 5.000000017410496 5.29551601947259e-08
  endloop
endfacet
facet normal 7.24418045405723e-10 8.912095356691359e-09 -1.0
  outer loop
    vertex 23.176355730012663 1.6654427269109162e-08 3.569020079474683e-15
    vertex 17.07309178547316 3.8308657215111785 4.0572820943739206e-08
    vertex 17.425512503511225 3.696000150748741 3.914445522220505e-08
  endloop
endfacet
facet normal 7.24418045405723e-10 8.912095356691359e-09 -1.0
  outer loop
    vertex 23.176355730012663 1.6654427269109162e-08 3.569020079474683e-15
    vertex 17.425512503511225 3.696000150748741 3.914445522220505e-08
    vertex 17.803706519388424 3.650000015829917 3.865726611422537e-08
  endloop
endfacet
facet normal 7.24418045405723e-10 8.912095356691359e-09 -1.0
  outer loop
    vertex 23.176355730012663 1.6654427269109162e-08 3.569020079474683e-15
    vertex 17.803706519388424 3.650000015829917 3.865726611422537e-08
    vertex 18.181900535917805 3.696000149930612 3.9144454825647267e-08
  endloop
endfacet
facet normal 7.24418045405723e-10 8.912095356691359e-09 -1.0
  outer loop
    vertex 23.176355730012663 1.6654427269109162e-08 3.569020079474683e-15
    vertex 18.181900535917805 3.696000149930612 3.9144454825647267e-08
    vertex 18.534321255867937 3.830865719930675 4.057282021671659e-08
  endloop
endfacet
facet normal 7.24418045405723e-10 8.912095356691359e-09 -1.0
  outer loop
    vertex 23.176355730012663 1.6654427269109162e-08 3.569020079474683e-15
    vertex 18.534321255867937 3.830865719930675 4.057282021671659e-08
    vertex 18.83695178957709 4.045405860110498 4.284502158283937e-08
  endloop
endfacet
facet normal 7.24418045405723e-10 8.912095356691359e-09 -1.0
  outer loop
    vertex 23.176355730012663 1.6654427269109162e-08 3.569020079474683e-15
    vertex 18.83695178957709 4.045405860110498 4.284502158283937e-08
    vertex 19.069168366293837 4.325000014461178 4.5806212141050184e-08
  endloop
endfacet
facet normal 7.24418045405723e-10 8.912095356691359e-09 -1.0
  outer loop
    vertex 23.176355730012663 1.6654427269109162e-08 3.569020079474683e-15
    vertex 19.069168366293837 4.325000014461178 4.5806212141050184e-08
    vertex 19.21514581007044 4.650594303414894 4.925459163099277e-08
  endloop
endfacet
facet normal 7.24418045405723e-10 8.912095356691359e-09 -1.0
  outer loop
    vertex 23.176355730012663 1.6654427269109162e-08 3.569020079474683e-15
    vertex 19.21514581007044 4.650594303414894 4.925459163099277e-08
    vertex 19.264935999353078 5.000000014249447 5.2955158718649696e-08
  endloop
endfacet
facet normal 7.24418045405723e-10 8.912095356691359e-09 -1.0
  outer loop
    vertex 23.176355730012663 1.6654427269109162e-08 3.569020079474683e-15
    vertex 19.264935999353078 5.000000014249447 5.2955158718649696e-08
    vertex 23.17635561130543 9.999999745953652 1.0591032182146603e-07
  endloop
endfacet
facet normal -0.9238795325402887 4.797496979687092e-09 -0.382683432295073
  outer loop
    vertex -1.4774517737033845 9.999999985760411 3.566884235956108
    vertex 0.0 2.8309396196790317e-18 0.0
    vertex -1.477451773693512 -1.423959573474895e-08 3.566884246433461
  endloop
endfacet
facet normal -0.9238795325402887 4.797496979687092e-09 -0.382683432295073
  outer loop
    vertex 0.0 2.8309396196790317e-18 0.0
    vertex -1.4774517737033845 9.999999985760411 3.566884235956108
    vertex 7.824447618848262e-08 9.999999986283568 7.233158674877643e-08
  endloop
endfacet
facet normal 0.38268343236505914 9.683589123700431e-10 0.9238795325112996
  outer loop
    vertex 11.588177875066396 7.130034215589649e-08 8.97884524789423
    vertex 18.640126026305705 4.5858895664563075 6.057832666616309
    vertex 18.589757336067603 5.000000038756428 6.0786960597976485
  endloop
endfacet
facet normal 0.38268343236505914 9.683589123700431e-10 0.9238795325112996
  outer loop
    vertex 18.640126026305705 4.5858895664563075 6.057832666616309
    vertex 11.588177875066396 7.130034215589649e-08 8.97884524789423
    vertex 18.787799554914326 4.2000000382213525 5.996664289599642
  endloop
endfacet
facet normal 0.38268343236505914 9.683589123700431e-10 0.9238795325112996
  outer loop
    vertex 18.787799554914326 4.2000000382213525 5.996664289599642
    vertex 11.588177875066396 7.130034215589649e-08 8.97884524789423
    vertex 19.02271421496083 3.8686291876881773 5.899359452555812
  endloop
endfacet
facet normal 0.38268343236505914 9.683589123700431e-10 0.9238795325112996
  outer loop
    vertex 19.02271421496083 3.8686291876881773 5.899359452555812
    vertex 11.588177875066396 7.130034215589649e-08 8.97884524789423
    vertex 19.328860960577877 3.6143593907043967 5.77254931932551
  endloop
endfacet
facet normal 0.38268343236505914 9.683589123700431e-10 0.9238795325112996
  outer loop
    vertex 19.328860960577877 3.6143593907043967 5.77254931932551
    vertex 11.588177875066396 7.130034215589649e-08 8.97884524789423
    vertex 24.65380752382989 1.458677767756731e-08 3.5668842464328767
  endloop
endfacet
facet normal 0.38268343236505914 9.683589123700431e-10 0.9238795325112996
  outer loop
    vertex 19.328860960577877 3.6143593907043967 5.77254931932551
    vertex 24.65380752382989 1.458677767756731e-08 3.5668842464328767
    vertex 19.685376396983088 3.454518713733746 5.624875790924725
  endloop
endfacet
facet normal 0.38268343236505914 9.683589123700431e-10 0.9238795325112996
  outer loop
    vertex 19.685376396983088 3.454518713733746 5.624875790924725
    vertex 24.65380752382989 1.458677767756731e-08 3.5668842464328767
    vertex 20.06796458635506 3.400000034762568 5.46640257427193
  endloop
endfacet
facet normal 0.38268343236505914 9.683589123700431e-10 0.9238795325112996
  outer loop
    vertex 20.06796458635506 3.400000034762568 5.46640257427193
    vertex 24.65380752382989 1.458677767756731e-08 3.5668842464328767
    vertex 20.450552775844972 3.4545187116663723 5.307929357192636
  endloop
endfacet
facet normal 0.38268343236505914 9.683589123700431e-10 0.9238795325112996
  outer loop
    vertex 20.450552775844972 3.4545187116663723 5.307929357192636
    vertex 24.65380752382989 1.458677767756731e-08 3.5668842464328767
    vertex 20.807068212595965 3.614359386710537 5.160255827541427
  endloop
endfacet
facet normal 0.38268343236505914 9.683589123700431e-10 0.9238795325112996
  outer loop
    vertex 20.807068212595965 3.614359386710537 5.160255827541427
    vertex 24.65380752382989 1.458677767756731e-08 3.5668842464328767
    vertex 21.11321495876307 3.8686291820400074 5.0334456923219815
  endloop
endfacet
facet normal 0.38268343236505914 9.683589123700431e-10 0.9238795325112996
  outer loop
    vertex 21.11321495876307 3.8686291820400074 5.0334456923219815
    vertex 24.65380752382989 1.458677767756731e-08 3.5668842464328767
    vertex 21.34812961952642 4.200000031303785 4.936140852685853
  endloop
endfacet
facet normal 0.38268343236505914 9.683589123700431e-10 0.9238795325112996
  outer loop
    vertex 21.34812961952642 4.200000031303785 4.936140852685853
    vertex 24.65380752382989 1.458677767756731e-08 3.5668842464328767
    vertex 21.49580314896983 4.585889558740763 4.87497247265039
  endloop
endfacet
facet normal 0.38268343236505914 9.683589123700431e-10 0.9238795325112996
  outer loop
    vertex 21.49580314896983 4.585889558740763 4.87497247265039
    vertex 24.65380752382989 1.458677767756731e-08 3.5668842464328767
    vertex 21.54617184010377 5.000000030768709 4.854109076229482
  endloop
endfacet
facet normal 0.38268343236505914 9.683589123700431e-10 0.9238795325112996
  outer loop
    vertex 21.54617184010377 5.000000030768709 4.854109076229482
    vertex 24.65380752382989 1.458677767756731e-08 3.5668842464328767
    vertex 24.65380752382003 10.000000014586771 3.5668842359555213
  endloop
endfacet
facet normal 0.38268343236505914 9.683589123700431e-10 0.9238795325112996
  outer loop
    vertex 11.588177875056525 10.000000071300324 8.978845237416875
    vertex 19.32886096357541 6.3856406828146035 5.772549308485704
    vertex 24.65380752382003 10.000000014586771 3.5668842359555213
  endloop
endfacet
facet normal 0.38268343236505914 9.683589123700431e-10 0.9238795325112996
  outer loop
    vertex 19.32886096357541 6.3856406828146035 5.772549308485704
    vertex 11.588177875056525 10.000000071300324 8.978845237416875
    vertex 11.588177875066396 7.130034215589649e-08 8.97884524789423
  endloop
endfacet
facet normal 0.38268343236505914 9.683589123700431e-10 0.9238795325112996
  outer loop
    vertex 19.32886096357541 6.3856406828146035 5.772549308485704
    vertex 11.588177875066396 7.130034215589649e-08 8.97884524789423
    vertex 19.022714217408303 6.131370887485132 5.899359443705148
  endloop
endfacet
facet normal 0.38268343236505914 9.683589123700431e-10 0.9238795325112996
  outer loop
    vertex 19.022714217408303 6.131370887485132 5.899359443705148
    vertex 11.588177875066396 7.130034215589649e-08 8.97884524789423
    vertex 18.78779955664495 5.800000038221356 5.9966642833412775
  endloop
endfacet
facet normal 0.38268343236505914 9.683589123700431e-10 0.9238795325112996
  outer loop
    vertex 18.78779955664495 5.800000038221356 5.9966642833412775
    vertex 11.588177875066396 7.130034215589649e-08 8.97884524789423
    vertex 18.640126027201543 5.414110510784377 6.057832663376741
  endloop
endfacet
facet normal 0.38268343236505914 9.683589123700431e-10 0.9238795325112996
  outer loop
    vertex 18.640126027201543 5.414110510784377 6.057832663376741
    vertex 11.588177875066396 7.130034215589649e-08 8.97884524789423
    vertex 18.589757336067603 5.000000038756428 6.0786960597976485
  endloop
endfacet
facet normal 0.38268343236505914 9.683589123700431e-10 0.9238795325112996
  outer loop
    vertex 24.65380752382003 10.000000014586771 3.5668842359555213
    vertex 19.32886096357541 6.3856406828146035 5.772549308485704
    vertex 19.6853764003264 6.545481357858766 5.624875778834494
  endloop
endfacet
facet normal 0.38268343236505914 9.683589123700431e-10 0.9238795325112996
  outer loop
    vertex 24.65380752382003 10.000000014586771 3.5668842359555213
    vertex 19.6853764003264 6.545481357858766 5.624875778834494
    vertex 20.06796458981631 6.600000034762569 5.466402561755201
  endloop
endfacet
facet normal 0.38268343236505914 9.683589123700431e-10 0.9238795325112996
  outer loop
    vertex 24.65380752382003 10.000000014586771 3.5668842359555213
    vertex 20.06796458981631 6.600000034762569 5.466402561755201
    vertex 20.450552779188282 6.545481355791392 5.307929345102405
  endloop
endfacet
facet normal 0.38268343236505914 9.683589123700431e-10 0.9238795325112996
  outer loop
    vertex 24.65380752382003 10.000000014586771 3.5668842359555213
    vertex 20.450552779188282 6.545481355791392 5.307929345102405
    vertex 20.80706821559349 6.385640678820741 5.160255816701622
  endloop
endfacet
facet normal 0.38268343236505914 9.683589123700431e-10 0.9238795325112996
  outer loop
    vertex 24.65380752382003 10.000000014586771 3.5668842359555213
    vertex 20.80706821559349 6.385640678820741 5.160255816701622
    vertex 21.11321496121054 6.131370881836959 5.033445683471319
  endloop
endfacet
facet normal 0.38268343236505914 9.683589123700431e-10 0.9238795325112996
  outer loop
    vertex 24.65380752382003 10.000000014586771 3.5668842359555213
    vertex 21.11321496121054 6.131370881836959 5.033445683471319
    vertex 21.348129621257044 5.800000031303785 4.936140846427489
  endloop
endfacet
facet normal 0.38268343236505914 9.683589123700431e-10 0.9238795325112996
  outer loop
    vertex 24.65380752382003 10.000000014586771 3.5668842359555213
    vertex 21.348129621257044 5.800000031303785 4.936140846427489
    vertex 21.495803149865665 5.414110503068831 4.874972469410823
  endloop
endfacet
facet normal 0.38268343236505914 9.683589123700431e-10 0.9238795325112996
  outer loop
    vertex 24.65380752382003 10.000000014586771 3.5668842359555213
    vertex 21.495803149865665 5.414110503068831 4.874972469410823
    vertex 21.54617184010377 5.000000030768709 4.854109076229482
  endloop
endfacet
facet normal 0.9238795282087602 7.3100452877211574e-09 -0.3826834427523077
  outer loop
    vertex 23.176355730012663 1.6654427269109162e-08 3.569020079474683e-15
    vertex 24.65380752382003 10.000000014586771 3.5668842359555213
    vertex 24.65380752382989 1.458677767756731e-08 3.5668842464328767
  endloop
endfacet
facet normal 0.9238795282087602 7.3100452877211574e-09 -0.3826834427523077
  outer loop
    vertex 24.65380752382003 10.000000014586771 3.5668842359555213
    vertex 23.176355730012663 1.6654427269109162e-08 3.569020079474683e-15
    vertex 23.17635561130543 9.999999745953652 1.0591032182146603e-07
  endloop
endfacet
facet normal -0.3826834323651136 9.676034622396318e-10 0.9238795325112769
  outer loop
    vertex -1.477451773693512 -1.423959573474895e-08 3.566884246433461
    vertex 1.6297128421061824 4.662748477938503 4.853913955876904
    vertex 1.5983071178207906 5.079046717391612 4.840905277607314
  endloop
endfacet
facet normal -0.3826834323651136 9.676034622396318e-10 0.9238795325112769
  outer loop
    vertex 1.6297128421061824 4.662748477938503 4.853913955876904
    vertex -1.477451773693512 -1.423959573474895e-08 3.566884246433461
    vertex 1.7595926858565045 4.269433373439993 4.907711949897958
  endloop
endfacet
facet normal -0.3826834323651136 9.676034622396318e-10 0.9238795325112769
  outer loop
    vertex 1.7595926858565045 4.269433373439993 4.907711949897958
    vertex -1.477451773693512 -1.423959573474895e-08 3.566884246433461
    vertex 1.9790955523567626 3.925905178283716 4.99863301528333
  endloop
endfacet
facet normal -0.3826834323651136 9.676034622396318e-10 0.9238795325112769
  outer loop
    vertex 1.9790955523567626 3.925905178283716 4.99863301528333
    vertex -1.477451773693512 -1.423959573474895e-08 3.566884246433461
    vertex 2.273262684000601 3.655574771262386 5.120481031681171
  endloop
endfacet
facet normal -0.3826834323651136 9.676034622396318e-10 0.9238795325112769
  outer loop
    vertex 2.273262684000601 3.655574771262386 5.120481031681171
    vertex -1.477451773693512 -1.423959573474895e-08 3.566884246433461
    vertex 2.622047076900664 3.476864722872387 5.264952258137339
  endloop
endfacet
facet normal -0.3826834323651136 9.676034622396318e-10 0.9238795325112769
  outer loop
    vertex 2.622047076900664 3.476864722872387 5.264952258137339
    vertex -1.477451773693512 -1.423959573474895e-08 3.566884246433461
    vertex 11.588177875066396 7.130034215589649e-08 8.97884524789423
  endloop
endfacet
facet normal -0.3826834323651136 9.676034622396318e-10 0.9238795325112769
  outer loop
    vertex 2.622047076900664 3.476864722872387 5.264952258137339
    vertex 11.588177875066396 7.130034215589649e-08 8.97884524789423
    vertex 3.001679651074273 3.401953827579178 5.4222012193188345
  endloop
endfacet
facet normal -0.3826834323651136 9.676034622396318e-10 0.9238795325112769
  outer loop
    vertex 3.001679651074273 3.401953827579178 5.4222012193188345
    vertex 11.588177875066396 7.130034215589649e-08 8.97884524789423
    vertex 3.38628907396399 3.4359471391008833 5.581511658387334
  endloop
endfacet
facet normal -0.3826834323651136 9.676034622396318e-10 0.9238795325112769
  outer loop
    vertex 3.38628907396399 3.4359471391008833 5.581511658387334
    vertex 11.588177875066396 7.130034215589649e-08 8.97884524789423
    vertex 3.7496648489970026 3.576528069433904 5.732026832193267
  endloop
endfacet
facet normal -0.3826834323651136 9.676034622396318e-10 0.9238795325112769
  outer loop
    vertex 3.7496648489970026 3.576528069433904 5.732026832193267
    vertex 11.588177875066396 7.130034215589649e-08 8.97884524789423
    vertex 4.067043517611673 3.814116260497015 5.863489380379845
  endloop
endfacet
facet normal -0.3826834323651136 9.676034622396318e-10 0.9238795325112769
  outer loop
    vertex 4.067043517611673 3.814116260497015 5.863489380379845
    vertex 11.588177875066396 7.130034215589649e-08 8.97884524789423
    vertex 4.316796248034961 4.132520469702315 5.966940347540287
  endloop
endfacet
facet normal -0.3826834323651136 9.676034622396318e-10 0.9238795325112769
  outer loop
    vertex 4.316796248034961 4.132520469702315 5.966940347540287
    vertex 11.588177875066396 7.130034215589649e-08 8.97884524789423
    vertex 4.48190280442442 4.510041976380299 6.035329721223414
  endloop
endfacet
facet normal -0.3826834323651136 9.676034622396318e-10 0.9238795325112769
  outer loop
    vertex 4.48190280442442 4.510041976380299 6.035329721223414
    vertex 11.588177875066396 7.130034215589649e-08 8.97884524789423
    vertex 4.551111447813594 4.920953313734649 6.063996878631505
  endloop
endfacet
facet normal -0.3826834323651136 9.676034622396318e-10 0.9238795325112769
  outer loop
    vertex 4.551111447813594 4.920953313734649 6.063996878631505
    vertex 11.588177875066396 7.130034215589649e-08 8.97884524789423
    vertex 11.588177875056525 10.000000071300324 8.978845237416875
  endloop
endfacet
facet normal -0.3826834323651136 9.676034622396318e-10 0.9238795325112769
  outer loop
    vertex -1.4774517737033845 9.999999985760411 3.566884235956108
    vertex 2.3997537166373824 6.423471961692358 5.1728753240455525
    vertex 11.588177875056525 10.000000071300324 8.978845237416875
  endloop
endfacet
facet normal -0.3826834323651136 9.676034622396318e-10 0.9238795325112769
  outer loop
    vertex 2.3997537166373824 6.423471961692358 5.1728753240455525
    vertex -1.4774517737033845 9.999999985760411 3.566884235956108
    vertex 2.082375048022712 6.185883770629247 5.041412775858975
  endloop
endfacet
facet normal -0.3826834323651136 9.676034622396318e-10 0.9238795325112769
  outer loop
    vertex 2.082375048022712 6.185883770629247 5.041412775858975
    vertex -1.4774517737033845 9.999999985760411 3.566884235956108
    vertex 1.832622317599424 5.867479561423947 4.937961808698533
  endloop
endfacet
facet normal -0.3826834323651136 9.676034622396318e-10 0.9238795325112769
  outer loop
    vertex 1.832622317599424 5.867479561423947 4.937961808698533
    vertex -1.4774517737033845 9.999999985760411 3.566884235956108
    vertex -1.477451773693512 -1.423959573474895e-08 3.566884246433461
  endloop
endfacet
facet normal -0.3826834323651136 9.676034622396318e-10 0.9238795325112769
  outer loop
    vertex 1.832622317599424 5.867479561423947 4.937961808698533
    vertex -1.477451773693512 -1.423959573474895e-08 3.566884246433461
    vertex 1.667515761209965 5.489958054745965 4.869572435015407
  endloop
endfacet
facet normal -0.3826834323651136 9.676034622396318e-10 0.9238795325112769
  outer loop
    vertex 1.667515761209965 5.489958054745965 4.869572435015407
    vertex -1.477451773693512 -1.423959573474895e-08 3.566884246433461
    vertex 1.5983071178207906 5.079046717391612 4.840905277607314
  endloop
endfacet
facet normal -0.3826834323651136 9.676034622396318e-10 0.9238795325112769
  outer loop
    vertex 11.588177875056525 10.000000071300324 8.978845237416875
    vertex 2.3997537166373824 6.423471961692358 5.1728753240455525
    vertex 2.763129491670395 6.564052892025377 5.323390497851486
  endloop
endfacet
facet normal -0.3826834323651136 9.676034622396318e-10 0.9238795325112769
  outer loop
    vertex 11.588177875056525 10.000000071300324 8.978845237416875
    vertex 2.763129491670395 6.564052892025377 5.323390497851486
    vertex 3.1477389145601107 6.598046203547082 5.4827009369199855
  endloop
endfacet
facet normal -0.3826834323651136 9.676034622396318e-10 0.9238795325112769
  outer loop
    vertex 11.588177875056525 10.000000071300324 8.978845237416875
    vertex 3.1477389145601107 6.598046203547082 5.4827009369199855
    vertex 3.5273714887337198 6.523135308253873 5.63994989810148
  endloop
endfacet
facet normal -0.3826834323651136 9.676034622396318e-10 0.9238795325112769
  outer loop
    vertex 11.588177875056525 10.000000071300324 8.978845237416875
    vertex 3.5273714887337198 6.523135308253873 5.63994989810148
    vertex 3.8761558816337827 6.344425259863875 5.784421124557647
  endloop
endfacet
facet normal -0.3826834323651136 9.676034622396318e-10 0.9238795325112769
  outer loop
    vertex 11.588177875056525 10.000000071300324 8.978845237416875
    vertex 3.8761558816337827 6.344425259863875 5.784421124557647
    vertex 4.1703230132776214 6.074094852842545 5.90626914095549
  endloop
endfacet
facet normal -0.3826834323651136 9.676034622396318e-10 0.9238795325112769
  outer loop
    vertex 11.588177875056525 10.000000071300324 8.978845237416875
    vertex 4.1703230132776214 6.074094852842545 5.90626914095549
    vertex 4.389825879777879 5.730566657686268 5.9971902063408615
  endloop
endfacet
facet normal -0.3826834323651136 9.676034622396318e-10 0.9238795325112769
  outer loop
    vertex 11.588177875056525 10.000000071300324 8.978845237416875
    vertex 4.389825879777879 5.730566657686268 5.9971902063408615
    vertex 4.519705723528201 5.337251553187759 6.050988200361916
  endloop
endfacet
facet normal -0.3826834323651136 9.676034622396318e-10 0.9238795325112769
  outer loop
    vertex 11.588177875056525 10.000000071300324 8.978845237416875
    vertex 4.519705723528201 5.337251553187759 6.050988200361916
    vertex 4.551111447813594 4.920953313734649 6.063996878631505
  endloop
endfacet
facet normal 0.8535533901794559 -0.38268343467099064 -0.35355338909642936
  outer loop
    vertex 16.538244691622783 5.675000017198785 6.010410677232542e-08
    vertex 18.097858937609544 5.34940574250636 4.117662645953657
    vertex 16.39226724784617 5.34940572824506 5.665572726035184e-08
  endloop
endfacet
facet normal 0.8535533901794559 -0.38268343467099064 -0.35355338909642936
  outer loop
    vertex 18.097858937609544 5.34940574250636 4.117662645953657
    vertex 16.538244691622783 5.675000017198785 6.010410677232542e-08
    vertex 18.22245847807733 5.675000031281331 4.066051825298762
  endloop
endfacet
facet normal 0.8941392937696092 -0.3797780805091812 -0.2372415075444139
  outer loop
    vertex 18.22245847807733 5.675000031281331 4.066051825298762
    vertex 18.640126027201543 5.414110510784377 6.057832663376741
    vertex 18.097858937609544 5.34940574250636 4.117662645953657
  endloop
endfacet
facet normal 0.8941392937696092 -0.3797780805091812 -0.2372415075444139
  outer loop
    vertex 18.640126027201543 5.414110510784377 6.057832663376741
    vertex 18.22245847807733 5.675000031281331 4.066051825298762
    vertex 18.78779955664495 5.800000038221356 5.9966642833412775
  endloop
endfacet
facet normal 0.7329629124858902 -0.6087614309893311 -0.3036031769597006
  outer loop
    vertex 16.770461268339506 5.954594171549456 6.306529733053623e-08
    vertex 18.22245847807733 5.675000031281331 4.066051825298762
    vertex 16.538244691622783 5.675000017198785 6.010410677232542e-08
  endloop
endfacet
facet normal 0.7329629124858902 -0.6087614309893311 -0.3036031769597006
  outer loop
    vertex 18.22245847807733 5.675000031281331 4.066051825298762
    vertex 16.770461268339506 5.954594171549456 6.306529733053623e-08
    vertex 18.42066772309655 5.954594185347643 3.9839508668557153
  endloop
endfacet
facet normal 0.7744643456420607 -0.6041396801947821 -0.18767052017661479
  outer loop
    vertex 18.42066772309655 5.954594185347643 3.9839508668557153
    vertex 18.78779955664495 5.800000038221356 5.9966642833412775
    vertex 18.22245847807733 5.675000031281331 4.066051825298762
  endloop
endfacet
facet normal 0.7744643456420607 -0.6041396801947821 -0.18767052017661479
  outer loop
    vertex 18.78779955664495 5.800000038221356 5.9966642833412775
    vertex 18.42066772309655 5.954594185347643 3.9839508668557153
    vertex 19.022714217408303 6.131370887485132 5.899359443705148
  endloop
endfacet
facet normal 0.3535533895940202 -0.9238795334665061 -0.1464466057930001
  outer loop
    vertex 17.425512521998797 6.303999881729337 6.676586406569734e-08
    vertex 18.678979040174998 6.169134325156899 3.876954815264318
    vertex 17.07309180204867 6.169134311729274 6.533749865259703e-08
  endloop
endfacet
facet normal 0.3535533895940202 -0.9238795334665061 -0.1464466057930001
  outer loop
    vertex 18.678979040174998 6.169134325156899 3.876954815264318
    vertex 17.425512521998797 6.303999881729337 6.676586406569734e-08
    vertex 18.979788939933602 6.303999894725414 3.7523552746211224
  endloop
endfacet
facet normal 0.3979353207994474 -0.9168653886367896 -0.03170709037659708
  outer loop
    vertex 19.6853764003264 6.545481357858766 5.624875778834494
    vertex 18.678979040174998 6.169134325156899 3.876954815264318
    vertex 18.979788939933602 6.303999894725414 3.7523552746211224
  endloop
endfacet
facet normal 0.3979353207994474 -0.9168653886367896 -0.03170709037659708
  outer loop
    vertex 18.678979040174998 6.169134325156899 3.876954815264318
    vertex 19.6853764003264 6.545481357858766 5.624875778834494
    vertex 19.32886096357541 6.3856406828146035 5.772549308485704
  endloop
endfacet
facet normal -0.3535533915926304 -0.9238795315560259 0.1464466130204671
  outer loop
    vertex 19.926216409065315 6.1691343217870775 3.3603321815715073
    vertex 18.181900554405377 6.3039998809111895 6.676586373523252e-08
    vertex 18.53432127244343 6.16913431014874 6.53374979476054e-08
  endloop
endfacet
facet normal -0.3535533915926304 -0.9238795315560259 0.1464466130204671
  outer loop
    vertex 18.181900554405377 6.3039998809111895 6.676586373523252e-08
    vertex 19.926216409065315 6.1691343217870775 3.3603321815715073
    vertex 19.625406509598434 6.303999892981067 3.484931721159625
  endloop
endfacet
facet normal -0.30380306665680706 -0.9168653867408119 0.25896246694558106
  outer loop
    vertex 20.80706821559349 6.385640678820741 5.160255816701622
    vertex 19.625406509598434 6.303999892981067 3.484931721159625
    vertex 19.926216409065315 6.1691343217870775 3.3603321815715073
  endloop
endfacet
facet normal -0.30380306665680706 -0.9168653867408119 0.25896246694558106
  outer loop
    vertex 19.625406509598434 6.303999892981067 3.484931721159625
    vertex 20.80706821559349 6.385640678820741 5.160255816701622
    vertex 20.450552779188282 6.545481355791392 5.307929345102405
  endloop
endfacet
facet normal 0.9159756148955787 -0.13052619469490007 -0.3794095220406782
  outer loop
    vertex 16.39226724784617 5.34940572824506 5.665572726035184e-08
    vertex 18.05536035446526 5.000000031732775 4.1352661366838035
    vertex 16.342477058563535 5.000000017410496 5.29551601947259e-08
  endloop
endfacet
facet normal 0.9159756148955787 -0.13052619469490007 -0.3794095220406782
  outer loop
    vertex 18.05536035446526 5.000000031732775 4.1352661366838035
    vertex 16.39226724784617 5.34940572824506 5.665572726035184e-08
    vertex 18.097858937609544 5.34940574250636 4.117662645953657
  endloop
endfacet
facet normal 0.9560876055086959 -0.12953523222334604 -0.2629013392995408
  outer loop
    vertex 18.097858937609544 5.34940574250636 4.117662645953657
    vertex 18.589757336067603 5.000000038756428 6.0786960597976485
    vertex 18.05536035446526 5.000000031732775 4.1352661366838035
  endloop
endfacet
facet normal 0.9560876055086959 -0.12953523222334604 -0.2629013392995408
  outer loop
    vertex 18.589757336067603 5.000000038756428 6.0786960597976485
    vertex 18.097858937609544 5.34940574250636 4.117662645953657
    vertex 18.640126027201543 5.414110510784377 6.057832663376741
  endloop
endfacet
facet normal 0.5624222235854276 -0.79335334181075 -0.2329629100413597
  outer loop
    vertex 17.07309180204867 6.169134311729274 6.533749865259703e-08
    vertex 18.42066772309655 5.954594185347643 3.9839508668557153
    vertex 16.770461268339506 5.954594171549456 6.306529733053623e-08
  endloop
endfacet
facet normal 0.5624222235854276 -0.79335334181075 -0.2329629100413597
  outer loop
    vertex 18.42066772309655 5.954594185347643 3.9839508668557153
    vertex 17.07309180204867 6.169134311729274 6.533749865259703e-08
    vertex 18.678979040174998 6.169134325156899 3.876954815264318
  endloop
endfacet
facet normal 0.6052184110691309 -0.7873301590359558 -0.11756655806551912
  outer loop
    vertex 19.32886096357541 6.3856406828146035 5.772549308485704
    vertex 18.42066772309655 5.954594185347643 3.9839508668557153
    vertex 18.678979040174998 6.169134325156899 3.876954815264318
  endloop
endfacet
facet normal 0.6052184110691309 -0.7873301590359558 -0.11756655806551912
  outer loop
    vertex 18.42066772309655 5.954594185347643 3.9839508668557153
    vertex 19.32886096357541 6.3856406828146035 5.772549308485704
    vertex 19.022714217408303 6.131370887485132 5.899359443705148
  endloop
endfacet
facet normal 0.120590476376349 -0.9914448616996258 -0.04995020737429465
  outer loop
    vertex 17.80370653852818 6.350000015830027 6.725305282118121e-08
    vertex 18.979788939933602 6.303999894725414 3.7523552746211224
    vertex 17.425512521998797 6.303999881729337 6.676586406569734e-08
  endloop
endfacet
facet normal 0.120590476376349 -0.9914448616996258 -0.04995020737429465
  outer loop
    vertex 18.979788939933602 6.303999894725414 3.7523552746211224
    vertex 17.80370653852818 6.350000015830027 6.725305282118121e-08
    vertex 19.302597724815787 6.350000028363009 3.6186434977104556
  endloop
endfacet
facet normal 0.16674107488354498 -0.9839177571668833 0.06405670205661516
  outer loop
    vertex 20.06796458981631 6.600000034762569 5.466402561755201
    vertex 18.979788939933602 6.303999894725414 3.7523552746211224
    vertex 19.302597724815787 6.350000028363009 3.6186434977104556
  endloop
endfacet
facet normal 0.16674107488354498 -0.9839177571668833 0.06405670205661516
  outer loop
    vertex 18.979788939933602 6.303999894725414 3.7523552746211224
    vertex 20.06796458981631 6.600000034762569 5.466402561755201
    vertex 19.6853764003264 6.545481357858766 5.624875778834494
  endloop
endfacet
facet normal -0.12059047852113437 -0.991444861047995 0.04995021513032715
  outer loop
    vertex 19.625406509598434 6.303999892981067 3.484931721159625
    vertex 17.80370653852818 6.350000015830027 6.725305282118121e-08
    vertex 18.181900554405377 6.3039998809111895 6.676586373523252e-08
  endloop
endfacet
facet normal -0.12059047852113437 -0.991444861047995 0.04995021513032715
  outer loop
    vertex 17.80370653852818 6.350000015830027 6.725305282118121e-08
    vertex 19.625406509598434 6.303999892981067 3.484931721159625
    vertex 19.302597724815787 6.350000028363009 3.6186434977104556
  endloop
endfacet
facet normal -0.07260882088595752 -0.9839177565202006 0.16319867503691954
  outer loop
    vertex 20.450552779188282 6.545481355791392 5.307929345102405
    vertex 19.302597724815787 6.350000028363009 3.6186434977104556
    vertex 19.625406509598434 6.303999892981067 3.484931721159625
  endloop
endfacet
facet normal -0.07260882088595752 -0.9839177565202006 0.16319867503691954
  outer loop
    vertex 19.302597724815787 6.350000028363009 3.6186434977104556
    vertex 20.450552779188282 6.545481355791392 5.307929345102405
    vertex 20.06796458981631 6.600000034762569 5.466402561755201
  endloop
endfacet
facet normal 0.12059047852109966 0.9914448610479999 -0.04995021513031433
  outer loop
    vertex 17.425512503511225 3.696000150748741 3.914445522220505e-08
    vertex 19.302597721895353 3.6500000283629004 3.618643508271453
    vertex 17.803706519388424 3.650000015829917 3.865726611422537e-08
  endloop
endfacet
facet normal 0.12059047852109966 0.9914448610479999 -0.04995021513031433
  outer loop
    vertex 19.302597721895353 3.6500000283629004 3.618643508271453
    vertex 17.425512503511225 3.696000150748741 3.914445522220505e-08
    vertex 18.97978893711268 3.696000163744828 3.752355284822248
  endloop
endfacet
facet normal 0.16674107701201935 0.9839177573072907 0.0640566943594762
  outer loop
    vertex 18.97978893711268 3.696000163744828 3.752355284822248
    vertex 20.06796458635506 3.400000034762568 5.46640257427193
    vertex 19.302597721895353 3.6500000283629004 3.618643508271453
  endloop
endfacet
facet normal 0.16674107701201935 0.9839177573072907 0.0640566943594762
  outer loop
    vertex 20.06796458635506 3.400000034762568 5.46640257427193
    vertex 18.97978893711268 3.696000163744828 3.752355284822248
    vertex 19.685376396983088 3.454518713733746 5.624875790924725
  endloop
endfacet
facet normal 0.5624222253016954 0.7933533387715951 -0.23296291624774063
  outer loop
    vertex 16.77046125480567 4.045405862345687 4.2845022662357786e-08
    vertex 18.67897903764583 3.830865734938823 3.876954824410402
    vertex 17.07309178547316 3.8308657215111785 4.0572820943739206e-08
  endloop
endfacet
facet normal 0.5624222253016954 0.7933533387715951 -0.23296291624774063
  outer loop
    vertex 18.67897903764583 3.830865734938823 3.876954824410402
    vertex 16.77046125480567 4.045405862345687 4.2845022662357786e-08
    vertex 18.420667721031503 4.045405876143888 3.983950874323452
  endloop
endfacet
facet normal 0.6052184127723379 0.787330156806988 -0.11756656422476591
  outer loop
    vertex 18.420667721031503 4.045405876143888 3.983950874323452
    vertex 19.328860960577877 3.6143593907043967 5.77254931932551
    vertex 18.67897903764583 3.830865734938823 3.876954824410402
  endloop
endfacet
facet normal 0.6052184127723379 0.787330156806988 -0.11756656422476591
  outer loop
    vertex 19.328860960577877 3.6143593907043967 5.77254931932551
    vertex 18.420667721031503 4.045405876143888 3.983950874323452
    vertex 19.02271421496083 3.8686291876881773 5.899359452555812
  endloop
endfacet
facet normal -0.9159756148955795 0.1305261946948912 0.37940952204067885
  outer loop
    vertex 20.507336509101616 4.650594314219538 3.11962436002827
    vertex 19.264935999353078 5.000000014249447 5.2955158718649696e-08
    vertex 19.21514581007044 4.650594303414894 4.925459163099277e-08
  endloop
endfacet
facet normal -0.9159756148955795 0.1305261946948912 0.37940952204067885
  outer loop
    vertex 19.264935999353078 5.000000014249447 5.2955158718649696e-08
    vertex 20.507336509101616 4.650594314219538 3.11962436002827
    vertex 20.549835092245885 5.000000024993135 3.1020208692981215
  endloop
endfacet
facet normal -0.8619553493826126 0.1295352330104184 0.49015670869593814
  outer loop
    vertex 21.54617184010377 5.000000030768709 4.854109076229482
    vertex 20.507336509101616 4.650594314219538 3.11962436002827
    vertex 21.49580314896983 4.585889558740763 4.87497247265039
  endloop
endfacet
facet normal -0.8619553493826126 0.1295352330104184 0.49015670869593814
  outer loop
    vertex 20.507336509101616 4.650594314219538 3.11962436002827
    vertex 21.54617184010377 5.000000030768709 4.854109076229482
    vertex 20.549835092245885 5.000000024993135 3.1020208692981215
  endloop
endfacet
facet normal -0.5624222235854294 0.7933533418107469 0.23296291004136566
  outer loop
    vertex 19.92621640653615 3.8308657315690007 3.360332190717591
    vertex 18.83695178957709 4.045405860110498 4.284502158283937e-08
    vertex 18.534321255867937 3.830865719930675 4.057282021671659e-08
  endloop
endfacet
facet normal -0.5624222235854294 0.7933533418107469 0.23296291004136566
  outer loop
    vertex 18.83695178957709 4.045405860110498 4.284502158283937e-08
    vertex 19.92621640653615 3.8308657315690007 3.360332190717591
    vertex 20.18452772361461 4.045405871378245 3.2533361391261946
  endloop
endfacet
facet normal -0.5110861549430264 0.7873301598230562 0.34482192746192003
  outer loop
    vertex 19.92621640653615 3.8308657315690007 3.360332190717591
    vertex 21.11321495876307 3.8686291820400074 5.0334456923219815
    vertex 20.18452772361461 4.045405871378245 3.2533361391261946
  endloop
endfacet
facet normal -0.5110861549430264 0.7873301598230562 0.34482192746192003
  outer loop
    vertex 21.11321495876307 3.8686291820400074 5.0334456923219815
    vertex 19.92621640653615 3.8308657315690007 3.360332190717591
    vertex 20.807068212595965 3.614359386710537 5.160255827541427
  endloop
endfacet
facet normal -0.7329629124858702 0.6087614309893581 0.30360317695969496
  outer loop
    vertex 20.18452772361461 4.045405871378245 3.2533361391261946
    vertex 19.069168366293837 4.325000014461178 4.5806212141050184e-08
    vertex 18.83695178957709 4.045405860110498 4.284502158283937e-08
  endloop
endfacet
facet normal -0.7329629124858702 0.6087614309893581 0.30360317695969496
  outer loop
    vertex 19.069168366293837 4.325000014461178 4.5806212141050184e-08
    vertex 20.18452772361461 4.045405871378245 3.2533361391261946
    vertex 20.382736968633825 4.325000025444578 3.171235180683139
  endloop
endfacet
facet normal -0.680332089515993 0.6041396809818566 0.4149258895729978
  outer loop
    vertex 21.34812961952642 4.200000031303785 4.936140852685853
    vertex 20.18452772361461 4.045405871378245 3.2533361391261946
    vertex 21.11321495876307 3.8686291820400074 5.0334456923219815
  endloop
endfacet
facet normal -0.680332089515993 0.6041396809818566 0.4149258895729978
  outer loop
    vertex 20.18452772361461 4.045405871378245 3.2533361391261946
    vertex 21.34812961952642 4.200000031303785 4.936140852685853
    vertex 20.382736968633825 4.325000025444578 3.171235180683139
  endloop
endfacet
facet normal 0.3535533915926242 0.923879531556028 -0.14644661302046907
  outer loop
    vertex 17.07309178547316 3.8308657215111785 4.0572820943739206e-08
    vertex 18.97978893711268 3.696000163744828 3.752355284822248
    vertex 17.425512503511225 3.696000150748741 3.914445522220505e-08
  endloop
endfacet
facet normal 0.3535533915926242 0.923879531556028 -0.14644661302046907
  outer loop
    vertex 18.97978893711268 3.696000163744828 3.752355284822248
    vertex 17.07309178547316 3.8308657215111785 4.0572820943739206e-08
    vertex 18.67897903764583 3.830865734938823 3.876954824410402
  endloop
endfacet
facet normal 0.3979353227828943 0.9168653875278961 -0.031707097549200695
  outer loop
    vertex 18.67897903764583 3.830865734938823 3.876954824410402
    vertex 19.685376396983088 3.454518713733746 5.624875790924725
    vertex 18.97978893711268 3.696000163744828 3.752355284822248
  endloop
endfacet
facet normal 0.3979353227828943 0.9168653875278961 -0.031707097549200695
  outer loop
    vertex 19.685376396983088 3.454518713733746 5.624875790924725
    vertex 18.67897903764583 3.830865734938823 3.876954824410402
    vertex 19.328860960577877 3.6143593907043967 5.77254931932551
  endloop
endfacet
facet normal -0.8535533901794591 0.3826834346709826 0.35355338909643036
  outer loop
    vertex 20.382736968633825 4.325000025444578 3.171235180683139
    vertex 19.21514581007044 4.650594303414894 4.925459163099277e-08
    vertex 19.069168366293837 4.325000014461178 4.5806212141050184e-08
  endloop
endfacet
facet normal -0.8535533901794591 0.3826834346709826 0.35355338909643036
  outer loop
    vertex 19.21514581007044 4.650594303414894 4.925459163099277e-08
    vertex 20.382736968633825 4.325000025444578 3.171235180683139
    vertex 20.507336509101616 4.650594314219538 3.11962436002827
  endloop
endfacet
facet normal -0.8000070376435409 0.37977808129626667 0.4644968769407738
  outer loop
    vertex 21.49580314896983 4.585889558740763 4.87497247265039
    vertex 20.382736968633825 4.325000025444578 3.171235180683139
    vertex 21.34812961952642 4.200000031303785 4.936140852685853
  endloop
endfacet
facet normal -0.8000070376435409 0.37977808129626667 0.4644968769407738
  outer loop
    vertex 20.382736968633825 4.325000025444578 3.171235180683139
    vertex 21.49580314896983 4.585889558740763 4.87497247265039
    vertex 20.507336509101616 4.650594314219538 3.11962436002827
  endloop
endfacet
facet normal -0.8535533910072839 -0.3826834300587465 0.35355339209013326
  outer loop
    vertex 20.507336509857478 5.34940573599638 3.119624357294878
    vertex 19.069168375863665 5.67500001446122 6.010410547249711e-08
    vertex 19.21514581502417 5.349405725191723 5.665572582833761e-08
  endloop
endfacet
facet normal -0.8535533910072839 -0.3826834300587465 0.35355339209013326
  outer loop
    vertex 19.069168375863665 5.67500001446122 6.010410547249711e-08
    vertex 20.507336509857478 5.34940573599638 3.119624357294878
    vertex 20.38273697009402 5.675000025444632 3.171235175402657
  endloop
endfacet
facet normal -0.8000070384650956 -0.3797780759319152 0.4644968799117595
  outer loop
    vertex 21.495803149865665 5.414110503068831 4.874972469410823
    vertex 20.38273697009402 5.675000025444632 3.171235175402657
    vertex 20.507336509857478 5.34940573599638 3.119624357294878
  endloop
endfacet
facet normal -0.8000070384650956 -0.3797780759319152 0.4644968799117595
  outer loop
    vertex 20.38273697009402 5.675000025444632 3.171235175402657
    vertex 21.495803149865665 5.414110503068831 4.874972469410823
    vertex 21.348129621257044 5.800000031303785 4.936140846427489
  endloop
endfacet
facet normal -0.7329629138028357 -0.6087614270286203 0.30360318172202116
  outer loop
    vertex 20.38273697009402 5.675000025444632 3.171235175402657
    vertex 18.836951803110924 5.954594169314244 6.306529627304879e-08
    vertex 19.069168375863665 5.67500001446122 6.010410547249711e-08
  endloop
endfacet
facet normal -0.7329629138028357 -0.6087614270286203 0.30360318172202116
  outer loop
    vertex 18.836951803110924 5.954594169314244 6.306529627304879e-08
    vertex 20.38273697009402 5.675000025444632 3.171235175402657
    vertex 20.18452772567966 5.954594180581999 3.253336131658458
  endloop
endfacet
facet normal -0.6803320908229152 -0.6041396762641568 0.4149258942991633
  outer loop
    vertex 21.348129621257044 5.800000031303785 4.936140846427489
    vertex 20.18452772567966 5.954594180581999 3.253336131658458
    vertex 20.38273697009402 5.675000025444632 3.171235175402657
  endloop
endfacet
facet normal -0.6803320908229152 -0.6041396762641568 0.4149258942991633
  outer loop
    vertex 20.18452772567966 5.954594180581999 3.253336131658458
    vertex 21.348129621257044 5.800000031303785 4.936140846427489
    vertex 21.11321496121054 6.131370881836959 5.033445683471319
  endloop
endfacet
facet normal -0.3535533895940155 0.9238795334665073 0.14644660579300214
  outer loop
    vertex 19.62540650677752 3.6960001620004808 3.484931731360758
    vertex 18.534321255867937 3.830865719930675 4.057282021671659e-08
    vertex 18.181900535917805 3.696000149930612 3.9144454825647267e-08
  endloop
endfacet
facet normal -0.3535533895940155 0.9238795334665073 0.14644660579300214
  outer loop
    vertex 18.534321255867937 3.830865719930675 4.057282021671659e-08
    vertex 19.62540650677752 3.6960001620004808 3.484931731360758
    vertex 19.92621640653615 3.8308657315690007 3.360332190717591
  endloop
endfacet
facet normal -0.3038030646733743 0.9168653894238742 0.25896245977298205
  outer loop
    vertex 19.62540650677752 3.6960001620004808 3.484931731360758
    vertex 20.807068212595965 3.614359386710537 5.160255827541427
    vertex 19.92621640653615 3.8308657315690007 3.360332190717591
  endloop
endfacet
facet normal -0.3038030646733743 0.9168653894238742 0.25896245977298205
  outer loop
    vertex 20.807068212595965 3.614359386710537 5.160255827541427
    vertex 19.62540650677752 3.6960001620004808 3.484931731360758
    vertex 20.450552775844972 3.4545187116663723 5.307929357192636
  endloop
endfacet
facet normal -0.9159756151779469 -0.1305261897452573 0.3794095230617796
  outer loop
    vertex 20.549835092245885 5.000000024993135 3.1020208692981215
    vertex 19.21514581502417 5.349405725191723 5.665572582833761e-08
    vertex 19.264935999353078 5.000000014249447 5.2955158718649696e-08
  endloop
endfacet
facet normal -0.9159756151779469 -0.1305261897452573 0.3794095230617796
  outer loop
    vertex 19.21514581502417 5.349405725191723 5.665572582833761e-08
    vertex 20.549835092245885 5.000000024993135 3.1020208692981215
    vertex 20.507336509857478 5.34940573599638 3.119624357294878
  endloop
endfacet
facet normal -0.8619553496628342 -0.12953522731129322 0.4901567097092856
  outer loop
    vertex 21.54617184010377 5.000000030768709 4.854109076229482
    vertex 20.507336509857478 5.34940573599638 3.119624357294878
    vertex 20.549835092245885 5.000000024993135 3.1020208692981215
  endloop
endfacet
facet normal -0.8619553496628342 -0.12953522731129322 0.4901567097092856
  outer loop
    vertex 20.507336509857478 5.34940573599638 3.119624357294878
    vertex 21.54617184010377 5.000000030768709 4.854109076229482
    vertex 21.495803149865665 5.414110503068831 4.874972469410823
  endloop
endfacet
facet normal -0.5624222253016765 -0.7933533387716126 0.23296291624772617
  outer loop
    vertex 20.18452772567966 5.954594180581999 3.253336131658458
    vertex 18.53432127244343 6.16913431014874 6.53374979476054e-08
    vertex 18.836951803110924 5.954594169314244 6.306529627304879e-08
  endloop
endfacet
facet normal -0.5624222253016765 -0.7933533387716126 0.23296291624772617
  outer loop
    vertex 18.53432127244343 6.16913431014874 6.53374979476054e-08
    vertex 20.18452772567966 5.954594180581999 3.253336131658458
    vertex 19.926216409065315 6.1691343217870775 3.3603321815715073
  endloop
endfacet
facet normal -0.5110861566462446 -0.7873301560199025 0.3448219336211756
  outer loop
    vertex 21.11321496121054 6.131370881836959 5.033445683471319
    vertex 19.926216409065315 6.1691343217870775 3.3603321815715073
    vertex 20.18452772567966 5.954594180581999 3.253336131658458
  endloop
endfacet
facet normal -0.5110861566462446 -0.7873301560199025 0.3448219336211756
  outer loop
    vertex 19.926216409065315 6.1691343217870775 3.3603321815715073
    vertex 21.11321496121054 6.131370881836959 5.033445683471319
    vertex 20.80706821559349 6.385640678820741 5.160255816701622
  endloop
endfacet
facet normal -0.12059047637633388 0.991444861699628 0.04995020737428968
  outer loop
    vertex 19.302597721895353 3.6500000283629004 3.618643508271453
    vertex 18.181900535917805 3.696000149930612 3.9144454825647267e-08
    vertex 17.803706519388424 3.650000015829917 3.865726611422537e-08
  endloop
endfacet
facet normal -0.12059047637633388 0.991444861699628 0.04995020737428968
  outer loop
    vertex 18.181900535917805 3.696000149930612 3.9144454825647267e-08
    vertex 19.302597721895353 3.6500000283629004 3.618643508271453
    vertex 19.62540650677752 3.6960001620004808 3.484931731360758
  endloop
endfacet
facet normal -0.07260881875745112 0.9839177579539723 0.163198667339768
  outer loop
    vertex 19.302597721895353 3.6500000283629004 3.618643508271453
    vertex 20.450552775844972 3.4545187116663723 5.307929357192636
    vertex 19.62540650677752 3.6960001620004808 3.484931731360758
  endloop
endfacet
facet normal -0.07260881875745112 0.9839177579539723 0.163198667339768
  outer loop
    vertex 20.450552775844972 3.4545187116663723 5.307929357192636
    vertex 19.302597721895353 3.6500000283629004 3.618643508271453
    vertex 20.06796458635506 3.400000034762568 5.46640257427193
  endloop
endfacet
facet normal 0.7329629138028634 0.6087614270285792 -0.30360318172203676
  outer loop
    vertex 16.53824468205295 4.325000017198709 4.5806213440878484e-08
    vertex 18.420667721031503 4.045405876143888 3.983950874323452
    vertex 16.77046125480567 4.045405862345687 4.2845022662357786e-08
  endloop
endfacet
facet normal 0.7329629138028634 0.6087614270285792 -0.30360318172203676
  outer loop
    vertex 18.420667721031503 4.045405876143888 3.983950874323452
    vertex 16.53824468205295 4.325000017198709 4.5806213440878484e-08
    vertex 18.222458476617128 4.325000031281277 4.066051830579242
  endloop
endfacet
facet normal 0.7744643469489978 0.6041396770512422 -0.18767052490277503
  outer loop
    vertex 18.420667721031503 4.045405876143888 3.983950874323452
    vertex 18.787799554914326 4.2000000382213525 5.996664289599642
    vertex 19.02271421496083 3.8686291876881773 5.899359452555812
  endloop
endfacet
facet normal 0.7744643469489978 0.6041396770512422 -0.18767052490277503
  outer loop
    vertex 18.787799554914326 4.2000000382213525 5.996664289599642
    vertex 18.420667721031503 4.045405876143888 3.983950874323452
    vertex 18.222458476617128 4.325000031281277 4.066051830579242
  endloop
endfacet
facet normal 0.9159756151779439 0.1305261897452802 -0.3794095230617787
  outer loop
    vertex 16.342477058563535 5.000000017410496 5.29551601947259e-08
    vertex 18.09785893685368 4.65059432072953 4.117662648687043
    vertex 16.392267242892455 4.6505943064682205 4.9254593063007e-08
  endloop
endfacet
facet normal 0.9159756151779439 0.1305261897452802 -0.3794095230617787
  outer loop
    vertex 18.09785893685368 4.65059432072953 4.117662648687043
    vertex 16.342477058563535 5.000000017410496 5.29551601947259e-08
    vertex 18.05536035446526 5.000000031732775 4.1352661366838035
  endloop
endfacet
facet normal 0.9560876057889168 0.12953522809839418 -0.26290134031288975
  outer loop
    vertex 18.09785893685368 4.65059432072953 4.117662648687043
    vertex 18.589757336067603 5.000000038756428 6.0786960597976485
    vertex 18.640126026305705 4.5858895664563075 6.057832666616309
  endloop
endfacet
facet normal 0.9560876057889168 0.12953522809839418 -0.26290134031288975
  outer loop
    vertex 18.589757336067603 5.000000038756428 6.0786960597976485
    vertex 18.09785893685368 4.65059432072953 4.117662648687043
    vertex 18.05536035446526 5.000000031732775 4.1352661366838035
  endloop
endfacet
facet normal 0.8535533910072869 0.3826834300587378 -0.35355339209013514
  outer loop
    vertex 16.392267242892455 4.6505943064682205 4.9254593063007e-08
    vertex 18.222458476617128 4.325000031281277 4.066051830579242
    vertex 16.53824468205295 4.325000017198709 4.5806213440878484e-08
  endloop
endfacet
facet normal 0.8535533910072869 0.3826834300587378 -0.35355339209013514
  outer loop
    vertex 18.222458476617128 4.325000031281277 4.066051830579242
    vertex 16.392267242892455 4.6505943064682205 4.9254593063007e-08
    vertex 18.09785893685368 4.65059432072953 4.117662648687043
  endloop
endfacet
facet normal 0.8941392945911696 0.379778076718995 -0.23724151051539585
  outer loop
    vertex 18.222458476617128 4.325000031281277 4.066051830579242
    vertex 18.640126026305705 4.5858895664563075 6.057832666616309
    vertex 18.787799554914326 4.2000000382213525 5.996664289599642
  endloop
endfacet
facet normal 0.8941392945911696 0.379778076718995 -0.23724151051539585
  outer loop
    vertex 18.640126026305705 4.5858895664563075 6.057832666616309
    vertex 18.222458476617128 4.325000031281277 4.066051830579242
    vertex 18.09785893685368 4.65059432072953 4.117662648687043
  endloop
endfacet
facet normal 0.52552399341956 -0.8224599152126764 0.21767916806326568
  outer loop
    vertex 4.665984998123425 6.201054453388169 6.567557203074336e-08
    vertex 3.002794136939756 6.000589427977216 3.2578784455646703
    vertex 4.35225154733169 6.000589417534233 6.355244056999859e-08
  endloop
endfacet
facet normal 0.52552399341956 -0.8224599152126764 0.21767916806326568
  outer loop
    vertex 3.002794136939756 6.000589427977216 3.2578784455646703
    vertex 4.665984998123425 6.201054453388169 6.567557203074336e-08
    vertex 3.270582388583377 6.201054464186703 3.3687999705970757
  endloop
endfacet
facet normal 0.47446805817816246 -0.8162157537545894 0.32965422049697984
  outer loop
    vertex 3.270582388583377 6.201054464186703 3.3687999705970757
    vertex 2.082375048022712 6.185883770629247 5.041412775858975
    vertex 3.002794136939756 6.000589427977216 3.2578784455646703
  endloop
endfacet
facet normal 0.47446805817816246 -0.8162157537545894 0.32965422049697984
  outer loop
    vertex 2.082375048022712 6.185883770629247 5.041412775858975
    vertex 3.270582388583377 6.201054464186703 3.3687999705970757
    vertex 2.3997537166373824 6.423471961692358 5.1728753240455525
  endloop
endfacet
facet normal 0.9088994125351411 -0.17934833140358789 0.37647846407998453
  outer loop
    vertex 3.9421570831286066 5.413402095222482 5.7333521009256256e-08
    vertex 2.594361820831907 5.066695664307982 3.088700243914853
    vertex 3.873743329739527 5.066695654407296 5.3661541992745805e-08
  endloop
endfacet
facet normal 0.9088994125351411 -0.17934833140358789 0.37647846407998453
  outer loop
    vertex 2.594361820831907 5.066695664307982 3.088700243914853
    vertex 3.9421570831286066 5.413402095222482 5.7333521009256256e-08
    vertex 2.65275661369153 5.413402105200702 3.11288815797794
  endloop
endfacet
facet normal 0.8549328699411995 -0.17798670860343815 0.487247903489198
  outer loop
    vertex 2.65275661369153 5.413402105200702 3.11288815797794
    vertex 1.5983071178207906 5.079046717391612 4.840905277607314
    vertex 2.594361820831907 5.066695664307982 3.088700243914853
  endloop
endfacet
facet normal 0.8549328699411995 -0.17798670860343815 0.487247903489198
  outer loop
    vertex 1.5983071178207906 5.079046717391612 4.840905277607314
    vertex 2.65275661369153 5.413402105200702 3.11288815797794
    vertex 1.667515761209965 5.489958054745965 4.869572435015407
  endloop
endfacet
facet normal 0.7042818538957749 -0.6472130287211135 0.29172309769158433
  outer loop
    vertex 4.35225154733169 6.000589417534233 6.355244056999859e-08
    vertex 2.7920652706450455 5.731935876460242 3.1705916920230957
    vertex 4.105367325083104 5.731935866297056 6.070712232440072e-08
  endloop
endfacet
facet normal 0.7042818538957749 -0.6472130287211135 0.29172309769158433
  outer loop
    vertex 2.7920652706450455 5.731935876460242 3.1705916920230957
    vertex 4.35225154733169 6.000589417534233 6.355244056999859e-08
    vertex 3.002794136939756 6.000589427977216 3.2578784455646703
  endloop
endfacet
facet normal 0.6518687791063766 -0.6422993513026455 0.4031360045227454
  outer loop
    vertex 3.002794136939756 6.000589427977216 3.2578784455646703
    vertex 1.832622317599424 5.867479561423947 4.937961808698533
    vertex 2.7920652706450455 5.731935876460242 3.1705916920230957
  endloop
endfacet
facet normal 0.6518687791063766 -0.6422993513026455 0.4031360045227454
  outer loop
    vertex 1.832622317599424 5.867479561423947 4.937961808698533
    vertex 3.002794136939756 6.000589427977216 3.2578784455646703
    vertex 2.082375048022712 6.185883770629247 5.041412775858975
  endloop
endfacet
facet normal 0.8350440699099462 -0.4278596438920318 0.34588658030750025
  outer loop
    vertex 4.105367325083104 5.731935866297056 6.070712232440072e-08
    vertex 2.65275661369153 5.413402105200702 3.11288815797794
    vertex 3.9421570831286066 5.413402095222482 5.7333521009256256e-08
  endloop
endfacet
facet normal 0.8350440699099462 -0.4278596438920318 0.34588658030750025
  outer loop
    vertex 2.65275661369153 5.413402105200702 3.11288815797794
    vertex 4.105367325083104 5.731935866297056 6.070712232440072e-08
    vertex 2.7920652706450455 5.731935876460242 3.1705916920230957
  endloop
endfacet
facet normal 0.7816382411555888 -0.4246113094843721 0.45688827498762136
  outer loop
    vertex 2.7920652706450455 5.731935876460242 3.1705916920230957
    vertex 1.667515761209965 5.489958054745965 4.869572435015407
    vertex 2.65275661369153 5.413402105200702 3.11288815797794
  endloop
endfacet
facet normal 0.7816382411555888 -0.4246113094843721 0.45688827498762136
  outer loop
    vertex 1.667515761209965 5.489958054745965 4.869572435015407
    vertex 2.7920652706450455 5.731935876460242 3.1705916920230957
    vertex 1.832622317599424 5.867479561423947 4.937961808698533
  endloop
endfacet
facet normal 0.3109525412613236 -0.9416575176617867 0.12880076286329417
  outer loop
    vertex 5.025187261255832 6.319669612949572 6.693182883089205e-08
    vertex 3.270582388583377 6.201054464186703 3.3687999705970757
    vertex 4.665984998123425 6.201054453388169 6.567557203074336e-08
  endloop
endfacet
facet normal 0.3109525412613236 -0.9416575176617867 0.12880076286329417
  outer loop
    vertex 3.270582388583377 6.201054464186703 3.3687999705970757
    vertex 5.025187261255832 6.319669612949572 6.693182883089205e-08
    vertex 3.577180698767347 6.319669624155198 3.4957971484958885
  endloop
endfacet
facet normal 0.2615256443336214 -0.9345084014236539 0.24145058505725556
  outer loop
    vertex 3.577180698767347 6.319669624155198 3.4957971484958885
    vertex 2.3997537166373824 6.423471961692358 5.1728753240455525
    vertex 3.270582388583377 6.201054464186703 3.3687999705970757
  endloop
endfacet
facet normal 0.2615256443336214 -0.9345084014236539 0.24145058505725556
  outer loop
    vertex 2.3997537166373824 6.423471961692358 5.1728753240455525
    vertex 3.577180698767347 6.319669624155198 3.4957971484958885
    vertex 2.763129491670395 6.564052892025377 5.323390497851486
  endloop
endfacet
facet normal 0.07519018728929902 -0.9966827164449507 0.0311447985274316
  outer loop
    vertex 5.405379296106532 6.348351469115143 6.723559910128823e-08
    vertex 3.577180698767347 6.319669624155198 3.4957971484958885
    vertex 5.025187261255832 6.319669612949572 6.693182883089205e-08
  endloop
endfacet
facet normal 0.07519018728929902 -0.9966827164449507 0.0311447985274316
  outer loop
    vertex 3.577180698767347 6.319669624155198 3.4957971484958885
    vertex 5.405379296106532 6.348351469115143 6.723559910128823e-08
    vertex 3.9016948993306277 6.3483514807516395 3.630215331459885
  endloop
endfacet
facet normal 0.0275532111722075 -0.9891158458590478 0.14453603019538128
  outer loop
    vertex 3.9016948993306277 6.3483514807516395 3.630215331459885
    vertex 2.763129491670395 6.564052892025377 5.323390497851486
    vertex 3.577180698767347 6.319669624155198 3.4957971484958885
  endloop
endfacet
facet normal 0.0275532111722075 -0.9891158458590478 0.14453603019538128
  outer loop
    vertex 2.763129491670395 6.564052892025377 5.323390497851486
    vertex 3.9016948993306277 6.3483514807516395 3.630215331459885
    vertex 3.1477389145601107 6.598046203547082 5.4827009369199855
  endloop
endfacet
facet normal -0.39529076880387437 -0.9038451886957471 -0.16373479462225324
  outer loop
    vertex 4.516296715299022 6.134358809518954 3.884791739779166
    vertex 5.780651643797264 6.285145400786192 6.656618140189058e-08
    vertex 6.125430113999783 6.134358797066413 6.496919547609863e-08
  endloop
endfacet
facet normal -0.39529076880387437 -0.9038451886957471 -0.16373479462225324
  outer loop
    vertex 5.780651643797264 6.285145400786192 6.656618140189058e-08
    vertex 4.516296715299022 6.134358809518954 3.884791739779166
    vertex 4.22200988378963 6.285145412847997 3.762894142456754
  endloop
endfacet
facet normal -0.4393558275215931 -0.896983145747155 -0.048864026321561824
  outer loop
    vertex 4.516296715299022 6.134358809518954 3.884791739779166
    vertex 3.5273714887337198 6.523135308253873 5.63994989810148
    vertex 4.22200988378963 6.285145412847997 3.762894142456754
  endloop
endfacet
facet normal -0.4393558275215931 -0.896983145747155 -0.048864026321561824
  outer loop
    vertex 3.5273714887337198 6.523135308253873 5.63994989810148
    vertex 4.516296715299022 6.134358809518954 3.884791739779166
    vertex 3.8761558816337827 6.344425259863875 5.784421124557647
  endloop
endfacet
facet normal -0.525523993419592 0.8224599152126529 -0.21767916806327733
  outer loop
    vertex 4.4095699065117095 3.7989455550937326 3.840584055596735
    vertex 6.31412534390008 3.999410578636853 4.2357890262141595e-08
    vertex 6.000391893108345 3.798945542782901 4.0234758779365826e-08
  endloop
endfacet
facet normal -0.525523993419592 0.8224599152126529 -0.21767916806327733
  outer loop
    vertex 6.31412534390008 3.999410578636853 4.2357890262141595e-08
    vertex 4.4095699065117095 3.7989455550937326 3.840584055596735
    vertex 4.677358158155331 3.999410591303235 3.951505580629144
  endloop
endfacet
facet normal -0.5686003143043308 0.8162157544830377 -0.10239885110049667
  outer loop
    vertex 3.7496648489970026 3.576528069433904 5.732026832193267
    vertex 4.677358158155331 3.999410591303235 3.951505580629144
    vertex 4.4095699065117095 3.7989455550937326 3.840584055596735
  endloop
endfacet
facet normal -0.5686003143043308 0.8162157544830377 -0.10239885110049667
  outer loop
    vertex 4.677358158155331 3.999410591303235 3.951505580629144
    vertex 3.7496648489970026 3.576528069433904 5.732026832193267
    vertex 4.067043517611673 3.814116260497015 5.863489380379845
  endloop
endfacet
facet normal -0.7042818538957538 0.6472130287211416 -0.2917230976915727
  outer loop
    vertex 4.677358158155331 3.999410591303235 3.951505580629144
    vertex 6.561009566148684 4.26806412987402 4.520320852977044e-08
    vertex 6.31412534390008 3.999410578636853 4.2357890262141595e-08
  endloop
endfacet
facet normal -0.7042818538957538 0.6472130287211416 -0.2917230976915727
  outer loop
    vertex 6.561009566148684 4.26806412987402 4.520320852977044e-08
    vertex 4.677358158155331 3.999410591303235 3.951505580629144
    vertex 4.888087024450045 4.268064142820196 4.038792334170722
  endloop
endfacet
facet normal -0.7460010352325119 0.6422993520311251 -0.17588063512626184
  outer loop
    vertex 4.316796248034961 4.132520469702315 5.966940347540287
    vertex 4.677358158155331 3.999410591303235 3.951505580629144
    vertex 4.067043517611673 3.814116260497015 5.863489380379845
  endloop
endfacet
facet normal -0.7460010352325119 0.6422993520311251 -0.17588063512626184
  outer loop
    vertex 4.677358158155331 3.999410591303235 3.951505580629144
    vertex 4.316796248034961 4.132520469702315 5.966940347540287
    vertex 4.888087024450045 4.268064142820196 4.038792334170722
  endloop
endfacet
facet normal -0.8350440699099336 0.42785964389206055 -0.3458865803074952
  outer loop
    vertex 4.888087024450045 4.268064142820196 4.038792334170722
    vertex 6.724219808103201 4.586597900948608 4.857680984491491e-08
    vertex 6.561009566148684 4.26806412987402 4.520320852977044e-08
  endloop
endfacet
facet normal -0.8350440699099336 0.42785964389206055 -0.3458865803074952
  outer loop
    vertex 6.724219808103201 4.586597900948608 4.857680984491491e-08
    vertex 4.888087024450045 4.268064142820196 4.038792334170722
    vertex 5.02739568140356 4.586597914079737 4.096495868215877
  endloop
endfacet
facet normal -0.875770497281754 0.4246113102128106 -0.2296329055911405
  outer loop
    vertex 4.48190280442442 4.510041976380299 6.035329721223414
    vertex 4.888087024450045 4.268064142820196 4.038792334170722
    vertex 4.316796248034961 4.132520469702315 5.966940347540287
  endloop
endfacet
facet normal -0.875770497281754 0.4246113102128106 -0.2296329055911405
  outer loop
    vertex 4.888087024450045 4.268064142820196 4.038792334170722
    vertex 4.48190280442442 4.510041976380299 6.035329721223414
    vertex 5.02739568140356 4.586597914079737 4.096495868215877
  endloop
endfacet
facet normal 0.7598538826205723 0.568823072552764 0.3147417817800403
  outer loop
    vertex 4.0331764745924525 4.383584395267462 4.642668859512061e-08
    vertex 2.9156520624715507 4.093732490685734 3.2217830225790163
    vertex 4.250158267488515 4.093732480358458 4.335685755037233e-08
  endloop
endfacet
facet normal 0.7598538826205723 0.568823072552764 0.3147417817800403
  outer loop
    vertex 2.9156520624715507 4.093732490685734 3.2217830225790163
    vertex 4.0331764745924525 4.383584395267462 4.642668859512061e-08
    vertex 2.7304465188619598 4.383584405348829 3.145068373660128
  endloop
endfacet
facet normal 0.7070189019202924 0.5645045367388444 0.4259799294904478
  outer loop
    vertex 2.9156520624715507 4.093732490685734 3.2217830225790163
    vertex 1.7595926858565045 4.269433373439993 4.907711949897958
    vertex 1.9790955523567626 3.925905178283716 4.99863301528333
  endloop
endfacet
facet normal 0.7070189019202924 0.5645045367388444 0.4259799294904478
  outer loop
    vertex 1.7595926858565045 4.269433373439993 4.907711949897958
    vertex 2.9156520624715507 4.093732490685734 3.2217830225790163
    vertex 2.7304465188619598 4.383584405348829 3.145068373660128
  endloop
endfacet
facet normal -0.9208147622234429 -0.081385273483006 -0.3814139626855321
  outer loop
    vertex 5.085790474263173 4.933304354972458 4.120683782278954
    vertex 6.7615885420814985 5.284555981337525 5.596890624796208e-08
    vertex 6.792633561492288 4.933304341763795 5.2248788861425366e-08
  endloop
endfacet
facet normal -0.9208147622234429 -0.081385273483006 -0.3814139626855321
  outer loop
    vertex 6.7615885420814985 5.284555981337525 5.596890624796208e-08
    vertex 5.085790474263173 4.933304354972458 4.120683782278954
    vertex 5.0592918943974095 5.284555994511011 4.1097077099889745
  endloop
endfacet
facet normal -0.960890013762846 -0.08076739162830114 -0.26489056212028095
  outer loop
    vertex 4.519705723528201 5.337251553187759 6.050988200361916
    vertex 5.085790474263173 4.933304354972458 4.120683782278954
    vertex 4.551111447813594 4.920953313734649 6.063996878631505
  endloop
endfacet
facet normal -0.960890013762846 -0.08076739162830114 -0.26489056212028095
  outer loop
    vertex 5.085790474263173 4.933304354972458 4.120683782278954
    vertex 4.519705723528201 5.337251553187759 6.050988200361916
    vertex 5.0592918943974095 5.284555994511011 4.1097077099889745
  endloop
endfacet
facet normal -0.7598538826205743 -0.568823072552764 -0.31474178178003553
  outer loop
    vertex 4.949705776233131 5.616415613931606 4.0643156525337
    vertex 6.41621862374326 5.906267515812636 6.255347325973687e-08
    vertex 6.633200416639323 5.616415600903632 5.948364221498858e-08
  endloop
endfacet
facet normal -0.7598538826205743 -0.568823072552764 -0.31474178178003553
  outer loop
    vertex 6.41621862374326 5.906267515812636 6.255347325973687e-08
    vertex 4.949705776233131 5.616415613931606 4.0643156525337
    vertex 4.764500232623535 5.906267528594714 3.987601003614811
  endloop
endfacet
facet normal -0.8011511580464356 -0.564504536010386 -0.19872456009400116
  outer loop
    vertex 4.389825879777879 5.730566657686268 5.9971902063408615
    vertex 4.764500232623535 5.906267528594714 3.987601003614811
    vertex 4.949705776233131 5.616415613931606 4.0643156525337
  endloop
endfacet
facet normal -0.8011511580464356 -0.564504536010386 -0.19872456009400116
  outer loop
    vertex 4.764500232623535 5.906267528594714 3.987601003614811
    vertex 4.389825879777879 5.730566657686268 5.9971902063408615
    vertex 4.1703230132776214 6.074094852842545 5.90626914095549
  endloop
endfacet
facet normal 0.3952907688039101 0.9038451886957275 0.16373479462227486
  outer loop
    vertex 4.540946777231979 3.8656411991046706 4.094113533401056e-08
    vertex 3.458142411305452 3.7148546064324424 3.4464898837370384
    vertex 4.885725247434498 3.7148545953848737 3.934414938618763e-08
  endloop
endfacet
facet normal 0.3952907688039101 0.9038451886957275 0.16373479462227486
  outer loop
    vertex 3.458142411305452 3.7148546064324424 3.4464898837370384
    vertex 4.540946777231979 3.8656411991046706 4.094113533401056e-08
    vertex 3.1638555797960617 3.865641209761496 3.324592286414659
  endloop
endfacet
facet normal 0.34522357139545745 0.8969831464756074 0.27611939571802
  outer loop
    vertex 2.273262684000601 3.655574771262386 5.120481031681171
    vertex 3.458142411305452 3.7148546064324424 3.4464898837370384
    vertex 3.1638555797960617 3.865641209761496 3.324592286414659
  endloop
endfacet
facet normal 0.34522357139545745 0.8969831464756074 0.27611939571802
  outer loop
    vertex 3.458142411305452 3.7148546064324424 3.4464898837370384
    vertex 2.273262684000601 3.655574771262386 5.120481031681171
    vertex 2.622047076900664 3.476864722872387 5.264952258137339
  endloop
endfacet
facet normal -0.16569625368873817 -0.9837856351984164 -0.06863363235882233
  outer loop
    vertex 4.22200988378963 6.285145412847997 3.762894142456754
    vertex 5.405379296106532 6.348351469115143 6.723559910128823e-08
    vertex 5.780651643797264 6.285145400786192 6.656618140189058e-08
  endloop
endfacet
facet normal -0.16569625368873817 -0.9837856351984164 -0.06863363235882233
  outer loop
    vertex 5.405379296106532 6.348351469115143 6.723559910128823e-08
    vertex 4.22200988378963 6.285145412847997 3.762894142456754
    vertex 3.9016948993306277 6.3483514807516395 3.630215331459885
  endloop
endfacet
facet normal -0.21150440664377626 -0.9763166799655388 0.04551512266633989
  outer loop
    vertex 4.22200988378963 6.285145412847997 3.762894142456754
    vertex 3.1477389145601107 6.598046203547082 5.4827009369199855
    vertex 3.9016948993306277 6.3483514807516395 3.630215331459885
  endloop
endfacet
facet normal -0.21150440664377626 -0.9763166799655388 0.04551512266633989
  outer loop
    vertex 3.1477389145601107 6.598046203547082 5.4827009369199855
    vertex 4.22200988378963 6.285145412847997 3.762894142456754
    vertex 3.5273714887337198 6.523135308253873 5.63994989810148
  endloop
endfacet
facet normal 0.9208147622234435 0.08138527348300927 0.3814139626855303
  outer loop
    vertex 3.873743329739527 5.066695654407296 5.3661541992745805e-08
    vertex 2.6208604006976732 4.715444024769437 3.099676316204837
    vertex 3.904788349150316 4.715444014833569 4.9941424562147113e-08
  endloop
endfacet
facet normal 0.9208147622234435 0.08138527348300927 0.3814139626855303
  outer loop
    vertex 2.6208604006976732 4.715444024769437 3.099676316204837
    vertex 3.873743329739527 5.066695654407296 5.3661541992745805e-08
    vertex 2.594361820831907 5.066695664307982 3.088700243914853
  endloop
endfacet
facet normal 0.8667577576366855 0.0807673923567712 0.4921459315167728
  outer loop
    vertex 2.6208604006976732 4.715444024769437 3.099676316204837
    vertex 1.5983071178207906 5.079046717391612 4.840905277607314
    vertex 1.6297128421061824 4.662748477938503 4.853913955876904
  endloop
endfacet
facet normal 0.8667577576366855 0.0807673923567712 0.4921459315167728
  outer loop
    vertex 1.5983071178207906 5.079046717391612 4.840905277607314
    vertex 2.6208604006976732 4.715444024769437 3.099676316204837
    vertex 2.594361820831907 5.066695664307982 3.088700243914853
  endloop
endfacet
facet normal 0.1656962536886978 0.9837856351984242 0.06863363235880743
  outer loop
    vertex 4.885725247434498 3.7148545953848737 3.934414938618763e-08
    vertex 3.778457395764463 3.6516485385288058 3.579168694733936
    vertex 5.260997595125237 3.6516485270559356 3.8674731708820964e-08
  endloop
endfacet
facet normal 0.1656962536886978 0.9837856351984242 0.06863363235880743
  outer loop
    vertex 3.778457395764463 3.6516485385288058 3.579168694733936
    vertex 4.885725247434498 3.7148545953848737 3.934414938618763e-08
    vertex 3.458142411305452 3.7148546064324424 3.4464898837370384
  endloop
endfacet
facet normal 0.11737215051761639 0.976316680693998 0.18174024673011815
  outer loop
    vertex 2.622047076900664 3.476864722872387 5.264952258137339
    vertex 3.778457395764463 3.6516485385288058 3.579168694733936
    vertex 3.458142411305452 3.7148546064324424 3.4464898837370384
  endloop
endfacet
facet normal 0.11737215051761639 0.976316680693998 0.18174024673011815
  outer loop
    vertex 3.778457395764463 3.6516485385288058 3.579168694733936
    vertex 2.622047076900664 3.476864722872387 5.264952258137339
    vertex 3.001679651074273 3.401953827579178 5.4222012193188345
  endloop
endfacet
facet normal -0.9088994125351411 0.17934833140358136 -0.37647846407998786
  outer loop
    vertex 5.02739568140356 4.586597914079737 4.096495868215877
    vertex 6.792633561492288 4.933304341763795 5.2248788861425366e-08
    vertex 6.724219808103201 4.586597900948608 4.857680984491491e-08
  endloop
endfacet
facet normal -0.9088994125351411 0.17934833140358136 -0.37647846407998786
  outer loop
    vertex 6.792633561492288 4.933304341763795 5.2248788861425366e-08
    vertex 5.02739568140356 4.586597914079737 4.096495868215877
    vertex 5.085790474263173 4.933304354972458 4.120683782278954
  endloop
endfacet
facet normal -0.9490651260673693 0.17798670933187868 -0.25999253409268874
  outer loop
    vertex 4.551111447813594 4.920953313734649 6.063996878631505
    vertex 5.02739568140356 4.586597914079737 4.096495868215877
    vertex 4.48190280442442 4.510041976380299 6.035329721223414
  endloop
endfacet
facet normal -0.9490651260673693 0.17798670933187868 -0.25999253409268874
  outer loop
    vertex 5.02739568140356 4.586597914079737 4.096495868215877
    vertex 4.551111447813594 4.920953313734649 6.063996878631505
    vertex 5.085790474263173 4.933304354972458 4.120683782278954
  endloop
endfacet
facet normal -0.5979468712738795 -0.7623091862582958 -0.24767770121670968
  outer loop
    vertex 4.764500232623535 5.906267528594714 3.987601003614811
    vertex 6.125430113999783 6.134358797066413 6.496919547609863e-08
    vertex 6.41621862374326 5.906267515812636 6.255347325973687e-08
  endloop
endfacet
facet normal -0.5979468712738795 -0.7623091862582958 -0.24767770121670968
  outer loop
    vertex 6.125430113999783 6.134358797066413 6.496919547609863e-08
    vertex 4.764500232623535 5.906267528594714 3.987601003614811
    vertex 4.516296715299022 6.134358809518954 3.884791739779166
  endloop
endfacet
facet normal -0.6404733536706788 -0.7565216924560269 -0.13216963373370744
  outer loop
    vertex 4.764500232623535 5.906267528594714 3.987601003614811
    vertex 3.8761558816337827 6.344425259863875 5.784421124557647
    vertex 4.516296715299022 6.134358809518954 3.884791739779166
  endloop
endfacet
facet normal -0.6404733536706788 -0.7565216924560269 -0.13216963373370744
  outer loop
    vertex 3.8761558816337827 6.344425259863875 5.784421124557647
    vertex 4.764500232623535 5.906267528594714 3.987601003614811
    vertex 4.1703230132776214 6.074094852842545 5.90626914095549
  endloop
endfacet
facet normal -0.07519018728928888 0.9966827164449515 -0.031144798527428394
  outer loop
    vertex 3.778457395764463 3.6516485385288058 3.579168694733936
    vertex 5.64118962997593 3.6803303832215026 3.897850200124814e-08
    vertex 5.260997595125237 3.6516485270559356 3.8674731708820964e-08
  endloop
endfacet
facet normal -0.07519018728928888 0.9966827164449515 -0.031144798527428394
  outer loop
    vertex 5.64118962997593 3.6803303832215026 3.897850200124814e-08
    vertex 3.778457395764463 3.6516485385288058 3.579168694733936
    vertex 4.102971596327739 3.680330395125252 3.7135868776979124
  endloop
endfacet
facet normal -0.12168546729834673 0.9891158465875057 0.08271933920108906
  outer loop
    vertex 3.001679651074273 3.401953827579178 5.4222012193188345
    vertex 4.102971596327739 3.680330395125252 3.7135868776979124
    vertex 3.778457395764463 3.6516485385288058 3.579168694733936
  endloop
endfacet
facet normal -0.12168546729834673 0.9891158465875057 0.08271933920108906
  outer loop
    vertex 4.102971596327739 3.680330395125252 3.7135868776979124
    vertex 3.001679651074273 3.401953827579178 5.4222012193188345
    vertex 3.38628907396399 3.4359471391008833 5.581511658387334
  endloop
endfacet
facet normal 0.8699781075845792 0.33657260647728043 0.36035673005043795
  outer loop
    vertex 3.904788349150316 4.715444014833569 4.9941424562147113e-08
    vertex 2.7304465188619598 4.383584405348829 3.145068373660128
    vertex 4.0331764745924525 4.383584395267462 4.642668859512061e-08
  endloop
endfacet
facet normal 0.8699781075845792 0.33657260647728043 0.36035673005043795
  outer loop
    vertex 2.7304465188619598 4.383584405348829 3.145068373660128
    vertex 3.904788349150316 4.715444014833569 4.9941424562147113e-08
    vertex 2.6208604006976732 4.715444024769437 3.099676316204837
  endloop
endfacet
facet normal 0.8163070576871104 0.33401732902711334 0.47124856655464303
  outer loop
    vertex 2.7304465188619598 4.383584405348829 3.145068373660128
    vertex 1.6297128421061824 4.662748477938503 4.853913955876904
    vertex 1.7595926858565045 4.269433373439993 4.907711949897958
  endloop
endfacet
facet normal 0.8163070576871104 0.33401732902711334 0.47124856655464303
  outer loop
    vertex 1.6297128421061824 4.662748477938503 4.853913955876904
    vertex 2.7304465188619598 4.383584405348829 3.145068373660128
    vertex 2.6208604006976732 4.715444024769437 3.099676316204837
  endloop
endfacet
facet normal 0.5979468712739002 0.7623091862582742 0.24767770121672653
  outer loop
    vertex 4.250158267488515 4.093732480358458 4.335685755037233e-08
    vertex 3.1638555797960617 3.865641209761496 3.324592286414659
    vertex 4.540946777231979 3.8656411991046706 4.094113533401056e-08
  endloop
endfacet
facet normal 0.5979468712739002 0.7623091862582742 0.24767770121672653
  outer loop
    vertex 3.1638555797960617 3.865641209761496 3.324592286414659
    vertex 4.250158267488515 4.093732480358458 4.335685755037233e-08
    vertex 2.9156520624715507 4.093732490685734 3.2217830225790163
  endloop
endfacet
facet normal 0.5463410975445403 0.7565216931844785 0.35942500313016174
  outer loop
    vertex 1.9790955523567626 3.925905178283716 4.99863301528333
    vertex 3.1638555797960617 3.865641209761496 3.324592286414659
    vertex 2.9156520624715507 4.093732490685734 3.2217830225790163
  endloop
endfacet
facet normal 0.5463410975445403 0.7565216931844785 0.35942500313016174
  outer loop
    vertex 3.1638555797960617 3.865641209761496 3.324592286414659
    vertex 1.9790955523567626 3.925905178283716 4.99863301528333
    vertex 2.273262684000601 3.655574771262386 5.120481031681171
  endloop
endfacet
facet normal -0.9104393138132647 -0.3340173282986375 -0.2439931971581835
  outer loop
    vertex 4.519705723528201 5.337251553187759 6.050988200361916
    vertex 4.949705776233131 5.616415613931606 4.0643156525337
    vertex 5.0592918943974095 5.284555994511011 4.1097077099889745
  endloop
endfacet
facet normal -0.9104393138132647 -0.3340173282986375 -0.2439931971581835
  outer loop
    vertex 4.949705776233131 5.616415613931606 4.0643156525337
    vertex 4.519705723528201 5.337251553187759 6.050988200361916
    vertex 4.389825879777879 5.730566657686268 5.9971902063408615
  endloop
endfacet
facet normal -0.8699781075845632 -0.33657260647733156 -0.36035673005042923
  outer loop
    vertex 5.0592918943974095 5.284555994511011 4.1097077099889745
    vertex 6.633200416639323 5.616415600903632 5.948364221498858e-08
    vertex 6.7615885420814985 5.284555981337525 5.596890624796208e-08
  endloop
endfacet
facet normal -0.8699781075845632 -0.33657260647733156 -0.36035673005042923
  outer loop
    vertex 6.633200416639323 5.616415600903632 5.948364221498858e-08
    vertex 5.0592918943974095 5.284555994511011 4.1097077099889745
    vertex 4.949705776233131 5.616415613931606 4.0643156525337
  endloop
endfacet
facet normal -0.35565790045978946 0.9345084021521037 -0.01419521566079731
  outer loop
    vertex 3.38628907396399 3.4359471391008833 5.581511658387334
    vertex 4.4095699065117095 3.7989455550937326 3.840584055596735
    vertex 4.102971596327739 3.680330395125252 3.7135868776979124
  endloop
endfacet
facet normal -0.35565790045978946 0.9345084021521037 -0.01419521566079731
  outer loop
    vertex 4.4095699065117095 3.7989455550937326 3.840584055596735
    vertex 3.38628907396399 3.4359471391008833 5.581511658387334
    vertex 3.7496648489970026 3.576528069433904 5.732026832193267
  endloop
endfacet
facet normal -0.3109525412613057 0.9416575176617936 -0.12880076286328818
  outer loop
    vertex 4.102971596327739 3.680330395125252 3.7135868776979124
    vertex 6.000391893108345 3.798945542782901 4.0234758779365826e-08
    vertex 5.64118962997593 3.6803303832215026 3.897850200124814e-08
  endloop
endfacet
facet normal -0.3109525412613057 0.9416575176617936 -0.12880076286328818
  outer loop
    vertex 6.000391893108345 3.798945542782901 4.0234758779365826e-08
    vertex 4.102971596327739 3.680330395125252 3.7135868776979124
    vertex 4.4095699065117095 3.7989455550937326 3.840584055596735
  endloop
endfacet
facet normal 9.32062424556152e-10 -1.0 6.337389194742906e-09
  outer loop
    vertex 23.176355730012663 1.6654427269109162e-08 3.569020079474683e-15
    vertex -1.477451773693512 -1.423959573474895e-08 3.566884246433461
    vertex 0.0 2.8309396196790317e-18 0.0
  endloop
endfacet
facet normal 9.32062424556152e-10 -1.0 6.337389194742906e-09
  outer loop
    vertex -1.477451773693512 -1.423959573474895e-08 3.566884246433461
    vertex 23.176355730012663 1.6654427269109162e-08 3.569020079474683e-15
    vertex 24.65380752382989 1.458677767756731e-08 3.5668842464328767
  endloop
endfacet
facet normal 9.32062424556152e-10 -1.0 6.337389194742906e-09
  outer loop
    vertex -1.477451773693512 -1.423959573474895e-08 3.566884246433461
    vertex 24.65380752382989 1.458677767756731e-08 3.5668842464328767
    vertex 11.588177875066396 7.130034215589649e-08 8.97884524789423
  endloop
endfacet
facet normal 3.948161604215753e-09 0.9999999999999998 -2.3520102138835613e-08
  outer loop
    vertex -1.4774517737033845 9.999999985760411 3.566884235956108
    vertex 23.17635561130543 9.999999745953652 1.0591032182146603e-07
    vertex 7.824447618848262e-08 9.999999986283568 7.233158674877643e-08
  endloop
endfacet
facet normal 3.948161604215753e-09 0.9999999999999998 -2.3520102138835613e-08
  outer loop
    vertex 23.17635561130543 9.999999745953652 1.0591032182146603e-07
    vertex -1.4774517737033845 9.999999985760411 3.566884235956108
    vertex 24.65380752382003 10.000000014586771 3.5668842359555213
  endloop
endfacet
facet normal 3.948161604215753e-09 0.9999999999999998 -2.3520102138835613e-08
  outer loop
    vertex 24.65380752382003 10.000000014586771 3.5668842359555213
    vertex -1.4774517737033845 9.999999985760411 3.566884235956108
    vertex 11.588177875056525 10.000000071300324 8.978845237416875
  endloop
endfacet
endsolid 45 degree plastic bracket for boards
